<svg width="48" height="29" viewBox="0 0 48 29" fill="none" xmlns="http://www.w3.org/2000/svg">
<rect x="0.0922852" y="0.224731" width="47.2125" height="28.738" rx="4.10543" fill="white"/>
<g clip-path="url(#clip0_1_13569)">
<path d="M19.5857 20.5928H14.4775V8.43665H19.7694C22.2512 8.43665 23.1143 10.4575 21.8591 12.3224L21.2648 13.2041C25.4267 15.3656 24.074 20.5939 19.5837 20.5939M18.9771 13.784L19.9911 12.2701C20.1893 12.0184 20.2977 11.7077 20.299 11.3874C20.2876 11.0217 20.1346 10.6748 19.8723 10.4197C19.6099 10.1647 19.2588 10.0215 18.8929 10.0203H17.3401V18.9599H18.2022C18.5498 18.9923 18.9002 18.9466 19.2279 18.8261C19.5555 18.7056 19.852 18.5133 20.0958 18.2634C20.3395 18.0135 20.5242 17.7122 20.6365 17.3816C20.7487 17.0511 20.7856 16.6996 20.7445 16.3529C20.8192 15.7827 20.6801 15.2051 20.3542 14.7313C20.0282 14.2575 19.5384 13.9211 18.9791 13.7871" fill="#004290"/>
<path d="M9.30389 20.5927H4.19775V8.43652H9.49068C11.9714 8.43652 12.8366 10.4574 11.5793 12.3223L10.9861 13.204C15.1469 15.3655 13.7942 20.5927 9.30389 20.5927ZM8.69731 13.7839L9.71135 12.27C9.9095 12.0183 10.0179 11.7076 10.0193 11.3873C10.0084 11.022 9.85611 10.6753 9.59458 10.4201C9.33305 10.1649 8.98267 10.0211 8.61725 10.0192H7.05821V18.9587H7.92138C8.26889 18.991 8.61921 18.9452 8.94672 18.8246C9.27422 18.704 9.57063 18.5117 9.81424 18.2618C10.0579 18.0119 10.2425 17.7107 10.3547 17.3802C10.4669 17.0497 10.5038 16.6984 10.4626 16.3518C10.5373 15.7816 10.3983 15.2039 10.0723 14.7301C9.74635 14.2563 9.25654 13.92 8.69731 13.7859" fill="#004290"/>
<path d="M31.6666 8.43665H33.5849L29.8756 20.5877H26.9628L22.9888 8.43665H25.1359C25.9652 8.43665 26.1828 8.65115 26.6169 10.0275L28.918 17.6698L31.6666 8.43665Z" fill="#004290"/>
<path d="M39.6771 9.67436C39.3343 8.66032 39.1034 8.43555 38.2053 8.43555H35.8827L32.1621 20.5887H34.0578L34.8553 17.9643H39.2768L40.0784 20.5876H43.3628L39.6771 9.67436ZM35.388 16.1846L37.0466 10.6422L38.7298 16.1846H35.388Z" fill="#004290"/>
</g>
<defs>
<clipPath id="clip0_1_13569">
<rect width="39.0016" height="18.4744" fill="white" transform="translate(4.19775 5.35651)"/>
</clipPath>
</defs>
</svg>
