<svg width="18" height="17" viewBox="0 0 18 17" fill="none" xmlns="http://www.w3.org/2000/svg">
<g id="Icons / 16px">
<path id="Vector" d="M13.2578 14.6972L8.8787 11.4128L4.49957 14.6972C4.39791 14.7734 4.27703 14.8199 4.15047 14.8313C4.02391 14.8427 3.89668 14.8186 3.78302 14.7618C3.66937 14.705 3.57378 14.6176 3.50698 14.5095C3.44017 14.4014 3.40479 14.2769 3.40479 14.1498V3.20197C3.40479 2.83903 3.54896 2.49095 3.8056 2.23431C4.06224 1.97767 4.41032 1.8335 4.77326 1.8335H12.9841C13.3471 1.8335 13.6951 1.97767 13.9518 2.23431C14.2084 2.49095 14.3526 2.83903 14.3526 3.20197V14.1498C14.3526 14.2769 14.3172 14.4014 14.2504 14.5095C14.1836 14.6176 14.088 14.705 13.9744 14.7618C13.8607 14.8186 13.7335 14.8427 13.6069 14.8313C13.4804 14.8199 13.3595 14.7734 13.2578 14.6972Z" stroke="black" stroke-width="1.02636" stroke-linecap="round" stroke-linejoin="round"/>
<path id="Vector_2" d="M10.9316 6.62317H6.82617" stroke="black" stroke-width="1.02636" stroke-linecap="round" stroke-linejoin="round"/>
</g>
</svg>
