<svg width="18" height="18" viewBox="0 0 18 18" fill="none" xmlns="http://www.w3.org/2000/svg">
<path d="M3.26825 9.29198L6.05995 7.57454C6.2885 7.43395 6.47067 7.22927 6.58381 6.98595C6.69696 6.74264 6.73607 6.47143 6.69629 6.20607L6.31311 3.46911C6.26248 3.14639 6.09807 2.85242 5.8496 2.64034C5.60113 2.42826 5.28499 2.31207 4.95832 2.31275H3.4051C3.04216 2.31275 2.69408 2.45693 2.43744 2.71356C2.1808 2.9702 2.03662 3.31828 2.03662 3.68122V4.36546C2.03662 7.45048 3.26214 10.4091 5.44357 12.5906C7.62501 14.772 10.5837 15.9975 13.6687 15.9975H14.3529C14.7159 15.9975 15.0639 15.8533 15.3206 15.5967C15.5772 15.3401 15.7214 14.992 15.7214 14.629V13.0758C15.7247 12.7438 15.6071 12.4218 15.3905 12.1701C15.174 11.9183 14.8733 11.7538 14.5445 11.7073L11.8076 11.3242C11.5422 11.2844 11.271 11.3235 11.0277 11.4366C10.7843 11.5498 10.5797 11.732 10.4391 11.9605L8.74216 14.7659" stroke="black" stroke-width="1.02636" stroke-linecap="round" stroke-linejoin="round"/>
<path d="M10.2476 5.04968C10.9734 5.04968 11.6696 5.33804 12.1829 5.85132C12.6962 6.3646 12.9845 7.06075 12.9845 7.78664" stroke="black" stroke-width="1.02636" stroke-linecap="round" stroke-linejoin="round"/>
<path d="M10.2476 2.31274C11.6993 2.31274 13.0916 2.88946 14.1182 3.91602C15.1448 4.94257 15.7215 6.33488 15.7215 7.78665" stroke="black" stroke-width="1.02636" stroke-linecap="round" stroke-linejoin="round"/>
</svg>
