<svg width="18" height="17" viewBox="0 0 18 17" fill="none" xmlns="http://www.w3.org/2000/svg">
<path d="M2.03662 2.57529H3.56247C3.71695 2.57 3.86867 2.61717 3.99291 2.70911C4.11716 2.80105 4.20662 2.93235 4.24671 3.08163L6.21048 10.4577C6.28775 10.7448 6.45642 10.999 6.69099 11.1817C6.92555 11.3644 7.21324 11.4657 7.51053 11.4704H11.9786C12.2663 11.4707 12.5468 11.3802 12.7802 11.2119C13.0136 11.0436 13.188 10.8061 13.2787 10.533L14.7156 6.21544C14.7499 6.11399 14.7599 6.00591 14.7448 5.89988C14.7297 5.79385 14.69 5.69285 14.6287 5.60499C14.5675 5.51713 14.4865 5.44487 14.3922 5.39402C14.298 5.34318 14.1931 5.31517 14.0861 5.31225H4.842" stroke="black" stroke-width="1.02636" stroke-linecap="round" stroke-linejoin="round"/>
<path d="M7.50391 14.2074H7.51724" stroke="black" stroke-width="2.05272" stroke-linecap="round" stroke-linejoin="round"/>
<path d="M11.6089 14.2074H11.6222" stroke="black" stroke-width="2.05272" stroke-linecap="round" stroke-linejoin="round"/>
</svg>
