<svg width="18" height="17" viewBox="0 0 18 17" fill="none" xmlns="http://www.w3.org/2000/svg">
<g id="Icons / 16px">
<path id="Vector" d="M8.90098 15.3617C12.6799 15.3617 15.7434 12.2983 15.7434 8.51933C15.7434 4.74038 12.6799 1.67694 8.90098 1.67694C5.12204 1.67694 2.05859 4.74038 2.05859 8.51933C2.05859 12.2983 5.12204 15.3617 8.90098 15.3617Z" stroke="#1184E0" stroke-width="1.02636" stroke-linecap="round" stroke-linejoin="round"/>
<path id="Vector_2" d="M8.89453 11.9405H8.90786" stroke="#1184E0" stroke-width="1.02636" stroke-linecap="round" stroke-linejoin="round"/>
<path id="Vector_3" d="M6.84863 7.15086C6.84863 6.74487 6.96902 6.348 7.19458 6.01043C7.42013 5.67287 7.74072 5.40976 8.11581 5.2544C8.49089 5.09903 8.90363 5.05838 9.30181 5.13759C9.7 5.21679 10.0658 5.41229 10.3528 5.69937C10.6399 5.98645 10.8354 6.35221 10.9146 6.7504C10.9938 7.14859 10.9532 7.56132 10.7978 7.9364C10.6424 8.31149 10.3793 8.63208 10.0418 8.85763C9.70421 9.08319 9.30734 9.20358 8.90135 9.20358V9.88782" stroke="#1184E0" stroke-width="1.02636" stroke-linecap="round" stroke-linejoin="round"/>
</g>
</svg>
