<svg width="180" height="84" viewBox="0 0 180 84" fill="none" xmlns="http://www.w3.org/2000/svg">
<path d="M50.7812 53.5133V15.5018H63.2136C67.2216 15.5018 70.7122 16.3093 73.6854 17.9243C76.6565 19.5393 78.9586 21.7756 80.5897 24.6333C82.2208 27.4909 83.0354 30.7736 83.0354 34.4812C83.0354 38.1889 82.2208 41.4796 80.5897 44.3535C78.9586 47.2293 76.6585 49.4738 73.6854 51.0888C70.7122 52.7038 67.2216 53.5113 63.2136 53.5113H50.7812V53.5133ZM57.7604 47.3892H63.3652C65.9462 47.3892 68.1796 46.8529 70.0654 45.7823C71.9512 44.7117 73.4186 43.2141 74.4736 41.2935C75.5267 39.3728 76.0522 37.1021 76.0522 34.4812C76.0522 31.8624 75.5246 29.5917 74.4736 27.669C73.4206 25.7484 71.9512 24.2589 70.0654 23.2045C68.1796 22.15 65.9462 21.6239 63.3652 21.6239H57.7604V47.3892Z" fill="white"/>
<path d="M101.123 54.1245C98.2688 54.1245 95.7645 53.4789 93.6079 52.1857C91.4513 50.8945 89.7778 49.1419 88.5893 46.9298C87.4009 44.7198 86.8066 42.271 86.8066 39.5833C86.8066 36.7945 87.4191 34.3194 88.6419 32.1599C89.8647 30.0005 91.512 28.2904 93.5837 27.0315C95.6554 25.7727 98 25.1433 100.615 25.1433C102.788 25.1433 104.7 25.4995 106.347 26.2139C107.995 26.9283 109.395 27.916 110.552 29.1728C111.706 30.4316 112.589 31.8685 113.201 33.4835C113.812 35.0985 114.119 36.8431 114.119 38.7131C114.119 39.2231 114.093 39.725 114.042 40.2188C113.992 40.7126 113.897 41.1619 113.761 41.5707H92.3588V36.4181H109.988L106.778 38.8163C107.118 37.2519 107.059 35.8575 106.6 34.633C106.141 33.4086 105.393 32.4392 104.359 31.7248C103.322 31.0104 102.073 30.6542 100.613 30.6542C99.2208 30.6542 97.9798 31.0104 96.8944 31.7248C95.807 32.4392 94.9844 33.4592 94.4225 34.7869C93.8626 36.1125 93.6504 37.7295 93.7858 39.6339C93.6504 41.336 93.8788 42.8397 94.473 44.1491C95.0672 45.4585 95.9505 46.4704 97.1228 47.1848C98.2951 47.8993 99.6452 48.2554 101.173 48.2554C102.701 48.2554 104.001 47.9316 105.072 47.286C106.141 46.6404 106.982 45.7722 107.595 44.6834L112.995 47.3366C112.451 48.6622 111.603 49.8361 110.448 50.8561C109.292 51.8761 107.918 52.6755 106.321 53.2543C104.722 53.8351 102.99 54.1245 101.123 54.1245Z" fill="white"/>
<path d="M127.516 53.5133L116.611 25.7585H123.898L131.797 47.5957H129.096L137.046 25.7585H144.332L133.428 53.5133H127.516Z" fill="white"/>
<path d="M52.7213 77.862V60.8861H47.4683V57.1299H62.1987V60.8861H57.0285V77.862H52.7213Z" fill="white"/>
<path d="M68.7296 78.1959C67.6361 78.1959 66.6902 78.0199 65.8939 77.6677C65.0975 77.3156 64.4851 76.8096 64.0586 76.1519C63.6321 75.4941 63.4199 74.7089 63.4199 73.8002C63.4199 72.9461 63.614 72.1912 64.004 71.5315C64.3941 70.8737 64.9904 70.3212 65.7968 69.876C66.6033 69.4307 67.6078 69.115 68.8125 68.9308L73.4531 68.18V71.24L69.5643 71.9362C68.9701 72.0475 68.5174 72.2378 68.2021 72.507C67.8867 72.7761 67.7291 73.1607 67.7291 73.6626C67.7291 74.126 67.9049 74.4883 68.2566 74.7473C68.6083 75.0084 69.0449 75.1379 69.5623 75.1379C70.2475 75.1379 70.8498 74.9902 71.3693 74.6927C71.8887 74.3952 72.2909 73.9924 72.5779 73.4824C72.8649 72.9724 73.0084 72.4118 73.0084 71.7986V67.8461C73.0084 67.2713 72.7821 66.7896 72.3273 66.399C71.8725 66.0105 71.2581 65.8142 70.4799 65.8142C69.7382 65.8142 69.0853 66.0186 68.5214 66.4274C67.9555 66.8362 67.5431 67.3725 67.2844 68.0424L63.9495 66.4557C64.2466 65.6016 64.7175 64.869 65.3663 64.2578C66.0151 63.6446 66.7933 63.1731 67.7008 62.8391C68.6083 62.5052 69.6007 62.3392 70.674 62.3392C71.9534 62.3392 73.0832 62.572 74.0655 63.0354C75.0478 63.4989 75.8118 64.1445 76.3575 64.9702C76.9033 65.7959 77.1782 66.7552 77.1782 67.8501V77.8681H73.2874V75.4192L74.2333 75.2513C73.7886 75.9191 73.2975 76.4716 72.7598 76.9068C72.2222 77.3439 71.6199 77.6677 70.9529 77.8802C70.2859 78.0907 69.5441 78.1959 68.7296 78.1959Z" fill="white"/>
<path d="M80.2358 77.8621V56.796H84.4056V77.8621H80.2358Z" fill="white"/>
<path d="M94.7701 78.1959C93.1572 78.1959 91.7585 77.8397 90.5741 77.1253C89.3877 76.4109 88.47 75.4516 87.8233 74.2454C87.1745 73.0392 86.8511 71.7035 86.8511 70.2382C86.8511 68.7163 87.1886 67.3623 87.8657 66.1744C88.5428 64.9864 89.4544 64.0493 90.6024 63.3633C91.7504 62.6772 93.048 62.3331 94.4932 62.3331C95.6978 62.3331 96.763 62.5234 97.6887 62.9039C98.6144 63.2843 99.3986 63.8186 100.037 64.5047C100.676 65.1908 101.163 65.9841 101.497 66.8847C101.83 67.7853 101.998 68.7628 101.998 69.8213C101.998 70.1188 101.984 70.4102 101.955 70.6976C101.927 70.985 101.877 71.2319 101.802 71.4343H90.4346V68.3743H99.439L97.4664 69.8213C97.6523 69.0239 97.6422 68.3135 97.4381 67.6922C97.2339 67.0709 96.8782 66.5791 96.3689 66.2169C95.8595 65.8546 95.2329 65.6745 94.4932 65.6745C93.7696 65.6745 93.1491 65.8505 92.6317 66.2027C92.1122 66.5548 91.7242 67.075 91.4634 67.761C91.2047 68.4471 91.1016 69.283 91.1582 70.2665C91.0834 71.1206 91.1865 71.8714 91.4634 72.5211C91.7424 73.1707 92.1668 73.6767 92.7428 74.0369C93.3169 74.3992 94.0121 74.5793 94.8267 74.5793C95.5685 74.5793 96.2031 74.4316 96.7306 74.1341C97.2582 73.8386 97.6705 73.4298 97.9676 72.9097L101.303 74.4963C101.005 75.2391 100.539 75.8887 99.8999 76.4453C99.2612 77.0018 98.5052 77.4329 97.6341 77.7385C96.763 78.0441 95.809 78.1959 94.7701 78.1959Z" fill="white"/>
<path d="M104.444 77.862V62.6671H108.335V65.6724L108.112 65.0046C108.464 64.0959 109.034 63.424 109.822 62.9868C110.61 62.5517 111.532 62.3331 112.587 62.3331C113.735 62.3331 114.742 62.574 115.603 63.0577C116.464 63.5414 117.135 64.2133 117.618 65.0754C118.099 65.9376 118.342 66.9454 118.342 68.095V77.862H114.172V68.9855C114.172 68.3925 114.057 67.8825 113.824 67.4554C113.592 67.0284 113.268 66.6945 112.852 66.4536C112.436 66.2128 111.949 66.0914 111.393 66.0914C110.855 66.0914 110.374 66.2128 109.948 66.4536C109.521 66.6945 109.192 67.0284 108.961 67.4554C108.729 67.8825 108.614 68.3925 108.614 68.9855V77.862H104.444Z" fill="white"/>
<path d="M128.4 78.0299C126.565 78.0299 125.144 77.5341 124.134 76.5404C123.123 75.5487 122.62 74.1604 122.62 72.3794V66.2857H120.063V62.6671H120.202C120.981 62.6671 121.579 62.4728 121.995 62.0822C122.412 61.6936 122.62 61.1087 122.62 60.3295V59.2164H126.79V62.6671H130.347V66.2857H126.79V72.1022C126.79 72.6223 126.882 73.0534 127.068 73.3954C127.254 73.7394 127.541 73.9944 127.929 74.1604C128.318 74.3263 128.801 74.4113 129.375 74.4113C129.504 74.4113 129.654 74.4012 129.819 74.383C129.987 74.3648 130.163 74.3466 130.347 74.3263V77.8599C130.068 77.8964 129.753 77.9348 129.401 77.9713C129.049 78.0117 128.716 78.0299 128.4 78.0299Z" fill="white"/>
<path d="M135.154 83.9861C134.709 83.9861 134.279 83.9496 133.862 83.8748C133.446 83.7999 133.08 83.6805 132.765 83.5125V80.0902C133.024 80.1651 133.331 80.2298 133.682 80.2845C134.034 80.3391 134.36 80.3675 134.655 80.3675C135.469 80.3675 136.053 80.1772 136.405 79.7967C136.757 79.4163 137.044 78.9852 137.266 78.5035L138.295 76.1376L138.24 79.6166L131.57 62.6691H136.045L140.464 74.7189H138.796L143.214 62.6691H147.689L141.185 79.2827C140.777 80.3209 140.278 81.1932 139.685 81.8995C139.091 82.6038 138.42 83.128 137.67 83.472C136.918 83.814 136.08 83.9861 135.154 83.9861Z" fill="white"/>
<path d="M148.55 81.2033L157.722 58.245H162.225L153.053 81.2033H148.55Z" fill="white"/>
<path d="M165.948 77.7507V73.5492L175.676 69.542V70.9891L165.948 66.9535V62.7521L179.151 68.2063V72.3248L165.948 77.7507Z" fill="white"/>
<path d="M33.0605 58.1964C25.382 57.1096 25.1819 51.4671 25.287 45.0395C25.2385 32.3602 25.3638 19.7092 25.2526 7.0279C25.2304 4.95954 25.1496 0.314855 22.2027 1.06772C20.422 1.89749 20.0036 4.68026 20.0036 6.60289C20.0137 19.4947 19.9773 32.3946 20.0157 45.2864C20.036 49.6882 19.9248 54.9481 22.6958 58.5404C26.0773 63.689 34.0327 62.242 37.6587 66.6175C40.4338 70.1673 38.4106 75.7571 33.9721 76.7751C20.8667 79.3069 8.25849 67.591 6.61122 54.5191C6.14837 50.8742 6.33028 47.1969 6.30602 43.5358C6.1989 40.7712 6.66782 36.8794 4.47685 35.0053C2.2111 33.8254 1.31167 37.4886 1.16412 39.2129C-0.768136 60.1797 5.73201 78.9649 28.721 82.4034C34.6855 83.2453 41.4424 80.7499 43.5282 74.7007C46.459 67.0688 41.0806 59.3135 33.1272 58.2146L33.0605 58.1964Z" fill="white"/>
<path d="M29.6004 26.4C29.3174 29.9356 29.3558 33.5077 29.4649 37.0555C29.5094 38.2941 29.6367 39.563 30.1542 40.6923C30.6999 42.0847 32.1632 42.8841 33.093 41.3662C33.6852 40.3907 33.8974 39.1259 33.9702 37.9783C34.2127 33.8254 33.6306 29.4803 34.5644 25.3112C35.3365 21.5853 37.8347 18.2298 41.2889 17.2908C42.8715 16.9062 44.0943 16.3638 44.1529 14.4797C44.1489 12.2838 42.7886 11.9418 40.9857 12.4315C37.485 13.2269 34.3785 15.4369 32.3047 18.4949C30.7504 20.7373 29.8389 23.5606 29.6044 26.3413L29.6004 26.4Z" fill="white"/>
<path d="M10.3808 36.5232C10.9346 47.7757 7.94527 58.8825 17.4226 67.4028C21.0951 70.7037 26.6675 73.5997 31.6902 72.7234C33.0302 72.4988 34.8109 71.5557 34.0772 70.2078C33.0585 68.5118 29.9055 67.7367 27.949 67.0102C18.0067 63.8024 15.4641 55.9337 15.8239 46.4622C15.8178 39.053 15.8885 31.662 15.7652 24.2608C15.743 22.5507 15.6359 20.7555 14.8517 19.2235C13.6571 16.8192 11.6178 17.4304 10.9043 19.6991C10.397 21.0733 10.2858 22.5608 10.2535 24.022C10.1767 28.1506 10.1767 32.348 10.3788 36.4584L10.3808 36.5232Z" fill="white"/>
<path d="M32.1552 50.8499C34.0531 50.8924 35.3588 48.6439 34.423 46.9986C33.7843 45.7236 32.0562 45.2439 30.8354 45.9603C28.5454 47.2273 29.4711 50.8519 32.0926 50.8499H32.1552Z" fill="white"/>
</svg>
