<svg width="25" height="24" viewBox="0 0 25 24" fill="none" xmlns="http://www.w3.org/2000/svg">
<path d="M12.5 22C18.0228 22 22.5 17.5228 22.5 12C22.5 6.47715 18.0228 2 12.5 2C6.97715 2 2.5 6.47715 2.5 12C2.5 17.5228 6.97715 22 12.5 22Z" stroke="black" stroke-opacity="0.6" stroke-linecap="round" stroke-linejoin="round"/>
<path d="M12.5 22C14.7091 22 16.5 17.5228 16.5 12C16.5 6.47715 14.7091 2 12.5 2C10.2909 2 8.5 6.47715 8.5 12C8.5 17.5228 10.2909 22 12.5 22Z" stroke="black" stroke-opacity="0.6" stroke-linecap="round" stroke-linejoin="round"/>
<path d="M12.5 16C18.0228 16 22.5 14.2091 22.5 12C22.5 9.79086 18.0228 8 12.5 8C6.97715 8 2.5 9.79086 2.5 12C2.5 14.2091 6.97715 16 12.5 16Z" stroke="black" stroke-opacity="0.6" stroke-linecap="round" stroke-linejoin="round"/>
</svg>
