<svg width="25" height="24" viewBox="0 0 25 24" fill="none" xmlns="http://www.w3.org/2000/svg">
<path d="M12.5 22C18.0228 22 22.5 17.5228 22.5 12C22.5 6.47715 18.0228 2 12.5 2C6.97715 2 2.5 6.47715 2.5 12C2.5 17.5228 6.97715 22 12.5 22Z" stroke="black" stroke-opacity="0.6" stroke-linecap="round" stroke-linejoin="round"/>
<path d="M12.49 17H12.51" stroke="black" stroke-opacity="0.6" stroke-linecap="round" stroke-linejoin="round"/>
<path d="M9.5 10C9.5 9.40666 9.67595 8.82664 10.0056 8.33329C10.3352 7.83994 10.8038 7.45543 11.3519 7.22836C11.9001 7.0013 12.5033 6.94189 13.0853 7.05765C13.6672 7.1734 14.2018 7.45912 14.6213 7.87868C15.0409 8.29824 15.3266 8.83279 15.4424 9.41473C15.5581 9.99667 15.4987 10.5999 15.2716 11.1481C15.0446 11.6962 14.6601 12.1648 14.1667 12.4944C13.6734 12.8241 13.0933 13 12.5 13V14" stroke="black" stroke-opacity="0.6" stroke-linecap="round" stroke-linejoin="round"/>
</svg>
