<svg width="18" height="17" viewBox="0 0 18 17" fill="none" xmlns="http://www.w3.org/2000/svg">
<g clip-path="url(#clip0_2_3002)">
<path d="M8.87901 15.1541C12.658 15.1541 15.7214 12.0906 15.7214 8.31169C15.7214 4.53274 12.658 1.4693 8.87901 1.4693C5.10006 1.4693 2.03662 4.53274 2.03662 8.31169C2.03662 12.0906 5.10006 15.1541 8.87901 15.1541Z" stroke="black" stroke-width="1.02636" stroke-linecap="round" stroke-linejoin="round"/>
<path d="M8.87158 11.7329H8.88492" stroke="black" stroke-width="1.02636" stroke-linecap="round" stroke-linejoin="round"/>
<path d="M6.82617 6.94322C6.82617 6.53723 6.94656 6.14036 7.17212 5.80279C7.39767 5.46522 7.71826 5.20212 8.09335 5.04676C8.46843 4.89139 8.88117 4.85074 9.27935 4.92995C9.67754 5.00915 10.0433 5.20465 10.3304 5.49173C10.6175 5.77881 10.813 6.14457 10.8922 6.54276C10.9714 6.94094 10.9307 7.35368 10.7754 7.72876C10.62 8.10385 10.3569 8.42444 10.0193 8.64999C9.68175 8.87555 9.28488 8.99594 8.87889 8.99594V9.68018" stroke="black" stroke-width="1.02636" stroke-linecap="round" stroke-linejoin="round"/>
</g>
<defs>
<clipPath id="clip0_2_3002">
<rect width="16.4217" height="16.4217" fill="white" transform="translate(0.667969 0.10083)"/>
</clipPath>
</defs>
</svg>
