<svg width="69" height="29" viewBox="0 0 69 29" fill="none" xmlns="http://www.w3.org/2000/svg">
<rect x="0.962402" y="0.246399" width="67.7396" height="28.738" rx="4.10543" fill="white"/>
<g clip-path="url(#clip0_1_13556)">
<path d="M29.1953 8.39716H30.1833V11.7349C30.1918 11.9197 30.1617 12.1042 30.0948 12.2774C30.0279 12.4506 29.9257 12.6088 29.7943 12.7425C29.6385 12.8784 29.4562 12.9822 29.2582 13.0478C29.0602 13.1134 28.8506 13.1395 28.642 13.1245C28.2506 13.1455 27.8664 13.0161 27.5724 12.7641C27.4368 12.6221 27.333 12.4544 27.2673 12.2715C27.2016 12.0886 27.1755 11.8944 27.1907 11.7012V11.2328H28.0825V11.6532C28.0673 11.8344 28.1105 12.0157 28.206 12.172C28.3258 12.279 28.4822 12.339 28.6448 12.3403C28.8075 12.3417 28.9649 12.2843 29.0866 12.1792C29.1732 12.0122 29.2112 11.8253 29.1965 11.6388L29.1953 8.39716Z" fill="#2E281F"/>
<path d="M32.8239 12.9608V12.4804C32.7139 12.6619 32.5546 12.8104 32.3635 12.9098C32.1725 13.0091 31.957 13.0554 31.7407 13.0437C31.5772 13.0461 31.4149 13.0159 31.264 12.9548C31.123 12.897 30.9966 12.8101 30.8934 12.7002C30.7858 12.586 30.7019 12.4526 30.6464 12.3074C30.5861 12.1446 30.5563 11.9725 30.5587 11.7994V9.57385H31.4764V11.6661C31.4764 12.088 31.6724 12.299 32.0643 12.299C32.1646 12.3057 32.265 12.2896 32.3578 12.2521C32.4506 12.2146 32.5332 12.1566 32.5991 12.0828C32.7239 11.924 32.7877 11.7277 32.7794 11.5279V9.57385H33.6996V12.9608H32.8239Z" fill="#2E281F"/>
<path d="M34.9306 11.5021C34.9314 11.7261 35.0127 11.9427 35.1603 12.1146C35.2288 12.1895 35.3135 12.2487 35.4083 12.2879C35.5032 12.3272 35.6057 12.3455 35.7087 12.3416C35.8485 12.3442 35.9864 12.3098 36.1076 12.2419C36.1621 12.2123 36.21 12.1724 36.2484 12.1246C36.2867 12.0767 36.3149 12.0219 36.3312 11.9633H37.2797C37.1892 12.2859 36.9895 12.5694 36.7128 12.768C36.4317 12.9602 36.0943 13.0592 35.7507 13.0502C34.5914 13.0502 34.0113 12.4353 34.0105 11.2054C34.0071 10.9648 34.0451 10.7253 34.1229 10.4968C34.1932 10.2957 34.3054 10.1109 34.4526 9.95396C34.5991 9.80059 34.7794 9.68151 34.98 9.60566C35.2081 9.52245 35.4503 9.4817 35.6939 9.48555C35.9236 9.47125 36.1536 9.50917 36.3656 9.59631C36.5776 9.68345 36.7659 9.81741 36.9154 9.98759C37.2241 10.433 37.3698 10.9664 37.3291 11.5021H34.9306ZM36.3806 10.9376C36.3781 10.8258 36.3555 10.7152 36.3139 10.6109C36.2773 10.5233 36.2232 10.4437 36.1546 10.3767C36.0897 10.3159 36.0122 10.2692 35.9273 10.2398C35.8452 10.212 35.7587 10.1981 35.6717 10.199C35.5826 10.1983 35.4943 10.2155 35.4123 10.2494C35.3303 10.2832 35.2563 10.3331 35.1949 10.3959C35.052 10.5446 34.9703 10.739 34.9652 10.9424L36.3806 10.9376Z" fill="#2E281F"/>
<path d="M40.0799 12.5071C40.0106 12.6658 39.8835 12.7941 39.723 12.8674C39.537 12.9554 39.332 12.999 39.1252 12.9947C38.8745 13.0025 38.6255 12.9519 38.399 12.847C38.2119 12.7554 38.0499 12.622 37.9259 12.4579C37.8019 12.2906 37.7129 12.1013 37.6641 11.9006C37.6096 11.6893 37.5823 11.4722 37.5826 11.2544C37.5806 11.0091 37.6224 10.7652 37.7061 10.5338C37.7783 10.33 37.8888 10.141 38.0322 9.9765C38.1644 9.82479 38.3281 9.702 38.5126 9.61619C38.6985 9.53141 38.9014 9.48792 39.1067 9.48888C39.3017 9.47954 39.4957 9.522 39.6678 9.61172C39.8399 9.70143 39.9837 9.835 40.0836 9.99812V9.57655H41.0038V12.9959C41.009 13.2285 40.9631 13.4594 40.8692 13.6733C40.7845 13.861 40.6579 14.0279 40.4986 14.1621C40.3368 14.2964 40.1491 14.3981 39.9465 14.4612C39.5069 14.5965 39.035 14.5965 38.5954 14.4612C38.4005 14.4014 38.2193 14.3056 38.0618 14.1789C37.913 14.0579 37.7933 13.9066 37.711 13.7358C37.6249 13.5498 37.5827 13.3475 37.5875 13.1436H38.4434C38.4375 13.234 38.4533 13.3244 38.4896 13.4078C38.5258 13.4912 38.5815 13.5652 38.6522 13.6241C38.8108 13.7431 39.0079 13.8031 39.208 13.7934C39.4309 13.7985 39.6489 13.729 39.8255 13.5964C39.9084 13.5336 39.9747 13.4524 40.019 13.3597C40.0632 13.267 40.0841 13.1653 40.0799 13.0632V12.5071ZM39.3228 12.2873C39.4299 12.2893 39.536 12.2677 39.6333 12.2243C39.7306 12.1808 39.8166 12.1166 39.8848 12.0363C40.0431 11.8425 40.1227 11.5988 40.1083 11.3517C40.1083 10.6263 39.8465 10.266 39.3228 10.2708C38.7991 10.2756 38.5373 10.6195 38.5373 11.3024C38.5235 11.5606 38.6026 11.8154 38.7609 12.0231C38.8263 12.1075 38.9113 12.1758 39.0089 12.2223C39.1065 12.2689 39.2141 12.2924 39.3228 12.2909" fill="#2E281F"/>
<path d="M43.1207 13.0493C42.8621 13.0536 42.6051 13.0096 42.3636 12.9196C42.1506 12.8392 41.9585 12.7142 41.8008 12.5536C41.643 12.3929 41.5236 12.2005 41.4508 11.99C41.3676 11.7584 41.3258 11.5146 41.3273 11.2693C41.3241 11.0208 41.3659 10.7736 41.4508 10.5391C41.5257 10.3291 41.6469 10.1375 41.8058 9.97781C41.9647 9.81807 42.1576 9.69401 42.371 9.6143C42.6074 9.52649 42.8589 9.48329 43.112 9.48699C43.3652 9.48224 43.6169 9.52548 43.8531 9.6143C44.0644 9.69362 44.2553 9.81698 44.4123 9.97572C44.5694 10.1344 44.6888 10.3247 44.7621 10.5331C44.9267 11.0096 44.9267 11.5254 44.7621 12.002C44.6853 12.2106 44.565 12.4015 44.4089 12.5629C44.2516 12.7212 44.0607 12.8442 43.8494 12.9232C43.6159 13.0107 43.3672 13.054 43.117 13.0505M43.117 12.301C43.6777 12.301 43.9585 11.9571 43.9593 11.2693C43.9601 10.5815 43.6793 10.2396 43.117 10.2436C42.5562 10.2436 42.2755 10.5855 42.2746 11.2693C42.2738 11.9531 42.5546 12.297 43.117 12.301Z" fill="#2E281F"/>
<path d="M30.0653 19.2366V18.0608C30.074 17.976 30.0647 17.8903 30.038 17.8091C30.0112 17.7279 29.9675 17.6529 29.9097 17.5888C29.7396 17.4763 29.5338 17.4265 29.3292 17.4483H28.2819V19.2366H27.3271V14.6727H29.7109C29.9127 14.6703 30.1132 14.7041 30.3025 14.7724C30.4712 14.8346 30.6259 14.928 30.7582 15.0474C30.8859 15.1655 30.9862 15.3088 31.0522 15.4678C31.1212 15.635 31.156 15.8136 31.1547 15.9938C31.1591 16.2249 31.0966 16.4526 30.9744 16.6508C30.8554 16.8404 30.6711 16.983 30.4544 17.0531C30.6332 17.0981 30.7898 17.2032 30.8966 17.3498C30.996 17.5345 31.0413 17.7423 31.0275 17.9503V19.2438L30.0653 19.2366ZM28.2819 15.4593V16.6772H29.517C29.6173 16.6871 29.7187 16.677 29.8149 16.6475C29.9111 16.6179 30.0001 16.5696 30.0765 16.5055C30.1856 16.3865 30.2436 16.2312 30.2382 16.0719C30.2446 15.9106 30.1877 15.753 30.0789 15.6311C30.0084 15.568 29.9249 15.5201 29.8341 15.4906C29.7432 15.461 29.6469 15.4503 29.5515 15.4593H28.2819Z" fill="#2E281F"/>
<path d="M32.2761 17.7796C32.2769 18.0035 32.3582 18.2202 32.5058 18.3921C32.5743 18.467 32.659 18.5261 32.7538 18.5654C32.8487 18.6046 32.9512 18.623 33.0542 18.6191C33.1928 18.621 33.3293 18.5866 33.4494 18.5194C33.5039 18.4898 33.5518 18.4499 33.5902 18.402C33.6285 18.3542 33.6567 18.2994 33.673 18.2408H34.6215C34.531 18.5634 34.3313 18.8469 34.0546 19.0455C33.7735 19.2377 33.4361 19.3367 33.0925 19.3277C31.9323 19.3277 31.3523 18.7128 31.3523 17.4829C31.3489 17.2423 31.3869 17.0028 31.4646 16.7743C31.535 16.5732 31.6472 16.3884 31.7944 16.2314C31.9409 16.0781 32.1212 15.959 32.3218 15.8831C32.5499 15.7999 32.7921 15.7592 33.0357 15.763C33.2654 15.7487 33.4954 15.7866 33.7074 15.8738C33.9194 15.9609 34.1077 16.0949 34.2572 16.2651C34.5659 16.7105 34.7116 17.2439 34.6709 17.7796H32.2761ZM33.7261 17.2151C33.7236 17.1032 33.701 16.9927 33.6594 16.8884C33.6228 16.8008 33.5687 16.7212 33.5001 16.6542C33.4349 16.5934 33.3576 16.5463 33.2728 16.5161C33.1888 16.4869 33.1002 16.4718 33.011 16.4716C32.9219 16.471 32.8336 16.4881 32.7516 16.522C32.6696 16.5559 32.5956 16.6058 32.5342 16.6686C32.3918 16.8176 32.3097 17.0117 32.3033 17.2151H33.7261Z" fill="#2E281F"/>
<path d="M37.0871 16.8758C37.0831 16.8086 37.0647 16.743 37.033 16.6832C37.0013 16.6235 36.957 16.5708 36.903 16.5287C36.7609 16.4515 36.5985 16.4169 36.4362 16.429C36.2984 16.4227 36.1607 16.4448 36.0323 16.4939C35.9888 16.5118 35.952 16.5422 35.9268 16.5811C35.9016 16.6199 35.8893 16.6654 35.8915 16.7113C35.8901 16.7586 35.9026 16.8053 35.9275 16.8459C35.9525 16.8865 35.9888 16.9194 36.0323 16.9407C36.1671 17.0085 36.3097 17.0605 36.4572 17.0956C36.656 17.1508 36.8438 17.2001 37.0228 17.2433C37.1836 17.2817 37.342 17.329 37.4971 17.385C37.6639 17.4457 37.8107 17.549 37.922 17.6841C38.0288 17.8369 38.0809 18.0197 38.0702 18.2042C38.0781 18.3616 38.0472 18.5186 37.9802 18.6621C37.9132 18.8056 37.8119 18.9315 37.6849 19.0293C37.351 19.2483 36.9516 19.3527 36.5498 19.3259C36.1116 19.3541 35.6765 19.2377 35.3147 18.9956C35.1799 18.8976 35.07 18.7709 34.9934 18.6251C34.9167 18.4794 34.8754 18.3186 34.8726 18.1549H35.8211C35.8176 18.2274 35.8332 18.2996 35.8665 18.3645C35.8998 18.4295 35.9497 18.4851 36.0113 18.526C36.1702 18.6218 36.3557 18.6675 36.5424 18.6569C36.6902 18.6603 36.8371 18.6333 36.9734 18.5777C37.0304 18.5566 37.0788 18.5182 37.1116 18.4682C37.1443 18.4183 37.1595 18.3593 37.155 18.3002C37.1577 18.2464 37.1433 18.193 37.1137 18.1475C37.0841 18.1019 37.0407 18.0663 36.9895 18.0456C36.863 17.9902 36.7316 17.9464 36.5967 17.9147C36.3044 17.8466 36.0685 17.7846 35.889 17.7285C35.7292 17.6828 35.5766 17.6157 35.4358 17.5292C35.2903 17.4484 35.1713 17.3294 35.0924 17.1857C35.0284 17.0543 34.9959 16.9106 34.9973 16.7653C34.9963 16.6287 35.0227 16.4933 35.0751 16.3666C35.1293 16.24 35.2171 16.1297 35.3295 16.0471C35.4662 15.9486 35.6215 15.8772 35.7865 15.8369C36.0072 15.7824 36.2345 15.757 36.4621 15.7612C36.8547 15.731 37.2464 15.8304 37.5737 16.0435C37.6968 16.1466 37.7956 16.2744 37.8634 16.418C37.9311 16.5616 37.9663 16.7178 37.9665 16.8758H37.0871Z" fill="#2E281F"/>
<path d="M38.332 20.8406V15.8527H39.2164L39.2238 16.2658C39.3226 16.1038 39.4653 15.9712 39.6362 15.8824C39.8071 15.7937 39.9998 15.7523 40.1933 15.7626C40.4011 15.7602 40.6071 15.8012 40.7973 15.8827C40.9828 15.9657 41.1463 16.089 41.2752 16.243C41.4149 16.413 41.5204 16.6069 41.5865 16.8147C41.6655 17.0619 41.7039 17.3197 41.7001 17.5786C41.7027 17.8168 41.6702 18.0542 41.6038 18.2836C41.5472 18.4835 41.4525 18.6713 41.3246 18.8373C41.2059 18.99 41.0519 19.1134 40.8751 19.1976C40.6867 19.2852 40.4799 19.3288 40.2711 19.3249C40.0668 19.3286 39.8649 19.282 39.6842 19.1894C39.5034 19.0968 39.3497 18.9612 39.2374 18.7952V20.837L38.332 20.8406ZM39.9735 18.5586C40.5021 18.5586 40.7664 18.2099 40.7664 17.5125C40.778 17.2492 40.7008 16.9894 40.5465 16.7727C40.4836 16.6837 40.399 16.6111 40.3004 16.5615C40.2017 16.5118 40.092 16.4866 39.9809 16.488C39.8731 16.487 39.7666 16.5108 39.67 16.5573C39.5735 16.6038 39.4896 16.6719 39.4251 16.7559C39.2687 16.9571 39.1896 17.2053 39.2015 17.4573C39.2015 18.1915 39.4588 18.5586 39.9735 18.5586Z" fill="#2E281F"/>
<path d="M43.7423 19.3277C43.4837 19.332 43.2266 19.288 42.9851 19.198C42.7722 19.1176 42.5801 18.9927 42.4223 18.832C42.2646 18.6714 42.1451 18.479 42.0724 18.2684C41.9892 18.0368 41.9474 17.7931 41.9489 17.5478C41.9457 17.2992 41.9875 17.052 42.0724 16.8175C42.1473 16.6075 42.2684 16.416 42.4274 16.2563C42.5863 16.0965 42.7792 15.9725 42.9926 15.8927C43.229 15.8049 43.4805 15.7617 43.7336 15.7654C43.9868 15.7607 44.2385 15.8039 44.4747 15.8927C44.686 15.9721 44.8769 16.0954 45.0339 16.2542C45.1909 16.4129 45.3103 16.6031 45.3837 16.8115C45.5483 17.2881 45.5483 17.8039 45.3837 18.2804C45.3068 18.489 45.1866 18.6799 45.0305 18.8413C44.8732 18.9997 44.6823 19.1226 44.471 19.2016C44.2374 19.2892 43.9888 19.3324 43.7385 19.3289M43.7385 18.5795C44.2993 18.5795 44.5801 18.2356 44.5809 17.5478C44.5817 16.86 44.3009 16.5181 43.7385 16.5221C43.1778 16.5221 42.897 16.864 42.8962 17.5478C42.8954 18.2316 43.1762 18.5755 43.7385 18.5795Z" fill="#2E281F"/>
<path d="M48.0828 19.2367V17.1865C48.1048 17 48.057 16.812 47.9482 16.6569C47.885 16.6051 47.8118 16.5663 47.7329 16.5425C47.654 16.5188 47.571 16.5107 47.4888 16.5188C47.012 16.5188 46.7737 16.7778 46.7737 17.2958V19.2367H45.8535V15.851H46.7317V16.347C46.8296 16.1643 46.9791 16.0126 47.1627 15.9098C47.5235 15.7435 47.9358 15.7165 48.3163 15.8342C48.4527 15.879 48.5772 15.9529 48.6806 16.0504C48.7855 16.1531 48.8675 16.2757 48.9215 16.4107C48.983 16.5636 49.0132 16.7268 49.0104 16.8911V19.2379L48.0828 19.2367Z" fill="#2E281F"/>
<path d="M51.5002 16.8759C51.4962 16.8088 51.4778 16.7432 51.446 16.6834C51.4143 16.6236 51.3701 16.5709 51.3161 16.5288C51.174 16.4517 51.0116 16.417 50.8493 16.4291C50.7114 16.4228 50.5738 16.4449 50.4454 16.494C50.4019 16.5119 50.365 16.5423 50.3399 16.5812C50.3147 16.62 50.3024 16.6655 50.3046 16.7114C50.3032 16.7587 50.3157 16.8054 50.3406 16.846C50.3656 16.8867 50.4019 16.9195 50.4454 16.9408C50.5802 17.0086 50.7228 17.0607 50.8703 17.0957C51.0691 17.151 51.2568 17.2002 51.4359 17.2434C51.5967 17.2818 51.755 17.3291 51.9102 17.3852C52.0769 17.4458 52.2237 17.5491 52.3351 17.6842C52.4419 17.837 52.494 18.0198 52.4833 18.2043C52.4912 18.3617 52.4603 18.5187 52.3933 18.6622C52.3263 18.8057 52.225 18.9316 52.0979 19.0294C51.7641 19.2484 51.3647 19.3528 50.9629 19.3261C50.5247 19.3542 50.0896 19.2379 49.7278 18.9958C49.593 18.8977 49.4831 18.771 49.4065 18.6253C49.3298 18.4795 49.2885 18.3187 49.2856 18.155H50.2342C50.2307 18.2275 50.2463 18.2997 50.2796 18.3647C50.3129 18.4296 50.3628 18.4852 50.4244 18.5262C50.5833 18.6219 50.7688 18.6677 50.9555 18.6571C51.1033 18.6604 51.2502 18.6334 51.3865 18.5778C51.4429 18.5574 51.4911 18.5202 51.5242 18.4714C51.5573 18.4225 51.5735 18.3648 51.5706 18.3064C51.5733 18.2525 51.5589 18.1992 51.5292 18.1536C51.4996 18.108 51.4562 18.0725 51.4051 18.0517C51.2786 17.9964 51.1471 17.9525 51.0123 17.9208C50.72 17.8528 50.4841 17.7907 50.3046 17.7347C50.1447 17.689 49.9922 17.6219 49.8513 17.5353C49.7044 17.4529 49.5845 17.3318 49.5055 17.1858C49.4415 17.0545 49.409 16.9107 49.4104 16.7654C49.4093 16.6288 49.4358 16.4934 49.4882 16.3667C49.5423 16.2401 49.6302 16.1298 49.7426 16.0472C49.8793 15.9487 50.0346 15.8773 50.1996 15.837C50.4203 15.7825 50.6475 15.7571 50.8752 15.7614C51.2678 15.7311 51.6595 15.8306 51.9868 16.0436C52.1099 16.1468 52.2087 16.2745 52.2765 16.4181C52.3442 16.5618 52.3794 16.7179 52.3795 16.8759H51.5002Z" fill="#2E281F"/>
<path d="M54.9259 19.2361C54.8951 19.1377 54.876 19.0361 54.8691 18.9334C54.7495 19.0595 54.6016 19.1569 54.4368 19.2181C54.2401 19.2925 54.0303 19.3288 53.8193 19.325C53.5025 19.3524 53.1871 19.2599 52.9387 19.0668C52.8458 18.9807 52.7729 18.8764 52.7245 18.7609C52.6762 18.6454 52.6536 18.5212 52.6583 18.3966C52.6497 18.1959 52.6922 17.9962 52.7818 17.8153C52.8581 17.674 52.9731 17.5559 53.1141 17.4742C53.2711 17.3861 53.4423 17.3243 53.6204 17.2916C53.8156 17.2532 54.0288 17.2175 54.2602 17.1847C54.423 17.1732 54.5818 17.1299 54.7271 17.0574C54.7679 17.0257 54.8002 16.9847 54.8211 16.9381C54.8421 16.8915 54.851 16.8407 54.8473 16.79C54.8435 16.7393 54.8271 16.6902 54.7995 16.647C54.7719 16.6039 54.7339 16.5679 54.6888 16.5422C54.5573 16.4738 54.4092 16.4415 54.2602 16.4485C54.1786 16.4409 54.0963 16.4493 54.0181 16.473C53.9398 16.4967 53.8672 16.5353 53.8045 16.5866C53.7085 16.6856 53.6475 16.8119 53.6303 16.9469H52.7744C52.7776 16.7832 52.8076 16.621 52.8633 16.4665C52.9159 16.3207 53.0061 16.1905 53.1252 16.0882C53.262 15.9754 53.4226 15.8934 53.5957 15.848C53.8261 15.7859 54.0645 15.7572 54.3034 15.7627C54.539 15.7573 54.7739 15.7873 55 15.8516C55.1724 15.9003 55.33 15.9889 55.4595 16.1098C55.5767 16.2271 55.6616 16.3713 55.7065 16.5289C55.7608 16.7136 55.787 16.905 55.7843 17.097V19.2373L54.9259 19.2361ZM54.8617 17.5775C54.8032 17.6294 54.733 17.6673 54.6567 17.688C54.5286 17.724 54.3988 17.7536 54.2676 17.7768C54.0735 17.801 53.8874 17.867 53.723 17.9702C53.6726 18.0109 53.6328 18.0625 53.6069 18.121C53.5809 18.1794 53.5695 18.243 53.5735 18.3065C53.5735 18.5587 53.7229 18.6848 54.0194 18.6848C54.132 18.6858 54.2439 18.6662 54.3491 18.6272C54.4456 18.5902 54.5343 18.5365 54.611 18.4686C54.6841 18.4017 54.7439 18.3223 54.7876 18.2344C54.832 18.1454 54.8548 18.0476 54.8543 17.9486L54.8617 17.5775Z" fill="#2E281F"/>
<path d="M56.1812 19.2364V14.6124H57.0865V16.2939C57.199 16.1281 57.3527 15.9926 57.5334 15.9C57.7142 15.8074 57.916 15.7607 58.1202 15.7642C58.3294 15.7605 58.5366 15.804 58.7254 15.8915C58.9018 15.976 59.0553 16.0994 59.1738 16.2519C59.3021 16.4182 59.3972 16.6064 59.4541 16.8067C59.5196 17.0362 59.5516 17.2736 59.5492 17.5117C59.5536 17.7706 59.5152 18.0285 59.4356 18.2756C59.3696 18.4831 59.264 18.6766 59.1244 18.8461C58.9962 19.0004 58.833 19.1237 58.6476 19.2064C58.4572 19.2887 58.2507 19.3296 58.0424 19.3265C57.8491 19.3368 57.6565 19.2955 57.4856 19.207C57.3147 19.1185 57.172 18.9862 57.0729 18.8245L57.0655 19.2376L56.1812 19.2364ZM57.83 18.5963C57.9412 18.5977 58.0511 18.5723 58.1498 18.5225C58.2485 18.4726 58.3329 18.3998 58.3957 18.3104C58.5505 18.094 58.6277 17.834 58.6155 17.5706C58.6155 16.874 58.3512 16.5257 57.8226 16.5257C57.3088 16.5257 57.0519 16.8924 57.0519 17.6258C57.0393 17.8781 57.118 18.1267 57.2742 18.3285C57.3387 18.4124 57.4227 18.4803 57.5192 18.5269C57.6158 18.5734 57.7222 18.5972 57.83 18.5963Z" fill="#2E281F"/>
<path d="M60.8142 14.6124H59.894V19.2364H60.8142V14.6124Z" fill="#2E281F"/>
<path d="M62.0449 17.7796C62.0457 18.0035 62.1269 18.2202 62.2746 18.3921C62.3431 18.467 62.4278 18.5261 62.5226 18.5654C62.6174 18.6046 62.72 18.623 62.823 18.6191C62.9628 18.6217 63.1007 18.5872 63.2219 18.5194C63.2764 18.4898 63.3242 18.4499 63.3626 18.402C63.401 18.3542 63.4292 18.2994 63.4454 18.2408H64.394C64.3035 18.5634 64.1037 18.8469 63.8271 19.0455C63.5459 19.2377 63.2085 19.3367 62.865 19.3277C61.7048 19.3277 61.1247 18.7128 61.1247 17.4829C61.1214 17.2423 61.1593 17.0028 61.2371 16.7743C61.3074 16.5732 61.4197 16.3884 61.5669 16.2314C61.7133 16.0781 61.8937 15.959 62.0943 15.8831C62.3224 15.7999 62.5645 15.7592 62.8081 15.763C63.0379 15.7487 63.2678 15.7866 63.4799 15.8738C63.6919 15.9609 63.8801 16.0949 64.0296 16.2651C64.3383 16.7105 64.484 17.2439 64.4434 17.7796H62.0449ZM63.4948 17.2151C63.4923 17.1032 63.4698 16.9927 63.4282 16.8884C63.3916 16.8008 63.3374 16.7212 63.2688 16.6542C63.2037 16.5934 63.1263 16.5463 63.0416 16.5161C62.9575 16.4869 62.869 16.4718 62.7797 16.4716C62.6906 16.471 62.6023 16.4881 62.5203 16.522C62.4383 16.5559 62.3644 16.6058 62.303 16.6686C62.1605 16.8176 62.0785 17.0117 62.072 17.2151H63.4948Z" fill="#2E281F"/>
<path d="M24.066 14.6154C24.066 16.4423 23.5089 18.2283 22.4651 19.7473C21.4213 21.2664 19.9378 22.4503 18.2021 23.1495C16.4663 23.8486 14.5564 24.0315 12.7138 23.6751C10.8711 23.3187 9.17855 22.4389 7.85009 21.1471C6.52162 19.8553 5.61692 18.2093 5.2504 16.4175C4.88387 14.6256 5.07199 12.7683 5.79095 11.0805C6.50991 9.39258 7.72743 7.94993 9.28954 6.93493C10.8517 5.91993 12.6882 5.37817 14.5669 5.37817C17.0862 5.37817 19.5024 6.35138 21.2838 8.08369C23.0652 9.81601 24.066 12.1655 24.066 14.6154Z" fill="#FF0015"/>
<path d="M8.89908 17.1135V15.0105H6.74756V13.9643H8.89908V11.8721H9.97484V13.9643H12.1375V15.0105H9.97484V17.1135H8.89908Z" fill="white"/>
<path d="M14.0733 18.3043V13.2011H12.5171V12.1994C12.7939 12.2043 13.0703 12.1781 13.3409 12.1214C13.5378 12.0805 13.7232 11.9985 13.8843 11.8811C14.0237 11.7755 14.1337 11.6376 14.2042 11.48C14.2825 11.3013 14.3309 11.1115 14.3475 10.9179H15.5603V18.3079L14.0733 18.3043Z" fill="white"/>
<path d="M20.1616 14.2655C20.3322 14.3421 20.4887 14.4456 20.6247 14.5718C20.7656 14.7011 20.887 14.8491 20.9854 15.0114C21.0861 15.1786 21.163 15.3584 21.2138 15.5458C21.2676 15.7417 21.2946 15.9436 21.2941 16.1463C21.2976 16.4756 21.2433 16.8029 21.1336 17.1144C21.0326 17.4028 20.8663 17.6655 20.6469 17.8831C20.4159 18.1068 20.1366 18.2778 19.8293 18.3839C19.4578 18.509 19.0664 18.5691 18.6733 18.5616C18.2817 18.5687 17.8921 18.5064 17.5234 18.3779C17.2138 18.2691 16.9311 18.0985 16.6934 17.877C16.4747 17.6665 16.306 17.4119 16.1994 17.1312C16.0872 16.8377 16.0311 16.5267 16.0339 16.2136C16.0237 15.8193 16.1268 15.43 16.3315 15.0894C16.5448 14.7566 16.8553 14.4932 17.2233 14.3328C16.9218 14.1881 16.6857 13.9406 16.56 13.6374C16.4331 13.3429 16.3668 13.0271 16.3649 12.7078C16.3628 12.43 16.4213 12.1549 16.5366 11.9007C16.649 11.6553 16.8131 11.4356 17.0183 11.2557C17.2318 11.069 17.4799 10.9235 17.7494 10.8269C18.0462 10.7203 18.3606 10.6674 18.677 10.6708C19.0133 10.6649 19.348 10.7178 19.665 10.8269C19.9304 10.9193 20.1737 11.0632 20.3802 11.2497C20.5694 11.4259 20.7158 11.6409 20.8087 11.879C20.9065 12.1295 20.9551 12.3955 20.952 12.6633C20.9533 12.9829 20.893 13.2998 20.7742 13.5977C20.6619 13.8879 20.4414 14.1263 20.1566 14.2655M18.6572 17.3702C18.8136 17.3846 18.9712 17.363 19.1173 17.307C19.2635 17.2511 19.394 17.1625 19.4983 17.0483C19.6847 16.7838 19.7751 16.4664 19.7552 16.1463C19.7688 15.847 19.6759 15.5522 19.4921 15.3116C19.3885 15.1983 19.259 15.11 19.114 15.0539C18.9691 14.9978 18.8126 14.9754 18.6572 14.9885C18.5044 14.9748 18.3504 14.9959 18.2074 15.0501C18.0644 15.1043 17.9364 15.1901 17.8334 15.3008C17.6562 15.5461 17.5692 15.8423 17.5864 16.1415C17.5671 16.4602 17.6537 16.7764 17.8334 17.0435C17.9349 17.1581 18.0634 17.2472 18.2079 17.3033C18.3524 17.3593 18.5086 17.3806 18.6634 17.3654M18.6634 13.8379C18.794 13.8477 18.9252 13.8276 19.0463 13.7792C19.1675 13.7308 19.2754 13.6555 19.3612 13.5593C19.5204 13.355 19.6012 13.1031 19.5897 12.8471C19.6038 12.5855 19.5229 12.3275 19.3612 12.118C19.1734 11.9432 18.9234 11.8456 18.6634 11.8456C18.4034 11.8456 18.1534 11.9432 17.9656 12.118C17.8034 12.3273 17.7221 12.5854 17.7358 12.8471C17.7247 13.1033 17.806 13.3552 17.9656 13.5593C18.0513 13.6557 18.1591 13.7311 18.2803 13.7795C18.4015 13.8279 18.5328 13.8479 18.6634 13.8379Z" fill="white"/>
</g>
<defs>
<clipPath id="clip0_1_13556">
<rect width="59.5288" height="18.4744" fill="white" transform="translate(5.06787 5.37817)"/>
</clipPath>
</defs>
</svg>
