<svg width="75" height="29" viewBox="0 0 75 29" fill="none" xmlns="http://www.w3.org/2000/svg">
<rect x="0.878418" y="0.224731" width="73.8978" height="28.738" rx="4.10543" fill="white"/>
<g clip-path="url(#clip0_1_13568)">
<path d="M20.3782 7.5478C20.3208 8.57416 19.4781 9.26079 19.0347 10.125C18.8469 10.6382 18.3974 10.9461 18.0771 11.41C17.7825 11.7087 17.5108 12.0291 17.2643 12.3686C17.3074 12.6077 17.5619 12.6765 17.7076 12.8479C18.034 13.0439 18.07 13.4145 18.3543 13.6382C18.5205 13.6382 18.5205 13.8856 18.7022 13.8568C19.0692 14.2646 19.4086 14.6962 19.7183 15.149C19.764 15.317 19.8574 15.4681 19.9872 15.5842C20.2407 15.9537 20.4511 16.3468 20.7118 16.7245C20.7487 17.1453 21.1049 17.4265 21.2137 17.8196C21.3728 18.0249 21.4374 18.2773 21.5842 18.4878C21.808 18.9814 21.9609 19.4967 22.2288 19.9688C22.2447 20.0202 22.2465 20.0749 22.234 20.1273C22.2216 20.1796 22.1953 20.2277 22.1579 20.2664C22.0553 20.3455 21.9752 20.2007 21.8603 20.2233C21.2623 19.9911 20.6883 19.7013 20.1463 19.3581C19.5797 18.9014 18.9557 18.575 18.4015 18.0957C18.1839 18.0372 18.0936 17.7878 17.8883 17.6851C17.3525 17.3526 16.9235 16.8733 16.3785 16.5613C16.1312 16.3735 15.8848 16.1918 15.6375 15.9958C15.4497 15.9721 15.384 15.7556 15.2023 15.6878C14.7918 15.4405 14.4264 15.0997 14.0117 14.8668C13.9758 14.9242 14.0117 15.0115 13.9758 15.072C13.6997 15.342 13.7705 15.7556 13.5776 16.0532C13.5694 16.4802 13.2697 16.7943 13.1486 17.1709C12.8078 17.7806 12.5102 18.4026 12.154 19.0071C11.7852 19.6992 11.3155 20.3326 10.7602 20.8864C10.6202 21.0455 10.453 21.1786 10.2666 21.2794C10.1865 21.2569 10.0705 21.2712 10.049 21.1707C9.96993 21.0188 10.0705 20.7858 9.96172 20.6472C10.0145 20.4239 10.0414 20.1952 10.0418 19.9657L10.0059 19.8631C10.013 19.5439 10.1721 19.275 10.1085 18.9486C10.1908 18.7396 10.24 18.519 10.2542 18.2948C10.3632 18.0146 10.4366 17.7219 10.4729 17.4234C10.5668 17.2378 10.6043 17.0287 10.5806 16.822C10.6535 16.6331 10.6689 16.4114 10.8629 16.2698C10.8926 16.1456 10.8629 16.0235 10.8844 15.8921C11.0825 15.2968 11.3216 14.7241 11.4735 14.1134C11.4735 14.0703 11.4304 14.0549 11.4007 14.0488C10.9915 14.0775 10.5804 14.0631 10.1742 14.0056C9.52256 13.992 8.87371 13.9164 8.23642 13.7798C7.96475 13.7719 7.69673 13.7152 7.44509 13.6126C7.28673 13.6415 7.12347 13.6266 6.97297 13.5694C6.67532 13.4247 6.31199 13.4463 6.01435 13.2862C5.78958 13.3149 5.63049 13.1692 5.42727 13.1486C5.23124 13.162 5.11937 12.9967 4.98389 12.8869V12.8202C5.37743 12.4031 5.88927 12.1166 6.45055 11.9991C6.96373 11.8411 7.53849 11.8267 8.0763 11.7169C8.41705 11.6594 8.78757 11.7528 9.12935 11.6953C9.74516 11.7097 10.3415 11.8123 10.9501 11.8267C11.1451 11.8826 11.3446 11.9211 11.5464 11.9416L11.5382 11.8554L10.9655 11.0713C10.6771 10.6002 10.4249 10.1078 10.2111 9.59846C10.0798 9.43835 10.2039 9.19818 10.1023 9.0237C10.0952 8.94467 10.1598 8.88514 10.1968 8.81843C10.3199 8.76711 10.4575 8.85333 10.5806 8.77327C10.9501 8.86154 11.2929 8.99189 11.6624 9.06373C12.058 9.20047 12.4338 9.3889 12.7801 9.62412C13.2608 9.8695 13.6935 10.199 14.0579 10.5971C14.1057 10.6342 14.1617 10.6593 14.2211 10.6703C14.2805 10.6814 14.3418 10.6781 14.3997 10.6607C14.5023 10.6464 14.5229 10.5242 14.6173 10.4873C15.0668 10.204 15.5759 10.0449 16.0172 9.73189C16.1999 9.55022 16.4894 9.52662 16.5982 9.28132C16.7288 9.20588 16.8662 9.14299 17.0087 9.09349C17.2579 8.90193 17.5195 8.72707 17.7918 8.57005C17.9305 8.54558 18.0606 8.48585 18.1695 8.3966C18.6201 8.15027 19.0932 7.94603 19.5192 7.66275C19.6146 7.40924 19.8979 7.46672 20.1001 7.40924C20.2027 7.43182 20.3403 7.41745 20.3834 7.54677" fill="#0097D9"/>
<path d="M9.61498 14.5644C9.76072 14.667 9.75353 14.8723 9.88388 14.9749L9.94854 15.4235L9.62216 15.8987C9.4085 16.032 9.16037 16.0997 8.90858 16.0933C8.65679 16.087 8.41241 16.0068 8.20579 15.8627C8.10465 15.7669 8.0311 15.6457 7.99282 15.5117C7.95455 15.3778 7.95295 15.236 7.9882 15.1012L8.14112 14.6906C8.22837 14.6321 8.3464 14.6178 8.40182 14.5162C8.62328 14.4246 8.85925 14.3732 9.09872 14.3643C9.2732 14.4238 9.53389 14.3273 9.6119 14.5695" fill="#F8BD0D"/>
<path d="M8.54023 17.2163C8.67161 17.2163 8.76603 17.3107 8.88919 17.2881C9.06265 17.3538 9.04212 17.5642 9.22276 17.6145C9.35422 17.8929 9.45405 18.1852 9.5204 18.4859C9.47011 18.6604 9.61483 18.762 9.56454 18.9221L9.61483 18.9498C9.62528 19.1246 9.59797 19.2996 9.53477 19.463C9.53153 19.7554 9.44346 20.0407 9.28126 20.2841C9.18581 20.3415 9.1427 20.5088 9.01236 20.4801C8.78143 20.553 8.75885 20.9009 8.47557 20.8578C8.29391 20.9943 8.04655 20.9153 7.82897 20.9225C7.7058 20.8578 7.53132 20.8722 7.44408 20.7634C7.22345 20.6581 7.02026 20.5197 6.84161 20.3528C6.76976 20.1927 6.60247 20.1209 6.58091 19.9423C6.64557 19.7226 6.50907 19.5266 6.56654 19.3101L6.52344 18.9457L6.65994 18.3217C6.89293 18.1985 6.82827 17.9111 7.06022 17.829C7.20597 17.4944 7.55287 17.4185 7.82281 17.2553C7.92544 17.2327 8.04655 17.2922 8.13071 17.1978C8.27543 17.1763 8.41296 17.3282 8.54126 17.2122" fill="#E86421"/>
<path d="M68.9301 19.8718H28.6743V20.0781H68.9301V19.8718Z" fill="#1E120D"/>
<path fill-rule="evenodd" clip-rule="evenodd" d="M25.2772 8.58997C24.9641 8.58997 24.7086 8.97485 24.7086 9.44287C24.6934 9.55631 24.7082 9.67176 24.7516 9.77767C24.795 9.88357 24.8655 9.97623 24.9559 10.0464C25.154 10.1305 25.4096 10.3214 25.4096 10.8993C25.4088 11.1535 25.3446 11.4036 25.2227 11.6267C25.1008 11.8498 24.9252 12.039 24.7116 12.1771C24.6213 12.2725 24.6542 12.5753 24.7938 12.603C25.2233 12.3931 25.5784 12.0567 25.8114 11.6392C26.0444 11.2217 26.1441 10.7429 26.0972 10.267C26.0972 9.07133 25.62 8.58997 25.2772 8.58997ZM27.0825 8.58997C26.7685 8.58997 26.5129 8.97485 26.5129 9.44287C26.498 9.55699 26.5134 9.67303 26.5575 9.77933C26.6017 9.88562 26.673 9.97842 26.7644 10.0484C26.9625 10.1326 27.218 10.3235 27.218 10.9013C27.2169 11.1559 27.1522 11.4061 27.0298 11.6293C26.9074 11.8524 26.7311 12.0414 26.517 12.1791C26.4267 12.2746 26.4595 12.5774 26.6001 12.6051C27.0294 12.3948 27.3842 12.0584 27.617 11.6409C27.8498 11.2235 27.9494 10.7448 27.9026 10.2691C27.9026 9.07338 27.4243 8.59202 27.0866 8.59202" fill="#1E120D"/>
<path fill-rule="evenodd" clip-rule="evenodd" d="M28.7466 9.66252C29.1869 9.66252 29.4199 9.99301 29.4476 10.5565C29.4886 11.0779 29.5574 12.1083 29.5574 12.9058V17.3582C29.5654 17.4354 29.5572 17.5134 29.5333 17.5873C29.5095 17.6612 29.4704 17.7293 29.4188 17.7873C29.3671 17.8452 29.3039 17.8917 29.2332 17.9239C29.1625 17.956 29.0859 17.9731 29.0083 17.974V18.248C29.4065 18.248 29.7914 18.208 30.1896 18.208C30.5879 18.208 31.0107 18.248 31.4264 18.248V17.974C31.0005 17.9052 30.8906 17.6589 30.8906 17.1909V11.8538C30.8906 10.5893 30.9307 9.24274 30.945 8.50171H30.671C30.1064 8.93181 29.4462 9.21913 28.7466 9.33922V9.66252Z" fill="#1E120D"/>
<path fill-rule="evenodd" clip-rule="evenodd" d="M35.1108 17.344C34.8325 17.5109 34.5112 17.5923 34.187 17.578C34.0434 17.5754 33.9016 17.5446 33.7699 17.4871C33.6381 17.4297 33.519 17.3468 33.4194 17.2433C33.3198 17.1397 33.2415 17.0176 33.1892 16.8837C33.1369 16.7499 33.1115 16.607 33.1145 16.4634C33.1081 16.2957 33.1379 16.1286 33.2018 15.9734C33.2656 15.8182 33.3621 15.6785 33.4846 15.5639C33.6072 15.4492 33.7529 15.3623 33.912 15.3088C34.0711 15.2554 34.2398 15.2368 34.4067 15.2543C34.6278 15.2588 34.8483 15.2818 35.0656 15.3231L35.1108 17.344ZM32.7152 13.9909C32.8483 13.7516 33.0473 13.5557 33.2886 13.4265C33.5299 13.2973 33.8033 13.2402 34.0762 13.2621C35.0112 13.2621 35.0646 14.0832 35.0646 14.8294C34.8726 14.8294 34.6397 14.7873 34.42 14.7873C33.1689 14.7873 31.7812 15.3508 31.7812 16.8072C31.7949 17.0352 31.8542 17.2581 31.9557 17.4628C32.0572 17.6674 32.1988 17.8495 32.3721 17.9983C32.5454 18.1471 32.7469 18.2595 32.9645 18.3289C33.1822 18.3983 33.4115 18.4232 33.639 18.4021C34.2038 18.3524 34.7359 18.1154 35.1508 17.7289C35.266 17.9217 35.4264 18.0837 35.618 18.201C35.8096 18.3183 36.0269 18.3873 36.251 18.4021L37.2774 17.5811L37.0721 17.3758C36.9784 17.4046 36.8816 17.4225 36.7837 17.4292C36.482 17.4292 36.3732 17.2516 36.3732 16.6204V16.1349C36.3875 15.3508 36.4286 14.6364 36.4286 14.1428C36.4286 12.7674 35.3848 12.439 34.1614 12.439C33.5616 12.4347 32.9645 12.518 32.3889 12.6864V13.9909H32.7152Z" fill="#1E120D"/>
<path fill-rule="evenodd" clip-rule="evenodd" d="M47.5544 9.05823C46.4433 8.688 45.279 8.50251 44.1078 8.50913C43.4337 8.4631 42.7574 8.55622 42.1208 8.78272C41.4842 9.00922 40.901 9.36424 40.4075 9.82572C39.9139 10.2872 39.5206 10.8453 39.2519 11.4652C38.9833 12.0852 38.845 12.7538 38.8457 13.4295C38.8457 15.903 40.6459 18.4299 44.7411 18.4299C45.6423 18.4148 46.5398 18.3092 47.4199 18.1148L47.8469 16.5896L47.4199 16.4121C47.1297 16.867 46.7262 17.2387 46.249 17.4906C45.7718 17.7425 45.2373 17.866 44.698 17.849C43.5577 17.849 40.7547 17.189 40.7547 13.3135C40.7547 11.0042 41.7441 9.08183 44.1345 9.08183C44.7536 9.03326 45.3723 9.18159 45.902 9.50564C46.4318 9.82969 46.8456 10.3129 47.0843 10.8862H47.6611L47.5544 9.05823Z" fill="#1E120D"/>
<path fill-rule="evenodd" clip-rule="evenodd" d="M51.8532 17.344C51.5749 17.5107 51.2537 17.5921 50.9295 17.578C50.7859 17.5753 50.6442 17.5444 50.5125 17.4869C50.3808 17.4294 50.2618 17.3465 50.1622 17.243C50.0626 17.1395 49.9843 17.0173 49.932 16.8836C49.8796 16.7498 49.8541 16.607 49.857 16.4634C49.8506 16.2957 49.8804 16.1286 49.9442 15.9734C50.0081 15.8182 50.1046 15.6785 50.2271 15.5639C50.3496 15.4492 50.4954 15.3623 50.6545 15.3088C50.8135 15.2554 50.9823 15.2368 51.1492 15.2543C51.3707 15.2588 51.5914 15.2818 51.8091 15.3231L51.8532 17.344ZM49.4618 13.9909C49.5946 13.7516 49.7934 13.5557 50.0346 13.4265C50.2758 13.2972 50.549 13.2402 50.8217 13.2621C51.7578 13.2621 51.8122 14.0832 51.8122 14.8294C51.6203 14.8294 51.3862 14.7873 51.1656 14.7873C49.9144 14.7873 48.5278 15.3508 48.5278 16.8072C48.5415 17.0349 48.6007 17.2576 48.702 17.462C48.8033 17.6664 48.9447 17.8484 49.1176 17.9971C49.2906 18.1459 49.4917 18.2584 49.709 18.328C49.9262 18.3975 50.1553 18.4228 50.3825 18.4021C50.9474 18.3528 51.4796 18.1158 51.8943 17.7289C52.0092 17.9218 52.1693 18.0839 52.3608 18.2012C52.5523 18.3185 52.7694 18.3875 52.9935 18.4021L54.025 17.5811L53.8197 17.3758C53.726 17.4046 53.6292 17.4225 53.5313 17.4292C53.2286 17.4292 53.1208 17.2516 53.1208 16.6204V16.1349C53.1341 15.3508 53.1752 14.6364 53.1752 14.1428C53.1752 12.7674 52.1303 12.439 50.908 12.439C50.3086 12.4347 49.7117 12.518 49.1365 12.6864V13.9909H49.4618Z" fill="#1E120D"/>
<path fill-rule="evenodd" clip-rule="evenodd" d="M56.0065 12.4388C55.4536 12.7564 54.8555 12.988 54.2329 13.1254V13.4005C54.3618 13.402 54.4871 13.4438 54.5909 13.5203C54.6948 13.5967 54.772 13.7038 54.8118 13.8264C54.9716 14.4218 55.0361 15.0388 55.0027 15.6544V17.3581C55.0027 17.8251 54.8508 17.8939 54.5203 17.9739V18.248C54.8918 18.2357 55.2644 18.208 55.6349 18.208C56.0455 18.208 56.456 18.248 56.8665 18.248V17.9739C56.5515 17.8918 56.3308 17.8231 56.3308 17.3581V15.3516C56.3308 14.2226 56.2764 13.0156 56.2764 12.4388H56.0065ZM54.8508 10.8172C54.8392 10.9692 54.8738 11.1212 54.9499 11.2534C55.0261 11.3855 55.1403 11.4916 55.2776 11.5578C55.415 11.6241 55.5692 11.6474 55.72 11.6247C55.8708 11.602 56.0112 11.5343 56.123 11.4306C56.2348 11.3269 56.3127 11.1918 56.3466 11.0431C56.3805 10.8945 56.3688 10.739 56.313 10.5971C56.2571 10.4552 56.1599 10.3333 56.0338 10.2476C55.9077 10.1618 55.7587 10.116 55.6062 10.1161C55.5104 10.112 55.4148 10.1269 55.3248 10.16C55.2349 10.1931 55.1524 10.2437 55.0821 10.3089C55.0119 10.3741 54.9552 10.4526 54.9155 10.5399C54.8758 10.6271 54.8538 10.7214 54.8508 10.8172Z" fill="#1E120D"/>
<path fill-rule="evenodd" clip-rule="evenodd" d="M57.2549 18.2505C57.5567 18.2371 57.844 18.2094 58.1468 18.2094C58.504 18.2094 58.8755 18.2371 59.2327 18.2505V17.9754C59.0541 17.9487 58.9453 17.8799 58.9453 17.6603C58.972 17.4793 59.0371 17.3061 59.1362 17.1523L59.8783 16.1485L60.6204 17.2066C60.723 17.3468 60.7979 17.5053 60.841 17.6736C60.8374 17.7484 60.8076 17.8195 60.757 17.8746C60.7064 17.9298 60.6381 17.9654 60.5639 17.9754V18.2505C60.9744 18.2371 61.3758 18.2094 61.7894 18.2094C62.203 18.2094 62.5992 18.2371 63.0128 18.2505V17.9754C62.66 17.8212 62.3593 17.5686 62.1465 17.2477L60.6624 15.1806L61.8284 13.6965C62.0881 13.2872 62.4904 12.9888 62.9574 12.859V12.5901C62.6002 12.6034 62.2287 12.6301 61.8715 12.6301C61.5143 12.6301 61.1438 12.6034 60.7743 12.5901V12.8641C60.9919 12.9462 61.1571 13.0427 61.1571 13.3044C61.1303 13.4709 61.0594 13.6272 60.9519 13.7571L60.2796 14.651L59.5242 13.6247C59.4251 13.498 59.3673 13.3439 59.359 13.1833C59.359 12.9781 59.4831 12.9503 59.6463 12.8682V12.5901C59.2358 12.6034 58.8253 12.6301 58.4147 12.6301C58.0042 12.6301 57.5751 12.6034 57.1636 12.5901V12.8641C57.4768 12.9807 57.7429 13.1971 57.921 13.4799L59.5016 15.624L58.1674 17.3288C57.9601 17.6524 57.6357 17.8833 57.2621 17.9733L57.2549 18.2505Z" fill="#1E120D"/>
<path fill-rule="evenodd" clip-rule="evenodd" d="M66.3815 17.344C66.1033 17.511 65.782 17.5924 65.4578 17.578C65.1686 17.5712 64.8938 17.4501 64.6938 17.2412C64.4937 17.0323 64.3846 16.7526 64.3904 16.4633C64.3842 16.2957 64.4141 16.1287 64.478 15.9736C64.5419 15.8185 64.6384 15.6789 64.7609 15.5643C64.8834 15.4497 65.029 15.3627 65.188 15.3092C65.3471 15.2557 65.5157 15.237 65.6826 15.2543C65.9044 15.2589 66.1255 15.2819 66.3435 15.3231L66.3815 17.344ZM63.9901 13.9908C64.1233 13.7518 64.3224 13.556 64.5637 13.4268C64.8049 13.2977 65.0782 13.2405 65.351 13.2621C66.2861 13.2621 66.3415 14.0832 66.3415 14.8294C66.1485 14.8294 65.9145 14.7873 65.6938 14.7873C64.4448 14.7873 63.0571 15.3508 63.0571 16.8072C63.0706 17.0349 63.1297 17.2575 63.231 17.4619C63.3322 17.6663 63.4734 17.8483 63.6463 17.9971C63.8192 18.1458 64.0202 18.2583 64.2374 18.3279C64.4546 18.3975 64.6836 18.4227 64.9107 18.4021C65.476 18.3526 66.0084 18.1156 66.4236 17.7288C66.5382 17.9218 66.6981 18.0839 66.8895 18.2012C67.0808 18.3185 67.2978 18.3875 67.5218 18.4021L68.5543 17.581L68.349 17.3758C68.2553 17.4046 68.1585 17.4225 68.0606 17.4291C67.7599 17.4291 67.6501 17.2516 67.6501 16.6204V16.1349C67.6634 15.3508 67.7055 14.6364 67.7055 14.1427C67.7055 12.7674 66.6607 12.439 65.4393 12.439C64.8386 12.4348 64.2404 12.5181 63.6637 12.6863V13.9908H63.9901Z" fill="#1E120D"/>
<path fill-rule="evenodd" clip-rule="evenodd" d="M68.2993 8.58997C67.9862 8.58997 67.7296 8.97485 67.7296 9.44287C67.7146 9.55641 67.7296 9.67191 67.7732 9.77783C67.8167 9.88374 67.8874 9.97634 67.978 10.0464C68.1771 10.1305 68.4317 10.3214 68.4317 10.8993C68.4306 11.1539 68.3657 11.4042 68.2431 11.6274C68.1205 11.8506 67.944 12.0396 67.7296 12.1771C67.6404 12.2725 67.6722 12.5753 67.8138 12.603C68.243 12.3927 68.5977 12.0563 68.8303 11.6388C69.0629 11.2213 69.1623 10.7426 69.1152 10.267C69.1152 9.07133 68.6369 8.58997 68.2993 8.58997ZM70.1046 8.58997C69.7967 8.58997 69.5371 8.97485 69.5371 9.44287C69.5217 9.55622 69.5364 9.67161 69.5797 9.77751C69.6229 9.88341 69.6931 9.97611 69.7834 10.0464C69.9815 10.1305 70.2381 10.3214 70.2381 10.8993C70.237 11.1538 70.1723 11.404 70.0498 11.6272C69.9274 11.8504 69.7511 12.0394 69.5371 12.1771C69.4457 12.2725 69.4775 12.5753 69.6181 12.603C70.0476 12.393 70.4026 12.0567 70.6354 11.6391C70.8682 11.2216 70.9677 10.7428 70.9206 10.267C70.9206 9.07133 70.4423 8.58997 70.1046 8.58997Z" fill="#1E120D"/>
</g>
<defs>
<clipPath id="clip0_1_13568">
<rect width="65.6869" height="18.4744" fill="white" transform="translate(4.98389 5.35651)"/>
</clipPath>
</defs>
</svg>
