<svg width="180" height="359" viewBox="0 0 180 359" fill="none" xmlns="http://www.w3.org/2000/svg">
<path d="M50.7812 190.513V152.502H63.2136C67.2216 152.502 70.7122 153.309 73.6854 154.924C76.6565 156.539 78.9586 158.776 80.5897 161.633C82.2208 164.491 83.0354 167.774 83.0354 171.481C83.0354 175.189 82.2208 178.48 80.5897 181.353C78.9586 184.229 76.6585 186.474 73.6854 188.089C70.7122 189.704 67.2216 190.511 63.2136 190.511H50.7812V190.513ZM57.7604 184.389H63.3652C65.9462 184.389 68.1796 183.853 70.0654 182.782C71.9512 181.712 73.4186 180.214 74.4736 178.293C75.5267 176.373 76.0522 174.102 76.0522 171.481C76.0522 168.862 75.5246 166.592 74.4736 164.669C73.4206 162.748 71.9512 161.259 70.0654 160.204C68.1796 159.15 65.9462 158.624 63.3652 158.624H57.7604V184.389Z" fill="white"/>
<path d="M101.123 191.125C98.2688 191.125 95.7645 190.479 93.6079 189.186C91.4513 187.895 89.7778 186.142 88.5893 183.93C87.4009 181.72 86.8066 179.271 86.8066 176.583C86.8066 173.794 87.4191 171.319 88.6419 169.16C89.8647 167.001 91.512 165.29 93.5837 164.032C95.6554 162.773 98 162.143 100.615 162.143C102.788 162.143 104.7 162.5 106.347 163.214C107.995 163.928 109.395 164.916 110.552 166.173C111.706 167.432 112.589 168.868 113.201 170.484C113.812 172.099 114.119 173.843 114.119 175.713C114.119 176.223 114.093 176.725 114.042 177.219C113.992 177.713 113.897 178.162 113.761 178.571H92.3588V173.418H109.988L106.778 175.816C107.118 174.252 107.059 172.857 106.6 171.633C106.141 170.409 105.393 169.439 104.359 168.725C103.322 168.01 102.073 167.654 100.613 167.654C99.2208 167.654 97.9798 168.01 96.8944 168.725C95.807 169.439 94.9844 170.459 94.4225 171.787C93.8626 173.112 93.6504 174.73 93.7858 176.634C93.6504 178.336 93.8788 179.84 94.473 181.149C95.0672 182.459 95.9505 183.47 97.1228 184.185C98.2951 184.899 99.6452 185.255 101.173 185.255C102.701 185.255 104.001 184.932 105.072 184.286C106.141 183.64 106.982 182.772 107.595 181.683L112.995 184.337C112.451 185.662 111.603 186.836 110.448 187.856C109.292 188.876 107.918 189.675 106.321 190.254C104.722 190.835 102.99 191.125 101.123 191.125Z" fill="white"/>
<path d="M127.516 190.513L116.611 162.759H123.898L131.797 184.596H129.096L137.046 162.759H144.332L133.428 190.513H127.516Z" fill="white"/>
<path d="M52.7213 214.862V197.886H47.4683V194.13H62.1987V197.886H57.0285V214.862H52.7213Z" fill="white"/>
<path d="M68.7296 215.196C67.6361 215.196 66.6902 215.02 65.8939 214.668C65.0975 214.316 64.4851 213.81 64.0586 213.152C63.6321 212.494 63.4199 211.709 63.4199 210.8C63.4199 209.946 63.614 209.191 64.004 208.531C64.3941 207.874 64.9904 207.321 65.7968 206.876C66.6033 206.431 67.6078 206.115 68.8125 205.931L73.4531 205.18V208.24L69.5643 208.936C68.9701 209.048 68.5174 209.238 68.2021 209.507C67.8867 209.776 67.7291 210.161 67.7291 210.663C67.7291 211.126 67.9049 211.488 68.2566 211.747C68.6083 212.008 69.0449 212.138 69.5623 212.138C70.2475 212.138 70.8498 211.99 71.3693 211.693C71.8887 211.395 72.2909 210.992 72.5779 210.482C72.8649 209.972 73.0084 209.412 73.0084 208.799V204.846C73.0084 204.271 72.7821 203.79 72.3273 203.399C71.8725 203.01 71.2581 202.814 70.4799 202.814C69.7382 202.814 69.0853 203.019 68.5214 203.427C67.9555 203.836 67.5431 204.372 67.2844 205.042L63.9495 203.456C64.2466 202.602 64.7175 201.869 65.3663 201.258C66.0151 200.645 66.7933 200.173 67.7008 199.839C68.6083 199.505 69.6007 199.339 70.674 199.339C71.9534 199.339 73.0832 199.572 74.0655 200.035C75.0478 200.499 75.8118 201.144 76.3575 201.97C76.9033 202.796 77.1782 203.755 77.1782 204.85V214.868H73.2874V212.419L74.2333 212.251C73.7886 212.919 73.2975 213.472 72.7598 213.907C72.2222 214.344 71.6199 214.668 70.9529 214.88C70.2859 215.091 69.5441 215.196 68.7296 215.196Z" fill="white"/>
<path d="M80.2358 214.862V193.796H84.4056V214.862H80.2358Z" fill="white"/>
<path d="M94.7701 215.196C93.1572 215.196 91.7585 214.84 90.5741 214.125C89.3877 213.411 88.47 212.452 87.8233 211.245C87.1745 210.039 86.8511 208.703 86.8511 207.238C86.8511 205.716 87.1886 204.362 87.8657 203.174C88.5428 201.986 89.4544 201.049 90.6024 200.363C91.7504 199.677 93.048 199.333 94.4932 199.333C95.6978 199.333 96.763 199.523 97.6887 199.904C98.6144 200.284 99.3986 200.819 100.037 201.505C100.676 202.191 101.163 202.984 101.497 203.885C101.83 204.785 101.998 205.763 101.998 206.821C101.998 207.119 101.984 207.41 101.955 207.698C101.927 207.985 101.877 208.232 101.802 208.434H90.4346V205.374H99.439L97.4664 206.821C97.6523 206.024 97.6422 205.314 97.4381 204.692C97.2339 204.071 96.8782 203.579 96.3689 203.217C95.8595 202.855 95.2329 202.674 94.4932 202.674C93.7696 202.674 93.1491 202.851 92.6317 203.203C92.1122 203.555 91.7242 204.075 91.4634 204.761C91.2047 205.447 91.1016 206.283 91.1582 207.267C91.0834 208.121 91.1865 208.871 91.4634 209.521C91.7424 210.171 92.1668 210.677 92.7428 211.037C93.3169 211.399 94.0121 211.579 94.8267 211.579C95.5685 211.579 96.2031 211.432 96.7306 211.134C97.2582 210.839 97.6705 210.43 97.9676 209.91L101.303 211.496C101.005 212.239 100.539 212.889 99.8999 213.445C99.2612 214.002 98.5052 214.433 97.6341 214.739C96.763 215.044 95.809 215.196 94.7701 215.196Z" fill="white"/>
<path d="M104.444 214.862V199.667H108.335V202.672L108.112 202.005C108.464 201.096 109.034 200.424 109.822 199.987C110.61 199.552 111.532 199.333 112.587 199.333C113.735 199.333 114.742 199.574 115.603 200.058C116.464 200.541 117.135 201.213 117.618 202.075C118.099 202.938 118.342 203.945 118.342 205.095V214.862H114.172V205.985C114.172 205.392 114.057 204.882 113.824 204.455C113.592 204.028 113.268 203.694 112.852 203.454C112.436 203.213 111.949 203.091 111.393 203.091C110.855 203.091 110.374 203.213 109.948 203.454C109.521 203.694 109.192 204.028 108.961 204.455C108.729 204.882 108.614 205.392 108.614 205.985V214.862H104.444Z" fill="white"/>
<path d="M128.4 215.03C126.565 215.03 125.144 214.534 124.134 213.54C123.123 212.549 122.62 211.16 122.62 209.379V203.286H120.063V199.667H120.202C120.981 199.667 121.579 199.473 121.995 199.082C122.412 198.694 122.62 198.109 122.62 197.33V196.216H126.79V199.667H130.347V203.286H126.79V209.102C126.79 209.622 126.882 210.053 127.068 210.395C127.254 210.739 127.541 210.994 127.929 211.16C128.318 211.326 128.801 211.411 129.375 211.411C129.504 211.411 129.654 211.401 129.819 211.383C129.987 211.365 130.163 211.347 130.347 211.326V214.86C130.068 214.896 129.753 214.935 129.401 214.971C129.049 215.012 128.716 215.03 128.4 215.03Z" fill="white"/>
<path d="M135.154 220.986C134.709 220.986 134.279 220.95 133.862 220.875C133.446 220.8 133.08 220.68 132.765 220.512V217.09C133.024 217.165 133.331 217.23 133.682 217.284C134.034 217.339 134.36 217.367 134.655 217.367C135.469 217.367 136.053 217.177 136.405 216.797C136.757 216.416 137.044 215.985 137.266 215.504L138.295 213.138L138.24 216.617L131.57 199.669H136.045L140.464 211.719H138.796L143.214 199.669H147.689L141.185 216.283C140.777 217.321 140.278 218.193 139.685 218.899C139.091 219.604 138.42 220.128 137.67 220.472C136.918 220.814 136.08 220.986 135.154 220.986Z" fill="white"/>
<path d="M148.55 218.203L157.722 195.245H162.225L153.053 218.203H148.55Z" fill="white"/>
<path d="M165.948 214.751V210.549L175.676 206.542V207.989L165.948 203.954V199.752L179.151 205.206V209.325L165.948 214.751Z" fill="white"/>
<path d="M33.0605 195.196C25.382 194.11 25.1819 188.467 25.287 182.039C25.2385 169.36 25.3638 156.709 25.2526 144.028C25.2304 141.96 25.1496 137.315 22.2027 138.068C20.422 138.897 20.0036 141.68 20.0036 143.603C20.0137 156.495 19.9773 169.395 20.0157 182.286C20.036 186.688 19.9248 191.948 22.6958 195.54C26.0773 200.689 34.0327 199.242 37.6587 203.618C40.4338 207.167 38.4106 212.757 33.9721 213.775C20.8667 216.307 8.25849 204.591 6.61122 191.519C6.14837 187.874 6.33028 184.197 6.30602 180.536C6.1989 177.771 6.66782 173.879 4.47685 172.005C2.2111 170.825 1.31167 174.489 1.16412 176.213C-0.768136 197.18 5.73201 215.965 28.721 219.403C34.6855 220.245 41.4424 217.75 43.5282 211.701C46.459 204.069 41.0806 196.314 33.1272 195.215L33.0605 195.196Z" fill="white"/>
<path d="M29.6004 163.4C29.3174 166.936 29.3558 170.508 29.4649 174.055C29.5094 175.294 29.6367 176.563 30.1542 177.692C30.6999 179.085 32.1632 179.884 33.093 178.366C33.6852 177.391 33.8974 176.126 33.9702 174.978C34.2127 170.825 33.6306 166.48 34.5644 162.311C35.3365 158.585 37.8347 155.23 41.2889 154.291C42.8715 153.906 44.0943 153.364 44.1529 151.48C44.1489 149.284 42.7886 148.942 40.9857 149.432C37.485 150.227 34.3785 152.437 32.3047 155.495C30.7504 157.737 29.8389 160.561 29.6044 163.341L29.6004 163.4Z" fill="white"/>
<path d="M10.3808 173.523C10.9346 184.776 7.94527 195.882 17.4226 204.403C21.0951 207.704 26.6675 210.6 31.6902 209.723C33.0302 209.499 34.8109 208.556 34.0772 207.208C33.0585 205.512 29.9055 204.737 27.949 204.01C18.0067 200.802 15.4641 192.934 15.8239 183.462C15.8178 176.053 15.8885 168.662 15.7652 161.261C15.743 159.551 15.6359 157.756 14.8517 156.224C13.6571 153.819 11.6178 154.43 10.9043 156.699C10.397 158.073 10.2858 159.561 10.2535 161.022C10.1767 165.151 10.1767 169.348 10.3788 173.458L10.3808 173.523Z" fill="white"/>
<path d="M32.1552 187.85C34.0531 187.892 35.3588 185.644 34.423 183.999C33.7843 182.724 32.0562 182.244 30.8354 182.96C28.5454 184.227 29.4711 187.852 32.0926 187.85H32.1552Z" fill="white"/>
</svg>
