<svg width="45" height="30" viewBox="0 0 45 30" fill="none" xmlns="http://www.w3.org/2000/svg">
<rect x="0.249023" y="0.275818" width="44.1334" height="28.738" rx="4.10543" fill="white"/>
<g clip-path="url(#clip0_1_13562)">
<path fill-rule="evenodd" clip-rule="evenodd" d="M22.096 21.4573C23.0444 20.5898 23.8018 19.5343 24.32 18.358C24.8382 17.1818 25.1058 15.9105 25.1058 14.6252C25.1058 13.3399 24.8382 12.0686 24.32 10.8924C23.8018 9.71613 23.0444 8.66066 22.096 7.79315C20.4195 6.2567 18.2275 5.40538 15.9535 5.4076C13.5088 5.4076 11.1643 6.37874 9.43562 8.10737C7.70698 9.83601 6.73584 12.1805 6.73584 14.6252C6.73584 17.0699 7.70698 19.4144 9.43562 21.143C11.1643 22.8717 13.5088 23.8428 15.9535 23.8428C18.2275 23.845 20.4195 22.9937 22.096 21.4573Z" fill="#0097D9"/>
<path fill-rule="evenodd" clip-rule="evenodd" d="M28.2421 5.4076C25.9684 5.40544 23.7767 6.25677 22.1006 7.79315C21.7688 8.09694 21.4597 8.4246 21.1758 8.77352H23.0276C23.2811 9.08504 23.5143 9.4125 23.7258 9.75388H20.4786C20.2838 10.07 20.1077 10.3974 19.9514 10.7342H24.2476C24.396 11.0533 24.5258 11.3806 24.6365 11.7146H19.5636C19.4574 12.0364 19.3687 12.3636 19.2979 12.695H24.9023C25.2485 14.3164 25.1568 16.0008 24.6365 17.575H19.5636C19.6739 17.909 19.8034 18.2363 19.9514 18.5554H24.2476C24.0921 18.8925 23.9164 19.2198 23.7215 19.5358H20.4786C20.6894 19.8774 20.9223 20.2048 21.1758 20.5161H23.0276C22.7438 20.8645 22.4355 21.1921 22.105 21.4965C23.781 23.0329 25.9727 23.8842 28.2464 23.882C30.6911 23.882 33.0356 22.9109 34.7642 21.1823C36.4929 19.4536 37.464 17.1091 37.464 14.6644C37.464 12.2198 36.4929 9.87523 34.7642 8.14659C33.0356 6.41795 30.6911 5.44681 28.2464 5.44681" fill="#E40620"/>
<path fill-rule="evenodd" clip-rule="evenodd" d="M36.1699 19.7631C36.1701 19.7045 36.1877 19.6474 36.2204 19.5988C36.2531 19.5502 36.2994 19.5124 36.3536 19.4901C36.4077 19.4679 36.4673 19.4622 36.5247 19.4737C36.5821 19.4853 36.6348 19.5136 36.6761 19.5551C36.7174 19.5965 36.7455 19.6493 36.7569 19.7068C36.7682 19.7642 36.7623 19.8237 36.7398 19.8778C36.7174 19.9319 36.6794 19.9781 36.6307 20.0106C36.582 20.0431 36.5248 20.0605 36.4662 20.0605C36.4272 20.0605 36.3886 20.0528 36.3526 20.0378C36.3166 20.0229 36.2838 20.0009 36.2563 19.9733C36.2288 19.9457 36.207 19.9129 36.1922 19.8768C36.1773 19.8407 36.1698 19.8021 36.1699 19.7631ZM36.4662 19.9897C36.5111 19.9899 36.555 19.9768 36.5924 19.952C36.6298 19.9272 36.659 19.8919 36.6763 19.8506C36.6936 19.8092 36.6983 19.7636 36.6897 19.7196C36.681 19.6755 36.6595 19.6351 36.6279 19.6033C36.5963 19.5715 36.5559 19.5498 36.5119 19.541C36.4679 19.5321 36.4223 19.5365 36.3808 19.5537C36.3394 19.5708 36.3039 19.5998 36.279 19.6371C36.254 19.6744 36.2407 19.7182 36.2407 19.7631C36.2406 19.7928 36.2463 19.8222 36.2576 19.8497C36.2688 19.8772 36.2854 19.9022 36.3064 19.9232C36.3273 19.9443 36.3522 19.961 36.3797 19.9724C36.4071 19.9838 36.4365 19.9897 36.4662 19.9897ZM36.4259 19.8938H36.3649V19.6324H36.4738C36.4968 19.6301 36.5199 19.6346 36.5403 19.6455C36.5506 19.6529 36.5589 19.6628 36.5646 19.6742C36.5703 19.6855 36.5731 19.6981 36.573 19.7108C36.5732 19.7252 36.569 19.7394 36.561 19.7515C36.5531 19.7635 36.5417 19.7729 36.5283 19.7783L36.5762 19.8938H36.5087L36.4695 19.7903H36.4248V19.7457H36.4586C36.4712 19.7471 36.484 19.7452 36.4956 19.7402C36.5002 19.7368 36.5039 19.7324 36.5064 19.7273C36.5088 19.7221 36.51 19.7165 36.5098 19.7108C36.5098 19.7055 36.5086 19.7002 36.5061 19.6954C36.5036 19.6907 36.5 19.6866 36.4956 19.6836C36.4828 19.6803 36.4693 19.6803 36.4564 19.6836H36.4248V19.9014L36.4259 19.8938Z" fill="#E40620"/>
<path fill-rule="evenodd" clip-rule="evenodd" d="M34.2363 16.6239C34.2365 16.5653 34.2541 16.5081 34.2868 16.4596C34.3195 16.411 34.3658 16.3732 34.42 16.3509C34.4741 16.3287 34.5337 16.3229 34.5911 16.3345C34.6485 16.3461 34.7012 16.3744 34.7425 16.4158C34.7838 16.4573 34.8119 16.5101 34.8233 16.5676C34.8346 16.625 34.8287 16.6845 34.8062 16.7386C34.7838 16.7927 34.7458 16.8389 34.6971 16.8714C34.6484 16.9039 34.5912 16.9213 34.5326 16.9213C34.4936 16.9213 34.455 16.9136 34.419 16.8986C34.383 16.8836 34.3503 16.8617 34.3227 16.8341C34.2952 16.8065 34.2734 16.7737 34.2586 16.7376C34.2437 16.7015 34.2362 16.6629 34.2363 16.6239ZM34.5326 16.8504C34.5775 16.8507 34.6214 16.8376 34.6588 16.8128C34.6962 16.788 34.7254 16.7527 34.7427 16.7113C34.76 16.67 34.7647 16.6244 34.7561 16.5803C34.7474 16.5363 34.7259 16.4958 34.6943 16.4641C34.6627 16.4323 34.6223 16.4106 34.5783 16.4017C34.5343 16.3929 34.4887 16.3973 34.4473 16.4144C34.4058 16.4316 34.3703 16.4606 34.3454 16.4979C34.3205 16.5352 34.3071 16.579 34.3071 16.6239C34.307 16.6536 34.3127 16.683 34.324 16.7105C34.3353 16.738 34.3518 16.763 34.3728 16.784C34.3937 16.8051 34.4186 16.8218 34.4461 16.8332C34.4735 16.8446 34.5029 16.8504 34.5326 16.8504ZM34.4923 16.7546H34.4313V16.4932H34.5402C34.5632 16.4908 34.5863 16.4954 34.6067 16.5062C34.6169 16.5138 34.6252 16.5236 34.6309 16.535C34.6365 16.5464 34.6395 16.5589 34.6394 16.5716C34.6399 16.5861 34.6359 16.6004 34.6278 16.6125C34.6198 16.6246 34.6083 16.6339 34.5947 16.6391L34.6426 16.7546H34.5751L34.5359 16.6457H34.4923V16.6064H34.5261C34.5382 16.6097 34.551 16.6097 34.5631 16.6064C34.5678 16.6031 34.5717 16.5987 34.5743 16.5936C34.577 16.5885 34.5784 16.5828 34.5784 16.577C34.5781 16.5716 34.5766 16.5663 34.574 16.5616C34.5713 16.5569 34.5676 16.5528 34.5631 16.5498C34.5506 16.5471 34.5376 16.5471 34.525 16.5498H34.4923V16.7677V16.7546Z" fill="white"/>
<path fill-rule="evenodd" clip-rule="evenodd" d="M14.8093 16.9218H13.671L14.3474 13.3272L12.7886 16.9218H11.7505L11.561 13.349L10.8824 16.9208H9.84863L10.7321 12.2477H12.5087L12.6024 15.1408L13.8551 12.2477H15.7069L14.8093 16.9218Z" fill="white"/>
<path fill-rule="evenodd" clip-rule="evenodd" d="M27.5402 16.8752C27.2747 16.9546 26.9993 16.996 26.7221 16.9983C26.1394 16.9983 25.8213 16.7042 25.8213 16.1639C25.8224 16.0495 25.8337 15.9354 25.8551 15.8229L25.9237 15.4515L25.9771 15.1508L26.5054 12.249H27.6371L27.4737 13.1204H28.0543L27.8986 14.0441H27.3147L27.0152 15.6367C27.0035 15.6882 26.997 15.7407 26.9955 15.7935C26.9955 15.9896 27.1132 16.0757 27.3844 16.0757C27.4877 16.0789 27.5908 16.0668 27.6905 16.0397L27.5402 16.8752Z" fill="white"/>
<path fill-rule="evenodd" clip-rule="evenodd" d="M30.8633 13.1519C30.8221 13.1333 30.779 13.1195 30.7348 13.1105L30.6367 13.0887C30.5986 13.0818 30.56 13.0786 30.5213 13.0789C30.1476 13.0789 29.8786 13.2466 29.53 13.6965L29.6302 13.1203H28.5987L27.9048 16.9208H29.0442C29.4527 14.5963 29.627 14.19 30.1738 14.19C30.2141 14.19 30.262 14.19 30.3176 14.1987L30.4505 14.227L30.8633 13.1519Z" fill="white"/>
<path fill-rule="evenodd" clip-rule="evenodd" d="M23.0235 14.3216C23.0235 14.802 23.2915 15.1321 23.9004 15.3804C24.3677 15.5722 24.4451 15.6277 24.4451 15.7998C24.4451 16.0373 24.2392 16.144 23.7839 16.144C23.4343 16.1431 23.0866 16.0925 22.7512 15.9937L22.5933 16.8651L22.6445 16.8739L22.8558 16.9131C22.9233 16.9251 23.0235 16.936 23.1564 16.9468C23.4298 16.9675 23.6423 16.9784 23.7915 16.9784C25.0071 16.9784 25.5692 16.5765 25.5692 15.7094C25.5773 15.4663 25.5006 15.2279 25.3524 15.035C25.2042 14.8421 24.9936 14.7066 24.7566 14.6517C24.274 14.46 24.2185 14.4175 24.2185 14.2399C24.2185 14.0352 24.4091 13.9295 24.7817 13.9295C25.0584 13.9332 25.3348 13.9521 25.6095 13.9861L25.774 13.1071C25.4377 13.0627 25.0991 13.0376 24.7599 13.0319C23.4712 13.0319 23.0246 13.6158 23.029 14.3173" fill="white"/>
<path fill-rule="evenodd" clip-rule="evenodd" d="M18.5133 16.9214H17.5667L17.5885 16.5281C17.4342 16.6872 17.247 16.8108 17.0401 16.8902C16.8331 16.9695 16.6114 17.0029 16.3903 16.9878C16.2518 16.9952 16.1134 16.9734 15.984 16.9238C15.8545 16.8743 15.7369 16.7981 15.6388 16.7003C15.5406 16.6024 15.4641 16.4851 15.4142 16.3558C15.3642 16.2265 15.342 16.0881 15.3489 15.9497C15.3489 15.0238 16.0852 14.4846 17.3499 14.4846C17.505 14.4859 17.6599 14.4957 17.814 14.514C17.841 14.4343 17.8561 14.3509 17.8586 14.2668C17.8586 14.0151 17.6593 13.9215 17.1277 13.9215C16.8094 13.9213 16.4921 13.9578 16.1822 14.0304L16.0242 14.0707L15.9219 14.0947L16.0809 13.2406C16.524 13.1125 16.9824 13.0447 17.4436 13.0391C18.424 13.0391 18.9403 13.4247 18.9403 14.1535C18.9336 14.4071 18.9026 14.6595 18.8477 14.9073L18.6091 16.2547L18.5699 16.4965L18.5405 16.6904L18.5209 16.8222L18.5133 16.9214ZM17.6822 15.2286C17.5976 15.2181 17.5125 15.213 17.4273 15.2134C16.7824 15.2134 16.4556 15.4073 16.4556 15.7918C16.4531 15.8451 16.4622 15.8983 16.4822 15.9478C16.5021 15.9973 16.5325 16.042 16.5713 16.0787C16.6101 16.1154 16.6563 16.1433 16.7068 16.1605C16.7573 16.1777 16.811 16.1839 16.8641 16.1785C16.9809 16.1718 17.0951 16.1417 17.2 16.0899C17.3049 16.0381 17.3983 15.9658 17.4747 15.8771C17.551 15.7885 17.6087 15.6854 17.6444 15.574C17.68 15.4626 17.6929 15.3451 17.6822 15.2286Z" fill="white"/>
<path fill-rule="evenodd" clip-rule="evenodd" d="M22.2509 16.8344C21.8707 16.9378 21.4782 16.9895 21.0842 16.9879C19.8108 16.9879 19.1475 16.4041 19.1475 15.2854C19.1223 15.0046 19.1545 14.7216 19.2421 14.4537C19.3296 14.1857 19.4708 13.9384 19.6569 13.7267C19.8431 13.5149 20.0703 13.3433 20.3249 13.2221C20.5794 13.101 20.8559 13.0328 21.1376 13.0218C21.3319 12.9978 21.5292 13.0157 21.716 13.0745C21.9028 13.1332 22.0748 13.2314 22.2204 13.3623C22.366 13.4933 22.4818 13.6539 22.56 13.8335C22.6381 14.013 22.6769 14.2073 22.6735 14.403C22.668 14.7205 22.6208 15.0358 22.533 15.3409H20.2694C20.2625 15.3805 20.2589 15.4206 20.2585 15.4608C20.2585 15.8965 20.5962 16.1263 21.2574 16.1263C21.664 16.1267 22.0664 16.0448 22.4404 15.8856L22.2509 16.8344ZM21.6441 14.573C21.6507 14.4935 21.6539 14.4292 21.6539 14.3791C21.6573 14.309 21.6451 14.2391 21.6182 14.1743C21.5912 14.1095 21.5501 14.0516 21.498 14.0047C21.4459 13.9577 21.3839 13.923 21.3167 13.903C21.2495 13.883 21.1786 13.8782 21.1093 13.8889C20.7476 13.8889 20.4884 14.1318 20.3827 14.5708L21.6441 14.573Z" fill="white"/>
<path fill-rule="evenodd" clip-rule="evenodd" d="M34.4052 15.2016C34.3826 15.4678 34.3071 15.7269 34.1831 15.9635C34.059 16.2002 33.889 16.4097 33.6829 16.5797C33.4769 16.7498 33.2389 16.8769 32.983 16.9538C32.7271 17.0307 32.4585 17.0556 32.1928 17.0273C31.9533 17.0558 31.7105 17.0307 31.4819 16.9536C31.2534 16.8766 31.0449 16.7495 30.8716 16.5818C30.6983 16.414 30.5646 16.2097 30.4801 15.9838C30.3957 15.7579 30.3627 15.516 30.3835 15.2757C30.363 14.9749 30.4068 14.6732 30.512 14.3907C30.6172 14.1082 30.7813 13.8513 30.9935 13.6372C31.2057 13.423 31.4611 13.2565 31.7426 13.1488C32.0241 13.041 32.3254 12.9944 32.6263 13.0121C32.8616 12.9891 33.0991 13.0169 33.3227 13.0937C33.5462 13.1704 33.7507 13.2944 33.9222 13.4571C34.0937 13.6198 34.2282 13.8175 34.3166 14.0367C34.405 14.2559 34.4452 14.4916 34.4346 14.7278C34.4399 14.8852 34.43 15.0428 34.4052 15.1983M33.232 14.7125C33.232 14.3149 33.0719 13.9391 32.6046 13.9391C32.024 13.9391 31.6634 14.6319 31.6634 15.2463C31.6634 15.7626 31.9107 16.1079 32.317 16.1014C32.5399 16.0527 32.7429 15.9379 32.8993 15.7719C33.0558 15.6059 33.1585 15.3965 33.1939 15.1711C33.2192 15.021 33.2316 14.8691 33.2309 14.7169" fill="white"/>
</g>
<defs>
<clipPath id="clip0_1_13562">
<rect width="35.9225" height="18.4744" fill="white" transform="translate(4.35449 5.40759)"/>
</clipPath>
</defs>
</svg>
