<svg width="45" height="30" viewBox="0 0 45 30" fill="none" xmlns="http://www.w3.org/2000/svg">
<rect x="0.69873" y="0.275818" width="44.1334" height="28.738" rx="4.10543" fill="white"/>
<g clip-path="url(#clip0_1_13563)">
<path d="M15.6128 23.7805V22.5565C15.6195 22.4614 15.6073 22.3659 15.577 22.2756C15.5467 22.1852 15.4989 22.1017 15.4363 22.0298C15.3736 21.9579 15.2975 21.8991 15.2121 21.8567C15.1267 21.8144 15.0339 21.7892 14.9388 21.7828C14.9062 21.7806 14.8736 21.7806 14.8411 21.7828C14.7065 21.7745 14.5722 21.8022 14.452 21.8632C14.3318 21.9242 14.2301 22.0161 14.1573 22.1296C14.091 22.0192 13.9963 21.9288 13.883 21.8678C13.7697 21.8068 13.6421 21.7774 13.5135 21.7828C13.4009 21.7773 13.2889 21.8015 13.1886 21.8529C13.0883 21.9044 13.0033 21.9812 12.942 22.0758V21.8345H12.5181V23.7883H12.9459V22.7137C12.9295 22.5937 12.9615 22.472 13.0347 22.3754C13.108 22.2789 13.2166 22.2154 13.3367 22.1989C13.3656 22.196 13.3947 22.196 13.4236 22.1989C13.705 22.1989 13.8476 22.3826 13.8476 22.7128V23.7971H14.2755V22.7079C14.2597 22.5871 14.2925 22.4651 14.3667 22.3685C14.4409 22.272 14.5504 22.2089 14.6711 22.1931C14.6984 22.1901 14.7259 22.1901 14.7532 22.1931C15.0462 22.1931 15.181 22.3767 15.181 22.7069V23.7912L15.6128 23.7805ZM21.9479 21.8267H21.2504V21.2357H20.8225V21.8267H20.4317V22.2175H20.8274V23.1143C20.8274 23.5675 21.0032 23.8362 21.5044 23.8362C21.6918 23.8369 21.8756 23.7847 22.0348 23.6857L21.9127 23.3223C21.799 23.3903 21.6699 23.4283 21.5376 23.4327C21.3334 23.4327 21.2562 23.3018 21.2562 23.1064V22.2175H21.9488L21.9479 21.8267ZM25.5623 21.7779C25.4589 21.7749 25.3566 21.7998 25.2662 21.85C25.1758 21.9002 25.1006 21.9738 25.0485 22.0631V21.8267H24.6284V23.7805H25.0524V22.6874C25.0524 22.365 25.1911 22.1852 25.4597 22.1852C25.5507 22.1842 25.641 22.2011 25.7254 22.2351L25.8554 21.8267C25.7585 21.7921 25.6564 21.7743 25.5535 21.774L25.5623 21.7779ZM20.0918 21.9821C19.8518 21.8392 19.5758 21.7683 19.2966 21.7779C18.8033 21.7779 18.4809 22.0143 18.4809 22.4021C18.4809 22.7206 18.7173 22.9159 19.154 22.9765L19.3582 23.0058C19.5897 23.0381 19.7001 23.1035 19.7001 23.209C19.7001 23.3604 19.5457 23.4464 19.2556 23.4464C19.0227 23.4525 18.7944 23.3806 18.6069 23.2422L18.4038 23.5724C18.6507 23.745 18.9466 23.8337 19.2478 23.8254C19.8105 23.8254 20.1367 23.5597 20.1367 23.1895C20.1367 22.8192 19.8798 22.6668 19.4529 22.6033L19.2487 22.574C19.0651 22.5496 18.9186 22.5135 18.9186 22.3787C18.9186 22.2439 19.0573 22.1501 19.2898 22.1501C19.5046 22.1529 19.7152 22.2108 19.9013 22.3181L20.0918 21.9821ZM31.4548 21.7818C31.3515 21.779 31.2493 21.804 31.1589 21.8541C31.0685 21.9043 30.9933 21.9778 30.941 22.067V21.8306H30.5219V23.7844H30.9459V22.6874C30.9459 22.365 31.0846 22.1852 31.3532 22.1852C31.4439 22.1841 31.5339 22.2011 31.618 22.2351L31.7489 21.8267C31.652 21.7922 31.5499 21.7743 31.447 21.774L31.4548 21.7818ZM25.9912 22.8017C25.9863 22.9309 26.007 23.0597 26.052 23.1809C26.097 23.3022 26.1655 23.4133 26.2535 23.508C26.3415 23.6027 26.4473 23.6792 26.5649 23.733C26.6825 23.7868 26.8095 23.8168 26.9387 23.8215C26.97 23.8215 27.0003 23.8215 27.0306 23.8215C27.2853 23.8352 27.5358 23.7521 27.732 23.589L27.5288 23.2471C27.3818 23.3584 27.2031 23.4197 27.0188 23.422C26.8629 23.4082 26.7179 23.3365 26.6122 23.221C26.5065 23.1056 26.4479 22.9547 26.4479 22.7982C26.4479 22.6417 26.5065 22.4909 26.6122 22.3754C26.7179 22.26 26.8629 22.1883 27.0188 22.1745C27.2031 22.1768 27.3818 22.2381 27.5288 22.3494L27.732 22.0075C27.5353 21.8452 27.2852 21.7622 27.0306 21.775C26.9015 21.7674 26.7721 21.7855 26.65 21.828C26.5279 21.8706 26.4154 21.9368 26.3189 22.0229C26.2224 22.1091 26.1439 22.2134 26.0878 22.3299C26.0318 22.4464 25.9992 22.5729 25.9921 22.702C25.9921 22.7333 25.9921 22.7636 25.9921 22.7938L25.9912 22.8017ZM29.9631 22.8017V21.8306H29.5392V22.067C29.4669 21.9744 29.3737 21.9003 29.2673 21.8507C29.1608 21.8011 29.0441 21.7775 28.9267 21.7818C28.6618 21.79 28.4105 21.901 28.226 22.0913C28.0415 22.2815 27.9384 22.5361 27.9384 22.8012C27.9384 23.0662 28.0415 23.3208 28.226 23.5111C28.4105 23.7013 28.6618 23.8123 28.9267 23.8205C29.0441 23.8251 29.1609 23.8016 29.2674 23.752C29.3739 23.7023 29.4671 23.6281 29.5392 23.5353V23.7717H29.9631V22.8017ZM28.3845 22.8017C28.3905 22.6483 28.4564 22.5034 28.5681 22.3982C28.6797 22.2929 28.8282 22.2356 28.9817 22.2386C29.1351 22.2416 29.2812 22.3047 29.3887 22.4142C29.4961 22.5238 29.5563 22.6711 29.5563 22.8246C29.5563 22.9781 29.4961 23.1254 29.3887 23.235C29.2812 23.3446 29.1351 23.4076 28.9817 23.4106C28.8282 23.4136 28.6797 23.3563 28.5681 23.2511C28.4564 23.1458 28.3905 23.0009 28.3845 22.8476C28.3845 22.8319 28.3845 22.8173 28.3845 22.8017ZM23.2666 21.7818C23.1304 21.78 22.9951 21.8056 22.8689 21.8569C22.7427 21.9083 22.628 21.9845 22.5317 22.0809C22.4354 22.1773 22.3594 22.2921 22.3082 22.4184C22.257 22.5447 22.2316 22.68 22.2336 22.8162C22.2356 22.9525 22.2648 23.087 22.3196 23.2118C22.3744 23.3365 22.4537 23.4491 22.5527 23.5427C22.6518 23.6363 22.7686 23.7091 22.8962 23.7568C23.0239 23.8046 23.1598 23.8262 23.296 23.8205C23.5891 23.8359 23.8775 23.7415 24.1048 23.5558L23.9016 23.2422C23.7403 23.3712 23.5406 23.4427 23.3341 23.4454C23.1934 23.4583 23.0533 23.4157 22.9438 23.3266C22.8342 23.2375 22.7639 23.109 22.7479 22.9687H24.1957V22.8056C24.2087 22.6764 24.1944 22.546 24.1538 22.4227C24.1132 22.2994 24.0471 22.186 23.9599 22.0899C23.8727 21.9938 23.7663 21.917 23.6475 21.8646C23.5288 21.8122 23.4004 21.7853 23.2706 21.7857L23.2666 21.7818ZM23.2666 22.1608C23.3945 22.1592 23.518 22.2078 23.6104 22.2963C23.7028 22.3847 23.7569 22.5058 23.7609 22.6336H22.7411C22.7484 22.5027 22.8067 22.3798 22.9034 22.2913C23.0002 22.2027 23.1277 22.1556 23.2588 22.1598L23.2666 22.1608ZM33.8921 22.8056V21.0472H33.4838V22.0661C33.4118 21.9734 33.3188 21.8992 33.2125 21.8496C33.1061 21.8 32.9895 21.7764 32.8723 21.7808C32.7358 21.7766 32.5998 21.7998 32.4724 21.8492C32.345 21.8985 32.2289 21.9729 32.1308 22.068C32.0327 22.163 31.9548 22.2768 31.9015 22.4026C31.8483 22.5284 31.8209 22.6636 31.8209 22.8002C31.8209 22.9368 31.8483 23.072 31.9015 23.1977C31.9548 23.3235 32.0327 23.4373 32.1308 23.5324C32.2289 23.6275 32.345 23.7019 32.4724 23.7512C32.5998 23.8005 32.7358 23.8238 32.8723 23.8196C32.9896 23.8242 33.1063 23.8007 33.2126 23.7511C33.319 23.7015 33.412 23.6271 33.4838 23.5343V23.7717H33.897L33.8921 22.8056ZM34.5994 23.4972C34.6258 23.4963 34.6521 23.501 34.6766 23.5109C34.7001 23.5205 34.7216 23.5345 34.7401 23.5519C34.758 23.5697 34.7725 23.5905 34.7831 23.6134C34.793 23.6373 34.7981 23.6628 34.7981 23.6887C34.7981 23.7145 34.793 23.74 34.7831 23.7639C34.7723 23.7866 34.7577 23.8074 34.7401 23.8254C34.7215 23.8426 34.7 23.8561 34.6766 23.8655C34.6522 23.8762 34.626 23.8818 34.5994 23.8821C34.5608 23.8817 34.523 23.8704 34.4905 23.8494C34.458 23.8285 34.4321 23.7989 34.4157 23.7639C34.4058 23.74 34.4007 23.7145 34.4007 23.6887C34.4007 23.6628 34.4058 23.6373 34.4157 23.6134C34.426 23.5903 34.4406 23.5694 34.4587 23.5519C34.4772 23.5345 34.4987 23.5205 34.5222 23.5109C34.5485 23.5 34.5769 23.4954 34.6053 23.4972H34.5994ZM34.5994 23.841C34.6195 23.8411 34.6395 23.8371 34.658 23.8293C34.6757 23.8215 34.6916 23.8102 34.7049 23.7961C34.7303 23.7684 34.7444 23.7321 34.7444 23.6945C34.7444 23.6569 34.7303 23.6207 34.7049 23.5929C34.6916 23.5789 34.6757 23.5676 34.658 23.5597C34.6395 23.5519 34.6195 23.5479 34.5994 23.548C34.579 23.5479 34.5587 23.5519 34.5398 23.5597C34.5216 23.5677 34.505 23.5789 34.491 23.5929C34.4656 23.6207 34.4515 23.6569 34.4515 23.6945C34.4515 23.7321 34.4656 23.7684 34.491 23.7961C34.505 23.8101 34.5216 23.8214 34.5398 23.8293C34.5605 23.8381 34.5828 23.8421 34.6053 23.841H34.5994ZM34.6111 23.5988C34.6304 23.5978 34.6495 23.6037 34.6649 23.6154C34.6711 23.6203 34.676 23.6268 34.6791 23.6341C34.6822 23.6415 34.6833 23.6495 34.6824 23.6574C34.6829 23.6642 34.682 23.671 34.6796 23.6774C34.6772 23.6838 34.6735 23.6897 34.6688 23.6945C34.6569 23.7054 34.6418 23.7119 34.6258 23.7131L34.6844 23.7805H34.6375L34.5808 23.7131H34.5623V23.7805H34.5242V23.6007L34.6111 23.5988ZM34.5662 23.633V23.6818H34.6111C34.619 23.6847 34.6277 23.6847 34.6355 23.6818C34.637 23.6791 34.6378 23.6761 34.6378 23.673C34.6378 23.67 34.637 23.6669 34.6355 23.6642C34.637 23.6614 34.6378 23.6582 34.6378 23.655C34.6378 23.6517 34.637 23.6485 34.6355 23.6457C34.6277 23.6428 34.619 23.6428 34.6111 23.6457L34.5662 23.633ZM32.3194 22.8056C32.3254 22.6545 32.3904 22.5119 32.5004 22.4083C32.6104 22.3047 32.7566 22.2483 32.9077 22.2513C33.0588 22.2543 33.2027 22.3164 33.3085 22.4244C33.4143 22.5323 33.4736 22.6774 33.4736 22.8285C33.4736 22.9796 33.4143 23.1247 33.3085 23.2327C33.2027 23.3406 33.0588 23.4027 32.9077 23.4057C32.7566 23.4087 32.6104 23.3524 32.5004 23.2487C32.3904 23.1451 32.3254 23.0025 32.3194 22.8515C32.3194 22.8368 32.3194 22.8212 32.3194 22.8056ZM17.9993 22.8056V21.8287H17.5832V22.0651C17.5112 21.9724 17.4182 21.8982 17.3118 21.8486C17.2055 21.799 17.0889 21.7755 16.9716 21.7798C16.7068 21.788 16.4555 21.899 16.271 22.0893C16.0865 22.2796 15.9833 22.5342 15.9833 22.7992C15.9833 23.0642 16.0865 23.3188 16.271 23.5091C16.4555 23.6994 16.7068 23.8104 16.9716 23.8186C17.0889 23.8232 17.2056 23.7997 17.312 23.7501C17.4184 23.7005 17.5113 23.6262 17.5832 23.5333V23.7717H18.0071L17.9993 22.8056ZM16.4217 22.8056C16.4283 22.6626 16.4906 22.5278 16.5953 22.4302C16.7 22.3326 16.8387 22.2798 16.9818 22.2831C17.1249 22.2864 17.261 22.3456 17.3611 22.448C17.4611 22.5503 17.5171 22.6878 17.5171 22.831C17.5171 22.9741 17.4611 23.1116 17.3611 23.214C17.261 23.3163 17.1249 23.3755 16.9818 23.3788C16.8387 23.3822 16.7 23.3293 16.5953 23.2317C16.4906 23.1341 16.4283 22.9993 16.4217 22.8564C16.4207 22.8394 16.4207 22.8225 16.4217 22.8056Z" fill="#1F191A"/>
<path d="M26.3741 6.97723H19.9512V18.519H26.3741V6.97723Z" fill="#FF5F00"/>
<path d="M20.3631 12.7498C20.3618 11.638 20.6136 10.5404 21.0993 9.54034C21.5851 8.54024 22.2921 7.6638 23.1667 6.97744C22.0839 6.12646 20.7834 5.5973 19.414 5.45043C18.0446 5.30356 16.6616 5.54492 15.4229 6.14691C14.1841 6.7489 13.1398 7.68724 12.4091 8.85468C11.6785 10.0221 11.291 11.3716 11.291 12.7488C11.291 14.1261 11.6785 15.4755 12.4091 16.643C13.1398 17.8104 14.1841 18.7488 15.4229 19.3508C16.6616 19.9527 18.0446 20.1941 19.414 20.0472C20.7834 19.9004 22.0839 19.3712 23.1667 18.5202C22.2923 17.8341 21.5855 16.9579 21.0997 15.9582C20.614 14.9585 20.3621 13.8613 20.3631 12.7498Z" fill="#FF0015"/>
<path d="M35.0419 12.7497C35.0419 14.1271 34.6544 15.4767 33.9236 16.6442C33.1928 17.8117 32.1483 18.75 30.9094 19.3519C29.6705 19.9538 28.2873 20.195 26.9178 20.0479C25.5483 19.9009 24.2478 19.3714 23.165 18.5202C24.039 17.8333 24.7456 16.957 25.2315 15.9572C25.7174 14.9574 25.9698 13.8603 25.9698 12.7488C25.9698 11.6372 25.7174 10.5401 25.2315 9.54034C24.7456 8.54057 24.039 7.66421 23.165 6.97737C24.2478 6.1261 25.5483 5.59666 26.9178 5.44957C28.2873 5.30248 29.6705 5.54368 30.9094 6.14559C32.1483 6.7475 33.1928 7.68584 33.9236 8.85335C34.6544 10.0209 35.0419 11.3704 35.0419 12.7478V12.7497Z" fill="#FF9200"/>
<path d="M34.3414 17.2959V17.0595H34.439V17.0107H34.1968V17.0595H34.3003V17.2959H34.3414ZM34.8122 17.2959V17.0107H34.7389L34.653 17.2148L34.568 17.0107H34.5025V17.2959H34.5553V17.082L34.6344 17.2676H34.6901L34.7692 17.082V17.2979L34.8122 17.2959Z" fill="#FF9200"/>
</g>
<defs>
<clipPath id="clip0_1_13563">
<rect width="35.9225" height="18.4744" fill="white" transform="translate(4.8042 5.40759)"/>
</clipPath>
</defs>
</svg>
