<svg width="18" height="17" viewBox="0 0 18 17" fill="none" xmlns="http://www.w3.org/2000/svg">
<g id="Icons / 16px" clip-path="url(#clip0_2_2981)">
<path id="Vector" d="M13.8191 9.17423L14.6265 10.1869C14.7876 10.3881 14.8886 10.6307 14.9178 10.8868C14.9471 11.1429 14.9035 11.402 14.7919 11.6344C14.6804 11.8668 14.5055 12.0629 14.2874 12.2002C14.0693 12.3376 13.8168 12.4105 13.5591 12.4107H4.19868C3.94093 12.4105 3.68847 12.3376 3.47036 12.2002C3.25225 12.0629 3.07735 11.8668 2.96582 11.6344C2.85428 11.402 2.81064 11.1429 2.83991 10.8868C2.86918 10.6307 2.97017 10.3881 3.13127 10.1869L3.93867 9.17423C4.03526 9.05385 4.08831 8.90434 4.0892 8.75V6.45096C4.07118 5.18207 4.54351 3.95517 5.40775 3.02592C6.27199 2.09667 7.46147 1.53676 8.72834 1.46286C9.36988 1.44269 10.0089 1.55167 10.6075 1.78332C11.2061 2.01498 11.7521 2.36458 12.2129 2.81137C12.6737 3.25816 13.04 3.79301 13.2901 4.38416C13.5402 4.9753 13.6689 5.61067 13.6685 6.25253V8.75C13.6694 8.90434 13.7225 9.05385 13.8191 9.17423V9.17423Z" stroke="black" stroke-width="1.02636" stroke-linecap="round" stroke-linejoin="round"/>
<path id="Vector_2" d="M11.616 12.4107C11.616 13.1366 11.3276 13.8327 10.8144 14.346C10.3011 14.8593 9.60493 15.1476 8.87905 15.1476C8.15316 15.1476 7.457 14.8593 6.94373 14.346C6.43045 13.8327 6.14209 13.1366 6.14209 12.4107" stroke="black" stroke-width="1.02636" stroke-linecap="round" stroke-linejoin="round"/>
</g>
<defs>
<clipPath id="clip0_2_2981">
<rect width="16.4217" height="16.4217" fill="white" transform="translate(0.667969 0.0943909)"/>
</clipPath>
</defs>
</svg>
