<svg width="17" height="18" viewBox="0 0 17 18" fill="none" xmlns="http://www.w3.org/2000/svg">
<path d="M12.0686 4.57843C12.7321 5.02683 13.3034 5.59821 13.7518 6.26166C13.9783 6.58915 14.1687 6.94015 14.3198 7.30854C14.4795 7.68072 14.601 8.06817 14.6824 8.46491C14.8466 9.28239 14.8466 10.1244 14.6824 10.9419C14.601 11.3386 14.4795 11.726 14.3198 12.0982C14.1661 12.4524 13.9757 12.7895 13.7518 13.104C13.3034 13.7675 12.7321 14.3389 12.0686 14.7873C11.7411 15.0137 11.3901 15.2041 11.0217 15.3552C10.6495 15.5149 10.2621 15.6364 9.86536 15.7178C9.04787 15.8821 8.20589 15.8821 7.38841 15.7178C6.99167 15.6364 6.60423 15.5149 6.23205 15.3552C5.87786 15.2015 5.54074 15.0112 5.22622 14.7873C4.89745 14.5688 4.59244 14.3166 4.31618 14.0346C4.02593 13.7529 3.76672 13.441 3.54299 13.104C3.31654 12.7766 3.12613 12.4256 2.97507 12.0572C2.81534 11.685 2.69384 11.2975 2.61242 10.9008C2.4482 10.0833 2.4482 9.24133 2.61242 8.42385C2.69517 8.0341 2.81665 7.6536 2.97507 7.28802C3.12745 6.92673 3.31782 6.58267 3.54299 6.26166C3.76145 5.93289 4.01371 5.62788 4.29565 5.35162C4.57732 5.06138 4.88929 4.80216 5.22622 4.57843" stroke="#333333" stroke-width="1.02636" stroke-linecap="round" stroke-linejoin="round"/>
<path d="M8.64746 2.15625V8.99864" stroke="#333333" stroke-width="1.02636" stroke-linecap="round" stroke-linejoin="round"/>
</svg>
