<svg width="32" height="31" viewBox="0 0 32 31" fill="none" xmlns="http://www.w3.org/2000/svg">
<g id="EUROMILLONES 1">
<path id="Path 447" d="M31.3167 15.0647H25.225C25.225 12.6839 24.2449 10.4006 22.5003 8.71708C20.7558 7.03358 18.3896 6.08781 15.9224 6.08781C13.4552 6.08781 11.089 7.03358 9.34446 8.71708C7.59988 10.4006 6.61979 12.6839 6.61979 15.0647H0.524902C0.524902 11.1247 2.14685 7.34605 5.03395 4.56005C7.92104 1.77404 11.8368 0.208878 15.9197 0.208878C20.0027 0.208878 23.9185 1.77404 26.8055 4.56005C29.6926 7.34605 31.3146 11.1247 31.3146 15.0647" fill="#003A8A"/>
<path id="Path 448" d="M15.9196 31.0011C11.8384 30.9964 7.92575 29.4297 5.03999 26.6448C2.15422 23.8599 0.530987 20.0841 0.526367 16.1458H6.61966C6.63818 18.515 7.62646 20.781 9.36907 22.45C11.1117 24.1189 13.4673 25.0555 15.9225 25.0555C18.3777 25.0555 20.7334 24.1189 22.476 22.45C24.2186 20.781 25.2069 18.515 25.2254 16.1458H31.3171C31.3122 20.0839 29.6889 23.8594 26.8031 26.6441C23.9174 29.4288 20.0049 30.9954 15.9239 31.0001" fill="#003A8A"/>
<path id="Path 449" d="M15.9208 7.92694C14.347 7.92694 12.8085 8.3773 11.4999 9.22106C10.1913 10.0648 9.17138 11.2641 8.5691 12.6672C7.96683 14.0703 7.80924 15.6143 8.11628 17.1038C8.42332 18.5933 9.18119 19.9616 10.2941 21.0355C11.4069 22.1094 12.8248 22.8407 14.3684 23.137C15.912 23.4333 17.5119 23.2812 18.966 22.7C20.42 22.1188 21.6628 21.1346 22.5371 19.8719C23.4115 18.6091 23.8782 17.1245 23.8782 15.6057C23.8758 13.5699 23.0367 11.6181 21.5449 10.1785C20.0531 8.73899 18.0305 7.92924 15.9208 7.92694ZM15.9208 22.354C14.9341 22.3541 13.9586 22.1528 13.0583 21.7632C12.158 21.3736 11.3534 20.8045 10.6972 20.0934C10.041 19.3824 9.54825 18.5453 9.2512 17.6374C8.95414 16.7294 8.85956 15.7711 8.97366 14.8254C9.08776 13.8796 9.40796 12.9679 9.91322 12.1501C10.4185 11.3323 11.0974 10.6269 11.9053 10.0803C12.7131 9.53369 13.6317 9.15825 14.6007 8.97865C15.5697 8.79905 16.567 8.81935 17.5273 9.03821C16.4172 8.82422 15.2643 9.03111 14.3081 9.61591C13.3519 10.2007 12.6659 11.1185 12.3925 12.1786C12.1191 13.2387 12.2795 14.3596 12.8402 15.3087C13.4009 16.2577 14.3188 16.9618 15.4034 17.2748C16.488 17.5878 17.6559 17.4857 18.6645 16.9895C19.6731 16.4934 20.4448 15.6414 20.8195 14.6105C21.1941 13.5796 21.1429 12.4491 20.6764 11.4537C20.2099 10.4584 19.364 9.67465 18.3144 9.26536C19.8589 9.80846 21.1557 10.8592 21.9772 12.2332C22.7988 13.6071 23.0925 15.2164 22.8068 16.7785C22.5211 18.3406 21.6743 19.7557 20.4151 20.7753C19.1558 21.7949 17.5646 22.3538 15.9208 22.354ZM17.4982 9.31232C17.9173 9.31232 18.327 9.43225 18.6755 9.65695C19.024 9.88164 19.2956 10.201 19.456 10.5747C19.6164 10.9483 19.6583 11.3595 19.5766 11.7561C19.4948 12.1528 19.293 12.5172 18.9966 12.8032C18.7003 13.0892 18.3227 13.2839 17.9116 13.3628C17.5006 13.4417 17.0745 13.4012 16.6873 13.2464C16.3001 13.0917 15.9691 12.8296 15.7363 12.4933C15.5034 12.157 15.3791 11.7617 15.3791 11.3572C15.3791 10.8149 15.6024 10.2947 15.9998 9.91126C16.3972 9.52777 16.9362 9.31232 17.4982 9.31232Z" fill="#003A8A"/>
</g>
</svg>
