<svg width="18" height="18" viewBox="0 0 18 18" fill="none" xmlns="http://www.w3.org/2000/svg">
<path d="M10.9316 8.41339H15.0371V4.30795" stroke="black" stroke-width="1.02636" stroke-linecap="round" stroke-linejoin="round"/>
<path d="M15.037 8.33126C15.037 8.33126 14.9959 8.2423 14.9138 8.09861C14.8317 7.95492 14.7085 7.73597 14.5443 7.4828C14.3801 7.22963 14.1885 6.93541 13.9559 6.62066C13.7232 6.30591 13.4564 5.93642 13.1553 5.63535C12.8455 5.28442 12.5141 4.95307 12.1632 4.64321C11.7982 4.32331 11.4068 4.03489 10.9931 3.78107C10.5779 3.5233 10.1319 3.31871 9.6657 3.17209C9.19046 3.01831 8.69409 2.93982 8.19459 2.93945C7.86998 2.9409 7.54649 2.97761 7.22981 3.04893C6.91952 3.11764 6.61859 3.22331 6.33346 3.36368C6.04603 3.49985 5.77321 3.66492 5.51922 3.85633C5.26965 4.06186 5.0405 4.291 4.83498 4.54057C4.60619 4.7769 4.40214 5.03597 4.226 5.31376C4.04921 5.6047 3.9003 5.91169 3.78125 6.23064" stroke="black" stroke-width="1.02636" stroke-linecap="round" stroke-linejoin="round"/>
<path d="M6.82614 9.78186H2.7207V13.8873" stroke="black" stroke-width="1.02636" stroke-linecap="round" stroke-linejoin="round"/>
<path d="M2.7207 9.86395C2.7207 9.86395 2.76176 9.9529 2.84387 10.0966C2.92597 10.2403 3.04914 10.4592 3.21336 10.7124C3.37757 10.9656 3.56916 11.2598 3.8018 11.5745C4.03444 11.8893 4.30129 12.2588 4.60236 12.5599C4.91222 12.9108 5.24358 13.2421 5.59451 13.552C5.95948 13.8719 6.35089 14.1603 6.76455 14.4141C7.17979 14.6719 7.62575 14.8765 8.09198 15.0231C8.56722 15.1769 9.06359 15.2554 9.56309 15.2558C9.8877 15.2543 10.2112 15.2176 10.5279 15.1463C10.8382 15.0776 11.1391 14.9719 11.4242 14.8315C11.7116 14.6954 11.9845 14.5303 12.2385 14.3389C12.488 14.1334 12.7172 13.9042 12.9227 13.6546C13.1431 13.4105 13.338 13.1446 13.5043 12.8609C13.6811 12.57 13.83 12.263 13.9491 11.944" stroke="black" stroke-width="1.02636" stroke-linecap="round" stroke-linejoin="round"/>
</svg>
