<svg width="71" height="29" viewBox="0 0 71 29" fill="none" xmlns="http://www.w3.org/2000/svg">
<rect x="0.650879" y="0.224731" width="69.7924" height="28.738" rx="4.10543" fill="white"/>
<g clip-path="url(#clip0_1_13571)">
<path d="M8.76692 16.4816C9.55989 16.4814 10.335 16.2453 10.9942 15.8031C11.6535 15.3609 12.1672 14.7326 12.4705 13.9974C12.7739 13.2623 12.8531 12.4534 12.6983 11.6731C12.5435 10.8928 12.1615 10.176 11.6007 9.61351C11.04 9.05098 10.3255 8.66792 9.54776 8.51278C8.77001 8.35763 7.96387 8.43736 7.23128 8.74188C6.49869 9.0464 5.87254 9.56205 5.43201 10.2236C4.99148 10.8852 4.75635 11.6629 4.75635 12.4586C4.75635 12.987 4.86009 13.5102 5.06165 13.9984C5.26322 14.4865 5.55865 14.9301 5.93108 15.3036C6.30351 15.6772 6.74564 15.9735 7.23222 16.1757C7.7188 16.3778 8.24029 16.4817 8.76692 16.4816Z" fill="#0082CA"/>
<path d="M8.12901 12.7549H8.8185C8.98181 12.7403 9.14618 12.7668 9.29669 12.832C9.36431 12.8717 9.42076 12.928 9.46073 12.9956C9.50069 13.0632 9.52287 13.1399 9.52518 13.2185C9.526 13.2998 9.50733 13.3801 9.47073 13.4527C9.43414 13.5252 9.38069 13.5879 9.31489 13.6354C9.14943 13.7144 8.96512 13.745 8.78311 13.7237H8.12901V12.7549ZM8.12901 11.1603H8.69617C8.87758 11.1409 9.06103 11.161 9.23401 11.2191C9.29653 11.2568 9.34811 11.3102 9.38359 11.3741C9.41908 11.438 9.43722 11.5102 9.43621 11.5833C9.4373 11.6527 9.42267 11.7215 9.39342 11.7844C9.36418 11.8473 9.32108 11.9027 9.26737 11.9465C9.11579 12.0301 8.94145 12.0629 8.76997 12.0398H8.13305L8.12901 11.1603ZM7.19385 10.4502V14.4733H8.98834C9.34565 14.5119 9.70597 14.4359 10.0175 14.2562C10.1624 14.1598 10.2825 14.0305 10.368 13.8787C10.4536 13.7269 10.5022 13.557 10.5099 13.3828C10.5148 13.1427 10.4329 12.909 10.2794 12.7248C10.1259 12.5405 9.91116 12.4183 9.6748 12.3806V12.3684C9.87715 12.332 10.0603 12.2254 10.1923 12.0673C10.3242 11.9091 10.3966 11.7094 10.3966 11.5032C10.4009 11.3253 10.3574 11.1496 10.2706 10.9945C10.1837 10.8394 10.0569 10.7106 9.90328 10.6217C9.62065 10.4753 9.30186 10.414 8.98531 10.4452L7.19385 10.4502Z" fill="white"/>
<path d="M64.1725 20.5857H66.338V10.4419H64.1725V20.5857ZM60.9313 20.5857H63.0978V10.4419H60.9313V20.5857ZM55.1556 15.9196C55.2294 15.0624 55.5974 14.3523 56.5548 14.3523C57.5122 14.3523 57.7679 15.106 57.8074 15.9196H55.1556ZM59.9739 17.2058C60.0409 16.168 59.7722 15.1362 59.2076 14.2641C58.8856 13.8427 58.4704 13.5021 57.9948 13.2694C57.5191 13.0367 56.996 12.9181 56.4668 12.9231C54.1415 12.9231 52.8273 14.7124 52.8273 16.9299C52.7929 17.4303 52.8643 17.9324 53.0367 18.4033C53.2091 18.8742 53.4787 19.3032 53.8278 19.6623C54.1769 20.0214 54.5977 20.3025 55.0626 20.4871C55.5275 20.6718 56.026 20.7558 56.5254 20.7338C57.3016 20.7559 58.0619 20.5116 58.6809 20.0412C59.2998 19.5709 59.7403 18.9027 59.9294 18.1471L57.9267 17.995C57.902 18.3264 57.7498 18.6352 57.5022 18.8559C57.2547 19.0767 56.9312 19.1921 56.6003 19.1777C56.3962 19.1789 56.1942 19.1366 56.0076 19.0538C55.821 18.971 55.654 18.8494 55.5176 18.6971C55.3813 18.5448 55.2786 18.3653 55.2163 18.1703C55.1541 17.9753 55.1337 17.7693 55.1566 17.5659L55.1707 17.1967L59.9739 17.2058ZM49.8509 17.4574C49.8761 17.837 49.8102 18.2172 49.6588 18.5661C49.5695 18.7421 49.4353 18.8912 49.2697 18.9982C49.1042 19.1051 48.9133 19.166 48.7166 19.1747C47.6399 19.1747 47.5226 17.8002 47.5226 16.9877C47.5226 16.0849 47.5671 14.4588 48.8046 14.4588C49.7923 14.4588 49.8509 15.7004 49.8509 16.4257V17.4574ZM52.0165 20.5908V10.447H49.8509V13.8746C49.6565 13.5585 49.3789 13.3024 49.0487 13.1346C48.7186 12.9667 48.3486 12.8935 47.9796 12.9231C45.7989 12.9231 45.2388 15.1263 45.2388 16.9147C45.2388 18.6584 45.8282 20.7287 47.9351 20.7287C48.3595 20.7314 48.7751 20.6075 49.1292 20.3727C49.4833 20.1379 49.7598 19.8028 49.9237 19.41H49.9541V20.5776L52.0165 20.5908ZM42.218 17.2849C42.2767 17.7872 42.1736 18.2952 41.9238 18.7345C41.8085 18.9214 41.6481 19.0763 41.4575 19.1848C41.2669 19.2933 41.0521 19.3519 40.833 19.3553C40.7027 19.3626 40.5724 19.3417 40.4509 19.2941C40.3293 19.2465 40.2195 19.1732 40.1286 19.0792C40.0378 18.9852 39.9682 18.8727 39.9246 18.7493C39.8809 18.626 39.8642 18.4946 39.8756 18.3642C39.8756 17.2707 41.392 17.079 42.218 16.9897V17.2849ZM44.5756 20.5816C44.4676 20.2175 44.4178 19.8385 44.428 19.4587V15.9581C44.428 15.0573 44.5018 14.2337 43.7355 13.6078C43.0372 13.1329 42.2057 12.8947 41.3627 12.9281C39.7866 12.9281 38.0184 13.4607 37.797 15.2795L39.8462 15.4702C39.8462 14.7317 40.4528 14.3767 41.1423 14.3767C41.3067 14.3673 41.4711 14.3943 41.6239 14.4556C41.7768 14.517 41.9143 14.6112 42.0269 14.7317C42.1992 15.031 42.2665 15.3796 42.218 15.7217V15.8993C41.2155 15.9367 40.2212 16.0958 39.2568 16.373C38.7748 16.5141 38.351 16.8075 38.0483 17.2095C37.7456 17.6116 37.5802 18.1008 37.5766 18.6046C37.57 18.9064 37.6283 19.206 37.7476 19.4831C37.8669 19.7603 38.0443 20.0083 38.2678 20.2104C38.4913 20.4125 38.7555 20.5638 39.0426 20.6541C39.3296 20.7445 39.6327 20.7716 39.9312 20.7338C40.4113 20.7545 40.8878 20.6425 41.3087 20.4099C41.7297 20.1774 42.0788 19.8332 42.3181 19.4151C42.301 19.807 42.335 20.1995 42.4192 20.5827L44.5756 20.5816ZM30.2985 20.5816H31.4773C31.5686 20.1709 31.7334 19.7801 31.9636 19.4283C32.1441 19.8388 32.4456 20.184 32.8275 20.4174C33.2095 20.6508 33.6535 20.7612 34.0998 20.7338C36.3543 20.7338 37.1328 18.7973 37.1328 16.8315C37.1328 15.0573 36.4847 12.9281 34.3485 12.9281C33.9696 12.9055 33.5926 12.9977 33.2666 13.1929C32.9406 13.3881 32.6807 13.6773 32.5207 14.0227H32.462V10.4439H30.2985V20.5816ZM32.4934 16.3537C32.4934 15.5554 32.641 14.4173 33.6873 14.4173C34.8803 14.4173 34.8803 15.9845 34.8803 16.8274C34.8803 17.6389 34.8803 19.2072 33.658 19.2072C33.4744 19.2086 33.2937 19.1615 33.134 19.0707C32.9743 18.9799 32.8412 18.8486 32.7481 18.6898C32.5488 18.3028 32.4619 17.8672 32.4974 17.433L32.4934 16.3537ZM26.8895 17.2849C26.9484 17.7873 26.8449 18.2955 26.5943 18.7345C26.4793 18.9215 26.3191 19.0764 26.1286 19.1849C25.9381 19.2934 25.7235 19.352 25.5044 19.3553C25.3741 19.3627 25.2437 19.342 25.122 19.2944C25.0004 19.2469 24.8904 19.1736 24.7994 19.0796C24.7085 18.9855 24.6388 18.873 24.5951 18.7496C24.5514 18.6261 24.5346 18.4947 24.546 18.3642C24.546 17.2707 26.0625 17.079 26.8895 16.9897V17.2849ZM29.2471 20.5816C29.1391 20.2175 29.0893 19.8385 29.0995 19.4587V15.9581C29.0995 15.0573 29.1733 14.2337 28.407 13.6078C27.7086 13.1329 26.8771 12.8947 26.0342 12.9281C24.4581 12.9281 22.6899 13.4607 22.4684 15.2795L24.5167 15.4702C24.5167 14.7317 25.1233 14.3767 25.8138 14.3767C25.978 14.3673 26.1423 14.3942 26.295 14.4555C26.4477 14.5169 26.585 14.6112 26.6974 14.7317C26.8705 15.0307 26.9381 15.3795 26.8895 15.7217V15.8993C25.8867 15.9367 24.892 16.0957 23.9273 16.373C23.4453 16.5141 23.0214 16.8075 22.7187 17.2095C22.4161 17.6116 22.2506 18.1008 22.247 18.6046C22.2404 18.9068 22.2988 19.2069 22.4183 19.4844C22.5378 19.7618 22.7156 20.0102 22.9395 20.2124C23.1634 20.4146 23.4282 20.566 23.7157 20.6561C24.0033 20.7463 24.3068 20.7731 24.6057 20.7348C25.0856 20.7548 25.5619 20.6425 25.9827 20.41C26.4035 20.1775 26.7528 19.8338 26.9926 19.4161C26.9745 19.8081 27.0085 20.2007 27.0937 20.5837L29.2471 20.5816ZM21.4372 12.6695C20.8236 10.9176 19.3789 10.2958 17.6117 10.2958C16.6945 10.2537 15.7935 10.5484 15.0771 11.1246C14.7284 11.4131 14.4492 11.777 14.2604 12.1891C14.0717 12.6012 13.9783 13.0509 13.9873 13.5043C13.9873 15.7217 15.7555 16.2543 17.552 16.6235C18.1718 16.7574 19.3213 16.9197 19.3213 17.7617C19.3213 18.6036 18.4215 18.8572 17.7441 18.8572C17.2785 18.9208 16.8058 18.8096 16.4169 18.5449C16.028 18.2801 15.7504 17.8805 15.6372 17.4229L13.4565 17.925C13.9135 19.9061 15.6372 20.7338 17.5379 20.7338C18.5791 20.7868 19.6089 20.496 20.4697 19.9061C20.8569 19.6052 21.1709 19.2199 21.3877 18.7793C21.6046 18.3387 21.7186 17.8544 21.7213 17.363C21.7212 16.8838 21.5994 16.4124 21.3676 15.9934C21.1357 15.5744 20.8013 15.2216 20.3959 14.9681C19.5717 14.533 18.6792 14.2431 17.7573 14.1109C17.183 14.0095 16.2994 13.8299 16.2994 13.0904C16.2994 12.3073 17.0647 12.144 17.6986 12.144C18.0834 12.102 18.4704 12.1997 18.7895 12.4195C19.1085 12.6393 19.3384 12.9666 19.4375 13.342L21.4372 12.6695Z" fill="#1E120D"/>
</g>
<defs>
<clipPath id="clip0_1_13571">
<rect width="61.5815" height="18.4744" fill="white" transform="translate(4.75635 5.35651)"/>
</clipPath>
</defs>
</svg>
