<svg width="68" height="29" viewBox="0 0 68 29" fill="none" xmlns="http://www.w3.org/2000/svg">
<rect x="0.621094" y="0.224731" width="66.7133" height="28.738" rx="4.10543" fill="#FF0000"/>
<g clip-path="url(#clip0_1_13570)">
<path d="M63.3682 14.1197C63.3866 14.4386 63.3572 14.7585 63.2812 15.0687C63.0006 14.9923 62.7094 14.9629 62.4192 14.9817C62.1602 14.9817 61.9022 15.0687 61.6432 15.0687V19.3805H60.5223V14.3807C61.1336 14.1669 61.7747 14.0505 62.4222 14.0357C62.741 14.0176 63.0608 14.0465 63.3712 14.1217M55.8715 16.2776H58.4584C58.4689 16.105 58.4426 15.932 58.3813 15.7703C58.32 15.6085 58.2251 15.4616 58.1027 15.3393C57.9804 15.217 57.8335 15.1221 57.6718 15.0608C57.51 14.9994 57.3371 14.9732 57.1644 14.9837C56.3885 14.9837 55.9575 15.415 55.8715 16.2776ZM59.4933 17.2266H55.9515C56.0375 18.1756 56.5515 18.6065 57.5904 18.6065C58.2179 18.5854 58.8346 18.4374 59.4033 18.1716C59.3036 18.5082 59.2455 18.8558 59.2303 19.2065C58.7174 19.4436 58.1574 19.5616 57.5924 19.5515C57.2143 19.6018 56.8297 19.5658 56.4674 19.4462C56.1052 19.3266 55.7748 19.1265 55.5009 18.8609C55.2271 18.5954 55.017 18.2712 54.8863 17.9128C54.7556 17.5544 54.7079 17.1711 54.7465 16.7916C54.7465 15.2387 55.5225 14.0317 57.2464 14.0317C57.5599 14.0007 57.8764 14.0397 58.1731 14.1458C58.4697 14.252 58.739 14.4227 58.9617 14.6456C59.1843 14.8685 59.3547 15.1381 59.4604 15.4348C59.5662 15.7316 59.6048 16.0482 59.5733 16.3616C59.5733 16.7066 59.4873 16.9616 59.4873 17.2246M52.7606 18.2596V15.0717C52.5016 15.0717 52.1606 14.9847 51.8986 14.9847C50.7777 14.9847 50.2597 15.6747 50.2597 16.8846C50.2597 17.9196 50.6907 18.6095 51.6397 18.6095C52.0357 18.5869 52.4204 18.4685 52.7606 18.2646M53.8816 12.3138V19.3855H52.8466L52.7606 18.7855C52.6131 19.0389 52.3976 19.246 52.1386 19.3833C51.8795 19.5206 51.5872 19.5827 51.2947 19.5625C50.0007 19.5625 49.1388 18.5275 49.1388 16.8886C49.0868 16.5093 49.1218 16.1232 49.241 15.7594C49.3602 15.3956 49.5605 15.0637 49.8269 14.7887C50.0932 14.5137 50.4185 14.3029 50.7783 14.1721C51.1381 14.0413 51.5229 13.994 51.9036 14.0337C52.2486 14.0337 52.5036 14.1197 52.7656 14.1197V12.4808C53.1216 12.3401 53.5047 12.2814 53.8866 12.3088M48.1948 16.0166V19.3805H47.0688V16.1896C47.0688 15.4137 46.8108 14.9817 45.6889 14.9817C45.4309 14.9817 45.1719 15.0687 44.8269 15.0687V19.3805H43.704V14.3807C44.3789 14.1888 45.0732 14.0731 45.7739 14.0357C47.5848 14.0357 48.1878 14.8117 48.1878 16.0186M41.3751 18.2616V15.0717C41.1171 15.0717 40.8581 14.9847 40.5991 14.9847C39.3922 14.9847 38.8742 15.7617 38.8742 16.8846C38.8742 17.9196 39.3062 18.6095 40.2541 18.6095C40.6581 18.642 41.0592 18.5186 41.3751 18.2646M42.497 14.3837V19.3835H41.4641L41.3771 18.7835C41.2406 19.0271 41.0398 19.2283 40.7965 19.3654C40.5533 19.5024 40.2771 19.5699 39.9981 19.5605C38.6182 19.5605 37.7552 18.5255 37.7552 16.8866C37.7061 16.5006 37.746 16.1085 37.8717 15.7403C37.9974 15.3721 38.2058 15.0375 38.4807 14.7622C38.7556 14.4869 39.0899 14.2781 39.458 14.1518C39.826 14.0256 40.218 13.9852 40.6041 14.0337C41.2546 14.0142 41.9019 14.1318 42.504 14.3787M36.4673 18.6045C36.7904 18.5972 37.1103 18.5388 37.4152 18.4315C37.3292 18.6905 37.3292 19.0315 37.2432 19.3805C36.9378 19.4872 36.6177 19.5455 36.2943 19.5535C36.0609 19.5823 35.8239 19.5576 35.6015 19.4811C35.3791 19.4046 35.1771 19.2784 35.0108 19.1121C34.8445 18.9458 34.7183 18.7437 34.6418 18.5213C34.5653 18.2989 34.5405 18.062 34.5693 17.8286V12.4808C34.9061 12.3818 35.2536 12.3241 35.6043 12.3088V14.2087H37.4152C37.4152 14.5537 37.3292 14.8987 37.3292 15.1577H35.5993V17.6576C35.5993 18.3476 35.9443 18.6065 36.4623 18.6065M33.4434 16.0186V19.3825H32.3224V16.1896C32.3224 15.4137 32.0645 14.9817 30.9425 14.9817C30.6845 14.9817 30.3425 15.0687 29.9945 15.0687V19.3805H28.8736V14.3807C29.5511 14.2022 30.2437 14.0867 30.9425 14.0357C32.8424 14.0357 33.4434 14.8117 33.4434 16.0186ZM26.5427 18.2616V15.0717C26.3707 15.0717 26.1117 14.9847 25.7667 14.9847C25.5226 14.9762 25.2796 15.021 25.0546 15.116C24.8295 15.211 24.6279 15.3539 24.4637 15.5347C24.2995 15.7155 24.1767 15.93 24.1039 16.1631C24.031 16.3963 24.0098 16.6425 24.0418 16.8846C24.0418 17.9196 24.4728 18.6095 25.5077 18.6095C25.6946 18.6257 25.8829 18.6034 26.0609 18.5441C26.2389 18.4848 26.4028 18.3896 26.5427 18.2646M27.6636 14.3837V19.3835H26.6307V18.7835C26.4673 19.0219 26.2486 19.217 25.9933 19.3524C25.738 19.4877 25.4537 19.5591 25.1647 19.5605C23.8718 19.5605 22.9228 18.5255 22.9228 16.8866C22.875 16.5014 22.9157 16.1104 23.0418 15.7434C23.1679 15.3763 23.3761 15.0429 23.6505 14.7684C23.925 14.494 24.2584 14.2858 24.6255 14.1597C24.9925 14.0336 25.3835 13.9929 25.7687 14.0407C26.4203 14.0045 27.0713 14.1227 27.6686 14.3857M17.579 19.2155C17.5869 18.864 17.6451 18.5155 17.752 18.1806C18.3564 18.4198 19.0021 18.5371 19.652 18.5255C20.6009 18.5255 21.1179 18.2666 21.1179 17.6626C21.1179 17.0586 20.6869 16.8006 19.738 16.3686L19.221 16.1966C18.7702 16.071 18.3735 15.8 18.0927 15.4256C17.8118 15.0513 17.6625 14.5947 17.668 14.1267C17.668 13.0058 18.445 12.2268 20.0829 12.2268C20.6965 12.2158 21.3079 12.3033 21.8939 12.4858C21.8934 12.8378 21.8353 13.1875 21.7219 13.5207C21.1905 13.3575 20.6387 13.2703 20.0829 13.2618C19.221 13.2618 18.79 13.6067 18.79 14.1247C18.79 14.6427 19.134 14.9867 19.9109 15.2457L20.4279 15.5047C21.7219 16.0216 22.2389 16.6256 22.2389 17.5746C22.2389 18.7815 21.3769 19.5585 19.652 19.5585C18.9448 19.6001 18.2374 19.4822 17.582 19.2135M12.4942 14.2137C12.4317 13.8259 12.3156 13.4486 12.1493 13.0928L10.4183 10.1519C10.318 9.92749 10.2319 9.69705 10.1603 9.46191V9.63491C9.94828 9.98612 9.83621 10.3886 9.83621 10.7989C9.83621 11.2091 9.94828 11.6116 10.1603 11.9628L11.4533 14.2917C11.6648 14.6433 11.7766 15.0459 11.7766 15.4562C11.7766 15.8665 11.6648 16.269 11.4533 16.6206L11.3673 16.7936C11.361 16.5145 11.2707 16.2437 11.1083 16.0166L9.90535 13.8607L9.12538 12.5718C8.96289 12.3451 8.87262 12.0747 8.86639 11.7958L8.7804 11.9678C8.56825 12.3192 8.45613 12.7218 8.45613 13.1323C8.45613 13.5427 8.56825 13.9454 8.7804 14.2967L10.1603 16.6256C10.3304 16.9903 10.4185 17.3877 10.4185 17.7901C10.4185 18.1924 10.3304 18.5899 10.1603 18.9545L10.0733 19.1265C10.0015 18.8915 9.91531 18.6611 9.81536 18.4365L8.09043 15.4997C7.85665 15.1091 7.73713 14.6608 7.74544 14.2057C5.93451 14.6367 4.72656 15.6717 4.72656 16.7936C4.72656 18.4315 7.14146 19.7255 10.1603 19.7255C13.0922 19.7255 15.5061 18.4315 15.5061 16.7936C15.5061 15.6717 14.2992 14.6367 12.4882 14.2057" fill="white"/>
</g>
<defs>
<clipPath id="clip0_1_13570">
<rect width="58.5024" height="18.4744" fill="white" transform="translate(4.72656 5.35651)"/>
</clipPath>
</defs>
</svg>
