<svg width="26" height="25" viewBox="0 0 26 25" fill="none" xmlns="http://www.w3.org/2000/svg">
<g id="Icons / 24px">
<path id="Vector" d="M12.5182 2.4582L5.01549 4.95225C4.60586 5.08821 4.2495 5.34982 3.99707 5.69991C3.74464 6.04999 3.60898 6.47073 3.60938 6.90234V10.6691C3.60831 12.5292 4.06685 14.3607 4.94423 16.0009C5.82161 17.641 7.09065 19.039 8.63853 20.0705L12.2821 22.4927C12.4497 22.6031 12.6459 22.6619 12.8466 22.6619C13.0473 22.6619 13.2435 22.6031 13.4111 22.4927L17.0547 20.0705C18.6026 19.039 19.8716 17.641 20.749 16.0009C21.6264 14.3607 22.0849 12.5292 22.0838 10.6691V6.90234C22.0842 6.47073 21.9486 6.04999 21.6961 5.69991C21.4437 5.34982 21.0873 5.08821 20.6777 4.95225L13.175 2.4582C12.962 2.38625 12.7312 2.38625 12.5182 2.4582V2.4582Z" stroke="black" stroke-width="1.53954" stroke-linecap="round" stroke-linejoin="round"/>
</g>
</svg>
