<svg width="66" height="30" viewBox="0 0 66 30" fill="none" xmlns="http://www.w3.org/2000/svg">
<rect x="0.439941" y="0.275818" width="64.6606" height="28.738" rx="4.10543" fill="white"/>
<g clip-path="url(#clip0_1_13565)">
<path fill-rule="evenodd" clip-rule="evenodd" d="M18.8819 16.5831C19.1193 16.787 19.3871 16.9524 19.6757 17.0732C19.9286 17.1831 20.2008 17.2416 20.4765 17.2456C20.6741 17.2554 20.8679 17.1886 21.0175 17.0591C21.0848 16.9936 21.1374 16.9145 21.1717 16.8271C21.2061 16.7396 21.2214 16.6459 21.2166 16.5521C21.2139 16.3553 21.1556 16.1634 21.0486 15.9984C20.8658 15.7286 20.6494 15.4832 20.4045 15.2682C20.089 14.9826 19.8206 14.6489 19.6093 14.2795C19.4634 13.9861 19.3893 13.6622 19.3932 13.3346C19.3772 12.9924 19.4346 12.6508 19.5615 12.3326C19.6884 12.0145 19.8819 11.7271 20.1291 11.4899C20.6814 11.0126 21.3972 10.7676 22.1262 10.8063C22.4541 10.8047 22.7809 10.8431 23.0994 10.9207C23.4245 11.0036 23.7395 11.1221 24.0387 11.2738L23.7152 13.2512C23.4941 13.0933 23.2546 12.9628 23.0019 12.8628C22.7904 12.7776 22.5648 12.7326 22.3367 12.7301C22.1751 12.72 22.0155 12.7703 21.8889 12.8713C21.8343 12.9226 21.7915 12.9852 21.7634 13.0547C21.7354 13.1242 21.7228 13.199 21.7265 13.2738C21.7265 13.5045 21.9356 13.827 22.3536 14.2413C22.4073 14.2922 22.4469 14.3317 22.4779 14.3628C22.8153 14.6665 23.0969 15.0269 23.3098 15.4278C23.4492 15.7523 23.5176 16.1029 23.5104 16.456C23.5303 16.8352 23.469 17.2144 23.3306 17.568C23.1923 17.9217 22.9801 18.2417 22.7082 18.5068C22.1006 19.0325 21.3126 19.3014 20.5104 19.2568C20.1292 19.2595 19.7493 19.212 19.3805 19.1156C19.063 19.0379 18.7614 18.9055 18.4893 18.7244L18.8819 16.5831ZM28.7095 17.0888H26.9807C26.9814 17.2627 26.9186 17.431 26.8042 17.5619C26.7449 17.6176 26.6748 17.6605 26.5983 17.688C26.5218 17.7154 26.4404 17.7268 26.3593 17.7215C26.2856 17.7276 26.2114 17.7182 26.1416 17.6938C26.0718 17.6695 26.0079 17.6308 25.9539 17.5803C25.8553 17.4572 25.8077 17.301 25.8211 17.1439C25.8211 17.0817 25.8211 17.0026 25.8338 16.8967C25.8465 16.7908 25.8607 16.6509 25.8819 16.473H28.8931C28.927 16.2357 28.9496 16.0224 28.9652 15.8317C28.9807 15.641 28.9878 15.4645 28.9878 15.3007C29.0013 15.0188 28.9534 14.7374 28.8473 14.4759C28.7412 14.2145 28.5795 13.9792 28.3734 13.7865C27.9113 13.3925 27.316 13.1903 26.7095 13.2216C26.3128 13.2076 25.9184 13.2874 25.5584 13.4545C25.1984 13.6217 24.8829 13.8714 24.6375 14.1834C24.0912 14.9234 23.8181 15.8298 23.8649 16.7484C23.8175 17.4237 24.0371 18.0907 24.4765 18.6057C24.7123 18.8299 24.9922 19.0024 25.2983 19.1123C25.6045 19.2223 25.9302 19.2671 26.2547 19.2441C26.8789 19.2764 27.4927 19.075 27.9765 18.6792C28.1977 18.476 28.3765 18.2309 28.5023 17.9582C28.6281 17.6854 28.6986 17.3904 28.7095 17.0902M26.0259 15.5168C26.0634 15.2524 26.16 15 26.3084 14.7781C26.3645 14.7039 26.4378 14.6445 26.5219 14.6049C26.6061 14.5653 26.6986 14.5467 26.7915 14.5507C26.858 14.5455 26.9249 14.5555 26.9871 14.58C27.0493 14.6044 27.105 14.6427 27.1502 14.6919C27.2382 14.8112 27.2808 14.9579 27.2703 15.1057C27.2703 15.1509 27.2703 15.199 27.2703 15.247C27.2703 15.295 27.2703 15.3882 27.2519 15.5097L26.0259 15.5168ZM29.0866 19.0789L29.9864 13.3897H31.9312L31.8041 14.1848C32.0113 13.9106 32.2717 13.6809 32.5697 13.5097C32.8551 13.3499 33.1716 13.2535 33.4976 13.2272L33.1812 15.2329H33.1375C32.7477 15.2018 32.3586 15.3011 32.0315 15.5153C31.7579 15.7888 31.5923 16.152 31.5654 16.5379L31.17 19.0803L29.0866 19.0789ZM33.8987 13.3897H35.9439L36.0612 16.8614L37.2773 13.3897H39.321L36.8097 19.0789H34.6163L33.8987 13.3897ZM38.7659 19.0789H40.8267L41.7278 13.3897H39.6657L38.7659 19.0789ZM42.1332 11.2272C42.1452 11.5981 42.0148 11.9594 41.7687 12.2371C41.654 12.367 41.5123 12.4702 41.3534 12.5395C41.1946 12.6088 41.0225 12.6425 40.8493 12.6382C40.7213 12.643 40.5938 12.6202 40.4754 12.5715C40.357 12.5227 40.2504 12.4492 40.1628 12.3558C39.9851 12.1541 39.8929 11.8912 39.9058 11.6227C39.8929 11.2494 40.0238 10.8854 40.2716 10.6058C40.3854 10.4749 40.5267 10.3708 40.6854 10.3007C40.8441 10.2306 41.0162 10.1964 41.1897 10.2004C41.3179 10.1951 41.4458 10.2176 41.5645 10.2664C41.6832 10.3151 41.79 10.389 41.8775 10.4829C42.0557 10.6887 42.1473 10.9554 42.1332 11.2272ZM44.7447 14.5846H44.8662C45.0146 14.5937 45.1632 14.5692 45.3009 14.513C45.4386 14.4568 45.5618 14.3702 45.6614 14.2597C45.865 13.9916 45.9652 13.6592 45.9439 13.3233C45.9517 13.2297 45.9399 13.1355 45.9093 13.0467C45.8786 12.958 45.8298 12.8766 45.7659 12.8077C45.6103 12.6838 45.4132 12.6242 45.2151 12.6411C45.1906 12.6397 45.1661 12.6397 45.1416 12.6411C45.1063 12.6411 45.0766 12.6411 45.054 12.6411L44.7447 14.5846ZM41.7603 19.0789H44.0286L44.5385 15.8021L45.0498 19.0789H47.4509L46.4495 15.5295C46.9568 15.4161 47.4016 15.1129 47.6924 14.682C47.9936 14.1923 48.1411 13.6236 48.1162 13.0493C48.147 12.7451 48.1008 12.438 47.9818 12.1564C47.8629 11.8748 47.6749 11.6276 47.4354 11.4377C46.6684 11.0532 45.8098 10.8894 44.9552 10.9645H43.0498L41.7603 19.0789ZM52.7206 17.0902C52.7099 17.3903 52.6398 17.6853 52.5142 17.958C52.3886 18.2308 52.2101 18.4759 51.989 18.6792C51.5053 19.075 50.8915 19.2764 50.2673 19.2441C49.9428 19.2671 49.617 19.2223 49.3109 19.1123C49.0047 19.0024 48.7248 18.8299 48.489 18.6057C48.0497 18.0907 47.8301 17.4237 47.8775 16.7484C47.8308 15.8298 48.1038 14.9234 48.6501 14.1834C48.8954 13.8714 49.2109 13.6217 49.5709 13.4545C49.931 13.2874 50.3254 13.2076 50.7221 13.2216C51.3285 13.1903 51.9239 13.3925 52.3859 13.7865C52.592 13.9792 52.7537 14.2145 52.8598 14.4759C52.9659 14.7374 53.0139 15.0188 53.0003 15.3007C53.0003 15.4645 52.9918 15.641 52.9777 15.8317C52.9636 16.0224 52.9396 16.2357 52.9057 16.473H49.893C49.8732 16.6509 49.8563 16.7922 49.8464 16.8967C49.8365 17.0012 49.8323 17.0817 49.8323 17.1439C49.8189 17.301 49.8664 17.4572 49.965 17.5803C50.0193 17.6307 50.0836 17.6693 50.1536 17.6936C50.2236 17.7179 50.2979 17.7274 50.3718 17.7215C50.4529 17.7268 50.5343 17.7153 50.6108 17.6878C50.6873 17.6604 50.7574 17.6175 50.8167 17.5619C50.9312 17.431 50.994 17.2627 50.9933 17.0888L52.7206 17.0902ZM50.0371 15.5168H51.2546C51.2673 15.3967 51.2729 15.3063 51.2743 15.254C51.2757 15.2018 51.2743 15.1509 51.2743 15.1128C51.2841 14.965 51.2416 14.8186 51.1543 14.699C51.1091 14.6498 51.0533 14.6115 50.9912 14.587C50.929 14.5626 50.8621 14.5525 50.7955 14.5577C50.7026 14.5537 50.6101 14.5723 50.526 14.6119C50.4419 14.6515 50.3686 14.711 50.3125 14.7851C50.1646 15.0073 50.0681 15.2597 50.03 15.5238M56.6528 15.6509C56.664 15.4768 56.6289 15.3029 56.5511 15.1467C56.52 15.0934 56.4748 15.0497 56.4205 15.0203C56.3662 14.9909 56.3049 14.977 56.2432 14.98C56.0379 14.98 55.8633 15.1552 55.7192 15.5055C55.5636 15.921 55.4902 16.3628 55.5031 16.8063C55.4906 16.98 55.5242 17.154 55.6006 17.3105C55.6321 17.3619 55.6771 17.4037 55.7305 17.4316C55.784 17.4594 55.8441 17.4723 55.9042 17.4687C56.1105 17.4687 56.2884 17.2922 56.4353 16.9405C56.5912 16.5289 56.6651 16.0908 56.6528 15.6509ZM56.1655 19.0859L56.2545 18.4588C56.0509 18.6954 55.8088 18.896 55.5384 19.052C55.3108 19.1738 55.0564 19.2369 54.7983 19.2357C54.5933 19.2441 54.3894 19.2014 54.2049 19.1114C54.0205 19.0214 53.8614 18.8869 53.7418 18.7201C53.4651 18.2869 53.3331 17.777 53.3647 17.2639C53.3283 16.2631 53.5641 15.2712 54.0469 14.3939C54.1979 14.0663 54.4357 13.7863 54.7345 13.5841C55.0332 13.382 55.3816 13.2654 55.7418 13.247C55.9838 13.2415 56.2223 13.3063 56.4282 13.4334C56.6484 13.5867 56.8301 13.7888 56.9593 14.0238L57.4452 10.9758H59.4904L58.2121 19.0775L56.1655 19.0859Z" fill="black"/>
<path d="M18.8819 16.5831C19.1193 16.787 19.3871 16.9524 19.6757 17.0732C19.9286 17.1831 20.2008 17.2416 20.4765 17.2456C20.6741 17.2554 20.8679 17.1886 21.0175 17.0591C21.0848 16.9936 21.1374 16.9145 21.1717 16.8271C21.2061 16.7396 21.2214 16.6459 21.2166 16.5521C21.2139 16.3553 21.1556 16.1634 21.0486 15.9984C20.8658 15.7286 20.6494 15.4832 20.4045 15.2682C20.089 14.9826 19.8206 14.6489 19.6093 14.2795C19.4634 13.9861 19.3893 13.6622 19.3932 13.3346C19.3772 12.9924 19.4346 12.6508 19.5615 12.3326C19.6884 12.0145 19.8819 11.7271 20.1291 11.4899C20.6814 11.0126 21.3972 10.7676 22.1262 10.8063C22.4541 10.8047 22.7809 10.8431 23.0994 10.9207C23.4245 11.0036 23.7395 11.1221 24.0387 11.2738L23.7152 13.2512C23.4941 13.0933 23.2546 12.9628 23.0019 12.8628C22.7904 12.7776 22.5648 12.7326 22.3367 12.7301C22.1751 12.72 22.0155 12.7703 21.889 12.8713C21.8343 12.9226 21.7915 12.9852 21.7634 13.0547C21.7354 13.1242 21.7228 13.199 21.7265 13.2738C21.7265 13.5045 21.9356 13.827 22.3536 14.2413C22.4073 14.2922 22.4469 14.3317 22.4779 14.3628C22.8153 14.6665 23.0969 15.0269 23.3098 15.4278C23.4492 15.7523 23.5176 16.1029 23.5104 16.456C23.5303 16.8352 23.469 17.2144 23.3306 17.568C23.1923 17.9217 22.9801 18.2417 22.7082 18.5068C22.1006 19.0325 21.3126 19.3014 20.5104 19.2568C20.1292 19.2595 19.7493 19.212 19.3805 19.1156C19.063 19.0379 18.7614 18.9055 18.4893 18.7244L18.8819 16.5831ZM28.7095 17.0888H26.9807C26.9814 17.2627 26.9186 17.431 26.8042 17.5619C26.7449 17.6176 26.6748 17.6605 26.5983 17.688C26.5218 17.7154 26.4404 17.7268 26.3593 17.7215C26.2856 17.7276 26.2114 17.7182 26.1416 17.6938C26.0718 17.6695 26.0079 17.6308 25.9539 17.5803C25.8553 17.4572 25.8077 17.301 25.8211 17.1439C25.8211 17.0817 25.8211 17.0026 25.8338 16.8967C25.8465 16.7908 25.8607 16.6509 25.8819 16.473H28.8931C28.927 16.2357 28.9496 16.0224 28.9652 15.8317C28.9807 15.641 28.9878 15.4645 28.9878 15.3007C29.0013 15.0188 28.9534 14.7374 28.8473 14.4759C28.7412 14.2145 28.5795 13.9792 28.3734 13.7865C27.9113 13.3925 27.316 13.1903 26.7095 13.2216C26.3128 13.2076 25.9184 13.2874 25.5584 13.4545C25.1984 13.6217 24.8829 13.8714 24.6375 14.1834C24.0912 14.9234 23.8181 15.8298 23.8649 16.7484C23.8175 17.4237 24.0372 18.0907 24.4765 18.6057C24.7123 18.8299 24.9922 19.0024 25.2983 19.1123C25.6045 19.2223 25.9302 19.2671 26.2547 19.2441C26.8789 19.2764 27.4927 19.075 27.9765 18.6792C28.1979 18.4758 28.3767 18.2305 28.5026 17.9575C28.6284 17.6845 28.6987 17.3892 28.7095 17.0888ZM26.0259 15.5168C26.0634 15.2524 26.16 15 26.3084 14.7781C26.3645 14.7039 26.4378 14.6445 26.5219 14.6049C26.6061 14.5653 26.6986 14.5467 26.7915 14.5507C26.8581 14.5455 26.925 14.5555 26.9871 14.58C27.0493 14.6044 27.105 14.6427 27.1502 14.6919C27.2382 14.8112 27.2808 14.9579 27.2703 15.1057C27.2703 15.1509 27.2703 15.199 27.2703 15.247C27.2703 15.295 27.2703 15.3882 27.2519 15.5097L26.0259 15.5168ZM29.0866 19.0789L29.9864 13.3897H31.9313L31.8041 14.1848C32.0113 13.9106 32.2717 13.6809 32.5697 13.5097C32.8551 13.3499 33.1716 13.2535 33.4976 13.2272L33.1812 15.2329H33.1375C32.7477 15.2018 32.3586 15.3011 32.0315 15.5153C31.7579 15.7888 31.5923 16.152 31.5654 16.5379L31.17 19.0803L29.0866 19.0789ZM33.8988 13.3897H35.9439L36.0612 16.8614L37.2773 13.3897H39.321L36.8097 19.0789H34.6163L33.8988 13.3897ZM38.7659 19.0789H40.8267L41.7278 13.3897H39.6657L38.7659 19.0789ZM42.1332 11.2272C42.1452 11.5981 42.0148 11.9594 41.7688 12.2371C41.654 12.367 41.5123 12.4702 41.3534 12.5395C41.1946 12.6088 41.0225 12.6425 40.8493 12.6382C40.7213 12.643 40.5938 12.6202 40.4754 12.5715C40.357 12.5227 40.2504 12.4492 40.1628 12.3558C39.9851 12.1541 39.8929 11.8912 39.9058 11.6227C39.8929 11.2494 40.0238 10.8854 40.2716 10.6058C40.3854 10.4749 40.5267 10.3708 40.6854 10.3007C40.8441 10.2306 41.0163 10.1964 41.1897 10.2004C41.3179 10.1951 41.4458 10.2176 41.5645 10.2664C41.6832 10.3151 41.79 10.389 41.8775 10.4829C42.0553 10.6883 42.1469 10.9545 42.1332 11.2258V11.2272ZM44.7447 14.5846H44.8662C45.0146 14.5937 45.1632 14.5692 45.3009 14.513C45.4386 14.4568 45.5618 14.3702 45.6614 14.2597C45.865 13.9916 45.9653 13.6592 45.9439 13.3233C45.9517 13.2297 45.9399 13.1355 45.9093 13.0467C45.8786 12.958 45.8298 12.8766 45.7659 12.8077C45.6103 12.6838 45.4132 12.6242 45.2151 12.6411C45.1906 12.6397 45.1661 12.6397 45.1416 12.6411C45.1063 12.6411 45.0766 12.6411 45.054 12.6411L44.7447 14.5846ZM41.7603 19.0789H44.0286L44.5385 15.8021L45.0498 19.0789H47.4509L46.4495 15.5295C46.9568 15.4161 47.4016 15.1129 47.6924 14.682C47.9936 14.1923 48.1411 13.6236 48.1162 13.0493C48.147 12.7451 48.1008 12.438 47.9818 12.1564C47.8629 11.8748 47.675 11.6276 47.4354 11.4377C46.6684 11.0532 45.8098 10.8894 44.9552 10.9645H43.0498L41.7603 19.0789ZM52.7207 17.0902C52.7099 17.3903 52.6398 17.6853 52.5142 17.958C52.3886 18.2308 52.2101 18.4759 51.989 18.6792C51.5053 19.075 50.8915 19.2764 50.2673 19.2441C49.9428 19.2671 49.6171 19.2223 49.3109 19.1123C49.0047 19.0024 48.7248 18.8299 48.489 18.6057C48.0497 18.0907 47.8301 17.4237 47.8775 16.7484C47.8308 15.8298 48.1038 14.9234 48.6501 14.1834C48.8954 13.8714 49.2109 13.6217 49.571 13.4545C49.931 13.2874 50.3254 13.2076 50.7221 13.2216C51.3285 13.1903 51.9239 13.3925 52.3859 13.7865C52.592 13.9792 52.7537 14.2145 52.8598 14.4759C52.9659 14.7374 53.0139 15.0188 53.0003 15.3007C53.0003 15.4645 52.9918 15.641 52.9777 15.8317C52.9636 16.0224 52.9396 16.2357 52.9057 16.473H49.893C49.8732 16.6509 49.8563 16.7922 49.8464 16.8967C49.8365 17.0012 49.8323 17.0817 49.8323 17.1439C49.8189 17.301 49.8664 17.4572 49.965 17.5803C50.0194 17.6307 50.0836 17.6693 50.1536 17.6936C50.2236 17.7179 50.2979 17.7274 50.3718 17.7215C50.4529 17.7268 50.5343 17.7153 50.6108 17.6878C50.6873 17.6604 50.7574 17.6175 50.8167 17.5619C50.9312 17.431 50.994 17.2627 50.9933 17.0888L52.7207 17.0902ZM50.0371 15.5168H51.2546C51.2673 15.3967 51.2729 15.3063 51.2743 15.254C51.2758 15.2018 51.2743 15.1509 51.2743 15.1128C51.2841 14.965 51.2416 14.8186 51.1543 14.699C51.1091 14.6498 51.0533 14.6115 50.9912 14.587C50.929 14.5626 50.8621 14.5525 50.7955 14.5577C50.7026 14.5537 50.6101 14.5723 50.526 14.6119C50.4419 14.6515 50.3686 14.711 50.3125 14.7851C50.1681 15.0058 50.0741 15.2556 50.0371 15.5168ZM56.6599 15.6439C56.6711 15.4698 56.636 15.2958 56.5582 15.1396C56.527 15.0864 56.4818 15.0427 56.4275 15.0133C56.3733 14.9839 56.3119 14.9699 56.2503 14.973C56.045 14.973 55.8704 15.1481 55.7263 15.4984C55.5707 15.9139 55.4973 16.3557 55.5102 16.7992C55.4977 16.973 55.5313 17.1469 55.6076 17.3035C55.6392 17.3548 55.6841 17.3967 55.7376 17.4245C55.7911 17.4524 55.8511 17.4652 55.9113 17.4617C56.1175 17.4617 56.2955 17.2851 56.4424 16.9334C56.598 16.5213 56.6714 16.0828 56.6585 15.6425L56.6599 15.6439ZM56.1726 19.0789L56.2616 18.4518C56.0579 18.6884 55.8159 18.8889 55.5455 19.045C55.3179 19.1667 55.0635 19.2298 54.8054 19.2286C54.6003 19.237 54.3964 19.1943 54.212 19.1043C54.0276 19.0143 53.8684 18.8799 53.7489 18.7131C53.4722 18.2798 53.3402 17.7699 53.3718 17.2569C53.3354 16.2561 53.5711 15.2642 54.054 14.3868C54.205 14.0592 54.4428 13.7792 54.7415 13.5771C55.0403 13.3749 55.3886 13.2583 55.7489 13.2399C55.9909 13.2345 56.2293 13.2992 56.4353 13.4264C56.6554 13.5796 56.8372 13.7817 56.9664 14.0168L57.4523 10.9688H59.4974L58.2121 19.0775L56.1726 19.0789Z" stroke="#1E120D" stroke-width="0.0164217" stroke-miterlimit="22.926"/>
<path fill-rule="evenodd" clip-rule="evenodd" d="M10.7036 8.48669C11.9215 8.48669 13.1121 8.84786 14.1248 9.52453C15.1375 10.2012 15.9268 11.163 16.3929 12.2882C16.859 13.4135 16.981 14.6517 16.7434 15.8462C16.5058 17.0408 15.9193 18.1381 15.058 18.9993C14.1968 19.8605 13.0995 20.4471 11.905 20.6847C10.7104 20.9223 9.47219 20.8003 8.34694 20.3342C7.22168 19.8681 6.25991 19.0788 5.58324 18.0661C4.90658 17.0534 4.54541 15.8628 4.54541 14.6448C4.54541 13.0116 5.19421 11.4453 6.34909 10.2904C7.50397 9.1355 9.07032 8.48669 10.7036 8.48669Z" fill="black"/>
<path d="M10.7036 20.803C14.1046 20.803 16.8617 18.0459 16.8617 14.6448C16.8617 11.2438 14.1046 8.48669 10.7036 8.48669C7.30251 8.48669 4.54541 11.2438 4.54541 14.6448C4.54541 18.0459 7.30251 20.803 10.7036 20.803Z" stroke="#1E120D" stroke-width="0.0102636" stroke-miterlimit="22.926"/>
<mask id="mask0_1_13565" style="mask-type:luminance" maskUnits="userSpaceOnUse" x="4" y="12" width="13" height="5">
<path d="M9.10461 14.6421C9.10406 14.9605 9.19797 15.2719 9.37446 15.5368C9.55095 15.8018 9.80209 16.0084 10.0961 16.1306C10.3901 16.2527 10.7137 16.2849 11.026 16.223C11.3383 16.1612 11.6252 16.008 11.8504 15.783C12.0756 15.558 12.229 15.2712 12.2912 14.959C12.3533 14.6467 12.3214 14.3231 12.1995 14.029C12.0776 13.7349 11.8712 13.4836 11.6064 13.3068C11.3416 13.1301 11.0303 13.0359 10.7119 13.0362C10.286 13.0366 9.87761 13.2059 9.5763 13.5069C9.27499 13.808 9.10536 14.2162 9.10461 14.6421ZM6.06368 12.8427L7.42666 14.2057H4.56934V15.0786H7.42666L6.06368 16.443H7.29672L9.09614 14.6421L7.29672 12.8427H6.06368ZM14.1441 12.8427L12.3447 14.6421L14.1498 16.443H15.3828L14.0184 15.0786H16.8772V14.2057H14.0085L15.3729 12.8427H14.1441Z" fill="white"/>
</mask>
<g mask="url(#mask0_1_13565)">
<path d="M16.8715 12.8427H4.56934V16.443H16.8715V12.8427Z" fill="url(#paint0_linear_1_13565)"/>
</g>
<mask id="mask1_1_13565" style="mask-type:luminance" maskUnits="userSpaceOnUse" x="8" y="16" width="5" height="5">
<path d="M8.90723 18.068V19.301L10.2716 17.9366V20.7954H11.1431V17.9366L12.5061 19.3024V18.0694L10.7066 16.2686L8.90723 18.068Z" fill="white"/>
</mask>
<g mask="url(#mask1_1_13565)">
<path d="M12.5061 16.2686H8.90723V20.7954H12.5061V16.2686Z" fill="url(#paint1_linear_1_13565)"/>
</g>
<mask id="mask2_1_13565" style="mask-type:luminance" maskUnits="userSpaceOnUse" x="8" y="8" width="5" height="6">
<path d="M10.2716 8.49573V11.3531L8.90723 9.99007V11.2231L10.7066 13.0211L12.5061 11.2217V9.99007L11.1431 11.3531V8.49573H10.2716Z" fill="white"/>
</mask>
<g mask="url(#mask2_1_13565)">
<path d="M12.5061 8.49573H8.90723V13.0211H12.5061V8.49573Z" fill="url(#paint2_linear_1_13565)"/>
</g>
</g>
<defs>
<linearGradient id="paint0_linear_1_13565" x1="-0.400741" y1="31.132" x2="1.01401" y2="31.132" gradientUnits="userSpaceOnUse">
<stop stop-color="#E59A37"/>
<stop offset="0.1" stop-color="#E59A37"/>
<stop offset="0.47" stop-color="#EECD00"/>
<stop offset="0.52" stop-color="#EECD00"/>
<stop offset="0.58" stop-color="#EECD00"/>
<stop offset="0.88" stop-color="#E49D36"/>
<stop offset="1" stop-color="#E59A37"/>
</linearGradient>
<linearGradient id="paint1_linear_1_13565" x1="-0.402984" y1="31.1346" x2="1.00776" y2="31.1346" gradientUnits="userSpaceOnUse">
<stop stop-color="#4080B4"/>
<stop offset="0.58" stop-color="#7390C2"/>
<stop offset="1" stop-color="#E5E9EA"/>
</linearGradient>
<linearGradient id="paint2_linear_1_13565" x1="-0.402984" y1="31.1363" x2="1.00776" y2="31.1363" gradientUnits="userSpaceOnUse">
<stop stop-color="#4A9970"/>
<stop offset="0.58" stop-color="#89B894"/>
<stop offset="1" stop-color="#E1E9E5"/>
</linearGradient>
<clipPath id="clip0_1_13565">
<rect width="56.4497" height="18.4744" fill="white" transform="translate(4.54541 5.40759)"/>
</clipPath>
</defs>
</svg>
