<svg width="25" height="26" viewBox="0 0 25 26" fill="none" xmlns="http://www.w3.org/2000/svg">
<g clip-path="url(#clip0_1_13591)">
<g clip-path="url(#clip1_1_13591)">
<mask id="mask0_1_13591" style="mask-type:luminance" maskUnits="userSpaceOnUse" x="0" y="3" width="25" height="21">
<path d="M24.8206 3.18921H0.187988V23.208H24.8206V3.18921Z" fill="white"/>
</mask>
<g mask="url(#mask0_1_13591)">
<path d="M0.187988 20.9367C2.4987 22.4216 5.18813 23.2098 7.93484 23.207C9.88169 23.2192 11.8105 22.8335 13.603 22.0737C15.3955 21.3139 17.0139 20.1959 18.3589 18.7883C19.7039 17.3808 20.7473 15.7133 21.4249 13.8881C22.1026 12.063 22.4003 10.1187 22.2997 8.17438C23.2887 7.45887 24.1423 6.57289 24.8206 5.55797C23.8983 5.96642 22.9202 6.23454 21.9186 6.35342C22.9744 5.72258 23.7641 4.72867 24.1402 3.55765C23.148 4.14623 22.0628 4.56128 20.9311 4.78495C20.1697 3.9734 19.1618 3.4357 18.0638 3.2552C16.9657 3.0747 15.8387 3.26147 14.8576 3.78657C13.8765 4.31168 13.096 5.14577 12.6371 6.15956C12.1783 7.17334 12.0666 8.31019 12.3196 9.39387C10.3101 9.29354 8.34429 8.77153 6.54979 7.86177C4.75529 6.95201 3.17229 5.67485 1.90366 4.1133C1.25695 5.22551 1.05825 6.54232 1.348 7.79583C1.63775 9.04935 2.39417 10.1454 3.46337 10.861C2.66059 10.8355 1.87552 10.6186 1.17353 10.2283C1.1591 11.4061 1.55608 12.552 2.296 13.4685C3.03593 14.3849 4.07244 15.0145 5.22681 15.2486C4.48286 15.4503 3.70273 15.4796 2.94574 15.3344C3.26837 16.3385 3.89681 17.2165 4.74314 17.8458C5.58948 18.475 6.61136 18.824 7.66579 18.8437C5.5487 20.5041 2.8594 21.2568 0.187988 20.9367Z" fill="white"/>
</g>
</g>
</g>
<defs>
<clipPath id="clip0_1_13591">
<rect width="24.6326" height="24.6326" fill="white" transform="translate(0.187988 0.882324)"/>
</clipPath>
<clipPath id="clip1_1_13591">
<rect width="24.6326" height="20.0188" fill="white" transform="translate(0.187988 3.18921)"/>
</clipPath>
</defs>
</svg>
