<svg width="25" height="26" viewBox="0 0 25 26" fill="none" xmlns="http://www.w3.org/2000/svg">
<g clip-path="url(#clip0_1_13590)">
<g clip-path="url(#clip1_1_13590)">
<mask id="mask0_1_13590" style="mask-type:luminance" maskUnits="userSpaceOnUse" x="0" y="0" width="25" height="26">
<path d="M24.7659 0.882324H0.133301V25.5149H24.7659V0.882324Z" fill="white"/>
</mask>
<g mask="url(#mask0_1_13590)">
<path d="M12.449 3.10157C15.7374 3.10157 16.127 3.11338 17.4265 3.1724C18.2073 3.18231 18.9806 3.32604 19.7128 3.59732C20.2483 3.7937 20.7324 4.10841 21.1293 4.51799C21.5387 4.91517 21.8537 5.39921 22.0511 5.9344C22.3238 6.66659 22.4672 7.44061 22.4749 8.22191C22.5339 9.52029 22.5469 9.9098 22.5469 13.1982C22.5469 16.4867 22.5339 16.8762 22.4749 18.1746C22.4672 18.9559 22.3238 19.7299 22.0511 20.4621C21.8462 20.9931 21.5324 21.4754 21.1299 21.8779C20.7274 22.2804 20.2451 22.5942 19.714 22.7992C18.9818 23.0704 18.2085 23.2142 17.4277 23.2241C16.1293 23.2831 15.7386 23.2949 12.4502 23.2949C9.16175 23.2949 8.77342 23.2831 7.47386 23.2241C6.69305 23.2143 5.91971 23.0706 5.18753 22.7992C4.65234 22.6023 4.16827 22.2877 3.77112 21.8785C3.36181 21.4812 3.0468 20.9972 2.84927 20.4621C2.57891 19.7292 2.43561 18.9556 2.42553 18.1746C2.36651 16.8762 2.35353 16.4867 2.35353 13.1982C2.35353 9.9098 2.36651 9.52029 2.42553 8.22191C2.43523 7.44092 2.57813 6.66731 2.84809 5.9344C3.0459 5.39943 3.36088 4.91547 3.76994 4.51799C4.16709 4.10879 4.65116 3.79414 5.18635 3.59732C5.91853 3.3259 6.69187 3.18217 7.47268 3.1724C8.77106 3.11338 9.16175 3.10157 12.449 3.10157ZM12.449 0.881348C9.10392 0.882528 8.68607 0.896692 7.37235 0.955709C6.35063 0.976908 5.33982 1.17045 4.38254 1.52818C3.56115 1.83617 2.81677 2.31953 2.20126 2.94459C1.57405 3.56156 1.08905 4.30799 0.780129 5.13177C0.421964 6.08852 0.228406 7.09901 0.207662 8.1204C0.146285 9.43412 0.133301 9.85314 0.133301 13.1982C0.133301 16.5433 0.146285 16.9624 0.207662 18.2737C0.228273 19.2955 0.421833 20.3064 0.780129 21.2635C1.08843 22.0848 1.57175 22.8291 2.19654 23.4448C2.81205 24.0699 3.55642 24.5532 4.37782 24.8612C5.3351 25.2189 6.34591 25.4125 7.36763 25.4337C8.68135 25.4927 9.10037 25.5069 12.4431 25.5069C15.7858 25.5069 16.2072 25.4927 17.5186 25.4337C18.5403 25.4125 19.5511 25.2189 20.5084 24.8612C21.3264 24.5446 22.0693 24.0607 22.6894 23.4403C23.3096 22.82 23.7933 22.0769 24.1096 21.2588C24.4684 20.3018 24.6624 19.2909 24.6833 18.269C24.7423 16.9553 24.7565 16.5363 24.7565 13.1935C24.7565 9.85078 24.7423 9.4294 24.6833 8.11804C24.6646 7.09785 24.4734 6.08817 24.1179 5.13177C23.8017 4.31342 23.318 3.57015 22.6979 2.9496C22.0777 2.32905 21.3348 1.8449 20.5167 1.52818C19.5594 1.17045 18.5486 0.976908 17.5268 0.955709C16.2131 0.896692 15.7953 0.882528 12.449 0.882528M12.449 6.87513C11.1982 6.87513 9.97545 7.24605 8.93543 7.94097C7.8954 8.63589 7.0848 9.62361 6.60613 10.7792C6.12746 11.9348 6.00222 13.2064 6.24625 14.4332C6.49027 15.66 7.0926 16.7869 7.97707 17.6714C8.86153 18.5558 9.98841 19.1582 11.2152 19.4022C12.442 19.6462 13.7136 19.521 14.8692 19.0423C16.0248 18.5636 17.0125 17.753 17.7075 16.713C18.4024 15.673 18.7733 14.4502 18.7733 13.1994C18.773 11.5222 18.1066 9.91378 16.9206 8.72782C15.7346 7.54185 14.1262 6.87545 12.449 6.87513ZM12.449 17.3047C11.6371 17.3047 10.8434 17.0639 10.1683 16.6128C9.49316 16.1617 8.96698 15.5206 8.65627 14.7704C8.34555 14.0203 8.26425 13.1949 8.42265 12.3985C8.58106 11.6022 8.97204 10.8707 9.54617 10.2966C10.1203 9.72245 10.8518 9.33146 11.6481 9.17306C12.4445 9.01466 13.2699 9.09596 14.02 9.40667C14.7701 9.71739 15.4113 10.2436 15.8624 10.9187C16.3135 11.5938 16.5542 12.3875 16.5542 13.1994C16.5542 14.2882 16.1217 15.3324 15.3519 16.1023C14.582 16.8721 13.5378 17.3047 12.449 17.3047ZM20.5025 6.6249C20.503 6.33249 20.4167 6.0465 20.2547 5.80308C20.0927 5.55966 19.8622 5.36973 19.5922 5.25729C19.3223 5.14485 19.0251 5.11495 18.7382 5.17137C18.4513 5.22778 18.1875 5.36799 17.9802 5.57426C17.773 5.78053 17.6315 6.04361 17.5737 6.33026C17.5159 6.6169 17.5444 6.91424 17.6556 7.18471C17.7667 7.45517 17.9555 7.68662 18.1982 7.8498C18.4408 8.01299 18.7264 8.10058 19.0188 8.10151C19.4108 8.10151 19.7868 7.94585 20.0642 7.66875C20.3415 7.39164 20.4975 7.01576 20.4978 6.62372" fill="white"/>
</g>
</g>
</g>
<defs>
<clipPath id="clip0_1_13590">
<rect width="24.6326" height="24.6326" fill="white" transform="translate(0.133301 0.882324)"/>
</clipPath>
<clipPath id="clip1_1_13590">
<rect width="24.6326" height="24.6326" fill="white" transform="translate(0.133301 0.882324)"/>
</clipPath>
</defs>
</svg>
