<svg width="39" height="30" viewBox="0 0 39 30" fill="none" xmlns="http://www.w3.org/2000/svg">
<rect x="0.148438" y="0.275818" width="37.9753" height="28.738" rx="4.10543" fill="#004F89"/>
<g clip-path="url(#clip0_1_13564)">
<path fill-rule="evenodd" clip-rule="evenodd" d="M15.5759 9.01086H18.0174L16.3288 10.7004H23.2169C26.3323 10.7004 26.2952 14.3227 26.2952 14.3227C26.2952 14.3227 26.2571 17.8326 23.1417 17.8326H20.958V13.1986H22.628V16.145C22.8577 16.1366 23.0833 16.0816 23.2911 15.9836C23.499 15.8855 23.6848 15.7464 23.8374 15.5745C23.99 15.4026 24.1062 15.2016 24.179 14.9836C24.2518 14.7656 24.2797 14.5351 24.2609 14.3061C24.2609 12.6917 22.3838 12.5413 22.3838 12.5413H12.0239L15.5759 9.01086Z" fill="#ECA735"/>
<path d="M20.1139 5.40759H18.4624V10.1188H20.1139V5.40759Z" fill="#ECA735"/>
<path d="M22.5836 7.23682H20.9321V10.1081H22.5836V7.23682Z" fill="#ECA735"/>
<path d="M20.0738 13.2095H18.4224V16.0818H20.0738V13.2095Z" fill="#ECA735"/>
<path d="M7.64019 20.6577H6.63525L6.76417 19.9741H9.5856L9.44985 20.6577H8.44492L7.82184 23.8073H7.01711L7.64019 20.6577Z" fill="white"/>
<path d="M10.1954 19.9761H12.463L12.3341 20.6519H10.8594L10.6944 21.4859H11.9464L11.8175 22.1617H10.5655L10.3702 23.1315H11.8927L11.7628 23.8073H9.42578L10.1954 19.9761Z" fill="white"/>
<path d="M13.2945 19.9761H14.0992L13.4644 23.1315H14.9166L14.7867 23.8073H12.5249L13.2945 19.9761Z" fill="white"/>
<path d="M16.229 19.9761H18.4967L18.3678 20.6519H16.8931L16.7281 21.4859H17.9801L17.8512 22.1617H16.5992L16.4039 23.1315H17.9225L17.7926 23.8073H15.4595L16.229 19.9761Z" fill="white"/>
<path d="M19.3291 19.9771H20.5392C21.2853 19.9771 21.8498 20.2584 21.8498 20.9938C21.8498 22.0632 21.0499 22.4802 20.0811 22.4802H19.628L19.3702 23.8084H18.5586L19.3291 19.9771ZM20.169 21.8395C20.7394 21.8395 21.0558 21.5924 21.0558 21.111C21.0558 20.7701 20.8214 20.6178 20.4103 20.6178H19.9981L19.7637 21.8395H20.169Z" fill="white"/>
<path d="M23.4118 22.8445H22.272L21.8208 23.8074H20.9321L22.9537 19.9771H23.9176L24.2995 23.8074H23.4586L23.4118 22.8445ZM23.3834 22.2389L23.36 21.734C23.3414 21.3571 23.3239 20.9987 23.3131 20.5934H23.2897C23.1236 20.984 22.9772 21.3512 22.7945 21.734L22.5601 22.2389H23.3834Z" fill="white"/>
<path d="M26.8143 19.9066C27.0317 19.8992 27.2469 19.9525 27.4358 20.0605C27.6247 20.1684 27.7797 20.3269 27.8837 20.518L27.3368 20.9409C27.2823 20.839 27.201 20.7539 27.1017 20.6949C27.0024 20.6358 26.8888 20.605 26.7733 20.6059C26.0623 20.6059 25.5447 21.3696 25.5447 22.2222C25.5447 22.8081 25.7742 23.191 26.3738 23.191C26.5209 23.1904 26.6644 23.1459 26.786 23.063L26.95 22.311H26.326L26.449 21.6528H27.7831L27.4305 23.4801C27.0857 23.7417 26.6641 23.8821 26.2312 23.8795C26.021 23.8931 25.8104 23.8602 25.6143 23.7831C25.4182 23.706 25.2416 23.5867 25.0968 23.4336C24.9521 23.2805 24.8429 23.0974 24.777 22.8973C24.7111 22.6972 24.6901 22.485 24.7155 22.2759C24.6936 21.9816 24.7308 21.6859 24.8251 21.4063C24.9193 21.1267 25.0687 20.8688 25.2644 20.6479C25.4601 20.427 25.698 20.2476 25.9643 20.1203C26.2305 19.9929 26.5195 19.9203 26.8143 19.9066Z" fill="white"/>
<path d="M28.3021 22.2569C28.2517 21.6881 28.4276 21.1223 28.7916 20.6822C29.1556 20.2422 29.6784 19.9634 30.2466 19.9062C30.4527 19.9021 30.6574 19.9428 30.8463 20.0255C31.0352 20.1081 31.2039 20.2308 31.3407 20.3851C31.4776 20.5393 31.5794 20.7214 31.639 20.9188C31.6986 21.1162 31.7147 21.3242 31.6861 21.5284C31.7375 22.0979 31.5617 22.6647 31.1969 23.105C30.832 23.5454 30.3079 23.8237 29.7387 23.8791C29.5325 23.8835 29.3277 23.8431 29.1387 23.7605C28.9496 23.678 28.7807 23.5553 28.6438 23.401C28.5069 23.2467 28.4051 23.0644 28.3456 22.8669C28.2861 22.6693 28.2703 22.4612 28.2992 22.2569M29.1215 22.2042C29.1215 22.8156 29.3569 23.1808 29.7798 23.1808C30.3257 23.1808 30.8609 22.464 30.8609 21.5762C30.8609 20.9649 30.6314 20.5996 30.2085 20.5996C29.6626 20.5996 29.1215 21.3106 29.1215 22.1983" fill="white"/>
</g>
<defs>
<clipPath id="clip0_1_13564">
<rect width="29.7644" height="18.4744" fill="white" transform="translate(4.25391 5.40759)"/>
</clipPath>
</defs>
</svg>
