<svg width="105" height="29" viewBox="0 0 105 29" fill="none" xmlns="http://www.w3.org/2000/svg">
<rect x="0.878418" y="0.246399" width="103.662" height="28.738" rx="4.10543" fill="white"/>
<g clip-path="url(#clip0_1_13555)">
<path d="M29.8961 16.8906C29.5882 16.8906 29.2834 16.8303 28.999 16.7131C28.7145 16.5959 28.4561 16.4242 28.2384 16.2077C28.0207 15.9912 27.848 15.7342 27.7302 15.4514C27.6124 15.1685 27.5518 14.8654 27.5518 14.5592C27.5518 14.2531 27.6124 13.9499 27.7302 13.6671C27.848 13.3842 28.0207 13.1272 28.2384 12.9107C28.4561 12.6943 28.7145 12.5225 28.999 12.4054C29.2834 12.2882 29.5882 12.2279 29.8961 12.2279C30.3964 12.2303 30.8868 12.3668 31.3157 12.6229L30.9927 13.5101C30.6625 13.3211 30.29 13.2174 29.9091 13.2084C29.7254 13.1924 29.5404 13.2164 29.367 13.2787C29.1936 13.341 29.0359 13.4401 28.9048 13.5692C28.7738 13.6982 28.6727 13.8541 28.6084 14.026C28.544 14.1978 28.5182 14.3816 28.5325 14.5644C28.5182 14.7472 28.544 14.931 28.6084 15.1028C28.6727 15.2747 28.7738 15.4306 28.9048 15.5596C29.0359 15.6887 29.1936 15.7878 29.367 15.8501C29.5404 15.9124 29.7254 15.9364 29.9091 15.9205C30.31 15.9123 30.7013 15.7973 31.0422 15.5876L31.3587 16.4748C30.9202 16.7479 30.4135 16.8933 29.8961 16.8944" fill="#664A87"/>
<path d="M34.5653 13.1604C34.3915 13.1669 34.221 13.2091 34.0645 13.2844C33.908 13.3597 33.7689 13.4664 33.6559 13.5978C33.543 13.7293 33.4586 13.8826 33.4082 14.048C33.3579 14.2135 33.3425 14.3876 33.3631 14.5592C33.3356 14.7321 33.3461 14.9089 33.3939 15.0774C33.4417 15.2458 33.5256 15.402 33.6399 15.5351C33.7543 15.6682 33.8962 15.7751 34.0561 15.8483C34.216 15.9216 34.3899 15.9596 34.5659 15.9596C34.7419 15.9596 34.9159 15.9216 35.0757 15.8483C35.2356 15.7751 35.3775 15.6682 35.4919 15.5351C35.6062 15.402 35.6901 15.2458 35.7379 15.0774C35.7857 14.9089 35.7962 14.7321 35.7687 14.5592C35.7891 14.3875 35.7736 14.2134 35.723 14.0479C35.6725 13.8825 35.588 13.7292 35.475 13.5978C35.3619 13.4664 35.2227 13.3597 35.0661 13.2844C34.9096 13.2091 34.739 13.1669 34.5653 13.1604ZM34.547 16.8893C34.2377 16.9013 33.9293 16.8489 33.6415 16.7355C33.3537 16.6221 33.093 16.4501 32.8759 16.2306C32.6589 16.0111 32.4904 15.7489 32.3811 15.4609C32.2719 15.1728 32.2245 14.8653 32.2418 14.5579C32.2297 14.2486 32.282 13.94 32.3956 13.6517C32.5091 13.3635 32.6814 13.1016 32.9015 12.8827C33.1217 12.6638 33.385 12.4925 33.6749 12.3796C33.9647 12.2667 34.275 12.2146 34.5861 12.2266C34.8953 12.2154 35.2034 12.2683 35.4908 12.382C35.7783 12.4957 36.0388 12.6677 36.2558 12.887C36.4728 13.1063 36.6415 13.3681 36.7511 13.6558C36.8608 13.9435 36.909 14.2507 36.8927 14.5579C36.9044 14.8672 36.8517 15.1756 36.738 15.4637C36.6244 15.7518 36.4521 16.0134 36.232 16.2323C36.012 16.4511 35.7488 16.6224 35.4591 16.7355C35.1694 16.8485 34.858 16.9009 34.547 16.8893Z" fill="#664A87"/>
<path d="M42.0115 16.9027L39.2765 14.4548V16.816H38.2241V12.2362L38.3661 12.2129L41.0686 14.6414V12.2984H42.1222V16.8846L42.0115 16.9027Z" fill="#664A87"/>
<path d="M44.6621 13.2611V14.2597H46.2249V15.1819H44.6621V16.8216H43.6084V12.3001H46.4841V13.2611H44.6621Z" fill="#664A87"/>
<path d="M48.7075 12.3001H47.6538V16.8177H48.7075V12.3001Z" fill="#664A87"/>
<path d="M51.905 14.1105L51.4518 15.1946H52.3504L51.905 14.1105ZM53.0264 16.8161L52.6852 15.9963H51.1223L50.7823 16.8161H49.6987L51.8373 12.261H51.9793L54.1269 16.8161H53.0264Z" fill="#664A87"/>
<path d="M58.8904 16.9027L56.1554 14.4548V16.816H55.103V12.2362L55.245 12.2129L57.9475 14.6414V12.2984H59.0011V16.8846L58.8904 16.9027Z" fill="#664A87"/>
<path d="M61.7843 15.8631H63.9593V16.819H60.1042L60.0742 16.7076L62.3235 13.2624H60.2396V12.3001H64.0088L64.0388 12.418L61.7843 15.8631Z" fill="#664A87"/>
<path d="M66.9958 14.1105L66.5439 15.1946H67.4426L66.9958 14.1105ZM68.1185 16.8161L67.7773 15.9963H66.2144L65.8745 16.8161H64.8013L66.9398 12.261H67.0818L69.2203 16.8161H68.1185Z" fill="#664A87"/>
<path d="M72.998 12.5463C72.7399 12.55 72.4852 12.6058 72.2495 12.7105C72.0137 12.8151 71.8019 12.9664 71.6268 13.155C71.4517 13.3437 71.3171 13.5658 71.2311 13.8078C71.145 14.0499 71.1094 14.3068 71.1264 14.5629C71.106 14.8198 71.1392 15.0781 71.224 15.3216C71.3088 15.5651 71.4434 15.7885 71.6192 15.9778C71.7951 16.1671 72.0084 16.3181 72.2458 16.4214C72.4832 16.5247 72.7395 16.578 72.9986 16.578C73.2578 16.578 73.5141 16.5247 73.7515 16.4214C73.9889 16.3181 74.2022 16.1671 74.3781 15.9778C74.5539 15.7885 74.6885 15.5651 74.7733 15.3216C74.8581 15.0781 74.8913 14.8198 74.8708 14.5629C74.8878 14.3067 74.8522 14.0496 74.7661 13.8075C74.68 13.5654 74.5452 13.3432 74.37 13.1546C74.1948 12.9659 73.9828 12.8147 73.7469 12.7101C73.511 12.6055 73.2562 12.5498 72.998 12.5463ZM72.9863 16.88C72.6847 16.8794 72.3864 16.8183 72.1092 16.7004C71.8319 16.5826 71.5814 16.4104 71.3725 16.1941C71.1637 15.9779 71.0008 15.7219 70.8936 15.4417C70.7865 15.1614 70.7372 14.8626 70.7487 14.5629C70.7641 14.123 70.9095 13.6974 71.1667 13.3392C71.4239 12.9811 71.7816 12.7062 72.195 12.549C72.6084 12.3918 73.0592 12.3592 73.4911 12.4554C73.923 12.5515 74.3169 12.7721 74.6234 13.0896C74.93 13.407 75.1357 13.8073 75.2148 14.2404C75.2939 14.6734 75.243 15.1201 75.0683 15.5245C74.8936 15.9289 74.603 16.2731 74.2327 16.5142C73.8624 16.7553 73.4288 16.8825 72.9863 16.88Z" fill="#7E90A2"/>
<path d="M80.9479 16.8845L77.9238 13.0508V16.8172H77.5825V12.2491L77.6633 12.231L80.6588 16.0219V12.2983H81.0053V16.8716L80.9479 16.8845Z" fill="#7E90A2"/>
<path d="M83.5684 16.8177V12.3001H83.9161V16.503H86.1302V16.8177H83.5684Z" fill="#7E90A2"/>
<path d="M88.567 12.3001H88.2192V16.8177H88.567V12.3001Z" fill="#7E90A2"/>
<path d="M94.487 16.8845L91.4628 13.0508V16.8172H91.1216V12.2491L91.2023 12.231L94.1979 16.0219V12.2983H94.5443V16.8716L94.487 16.8845Z" fill="#7E90A2"/>
<path d="M97.0996 16.8177V12.3001H99.6654V12.6084H97.4513V14.3711H99.444V14.6794H97.4434V16.503H99.6575V16.8177H97.0996Z" fill="#7E90A2"/>
<path d="M13.9517 17.0138C13.474 17.014 13.007 16.8734 12.6097 16.6096C12.2124 16.3459 11.9027 15.9709 11.7198 15.532C11.5369 15.0932 11.4889 14.6103 11.5821 14.1444C11.6752 13.6784 11.9052 13.2505 12.243 12.9146C12.5807 12.5787 13.0111 12.3499 13.4796 12.2573C13.9482 12.1647 14.4338 12.2124 14.8751 12.3943C15.3163 12.5762 15.6934 12.8842 15.9587 13.2792C16.2239 13.6743 16.3653 14.1388 16.3651 14.6138C16.3651 14.929 16.3026 15.2411 16.1814 15.5322C16.0601 15.8234 15.8823 16.088 15.6582 16.3108C15.4341 16.5337 15.1681 16.7105 14.8753 16.8311C14.5824 16.9517 14.2686 17.0138 13.9517 17.0138ZM13.9517 10.6052C13.1544 10.605 12.3749 10.8399 11.7119 11.2802C11.0488 11.7205 10.5319 12.3464 10.2266 13.0789C9.92135 13.8113 9.84134 14.6174 9.99673 15.395C10.1521 16.1727 10.5359 16.8871 11.0996 17.4478C11.6633 18.0086 12.3816 18.3905 13.1635 18.5453C13.9455 18.7 14.756 18.6207 15.4927 18.3174C16.2293 18.014 16.8589 17.5002 17.3019 16.841C17.7449 16.1818 17.9814 15.4067 17.9814 14.6138C17.9815 14.0875 17.8774 13.5662 17.675 13.0799C17.4726 12.5936 17.1758 12.1516 16.8016 11.7794C16.4274 11.4071 15.9831 11.1119 15.4941 10.9104C15.0051 10.7089 14.481 10.6052 13.9517 10.6052Z" fill="#7E90A2"/>
<path d="M13.9441 5.37817C12.1069 5.37817 10.311 5.91993 8.78349 6.93493C7.25596 7.94993 6.06539 9.39258 5.36234 11.0805C4.6593 12.7683 4.47535 14.6256 4.83376 16.4175C5.19217 18.2093 6.07684 19.8552 7.3759 21.1471C8.67496 22.4389 10.3301 23.3187 12.1319 23.6751C13.9338 24.0315 15.8014 23.8486 17.4987 23.1495C19.196 22.4503 20.6468 21.2664 21.6674 19.7473C22.6881 18.2283 23.2329 16.4423 23.2329 14.6154C23.2329 14.4076 23.1498 14.2083 23.0021 14.0613C22.8543 13.9144 22.6539 13.8318 22.4449 13.8318C22.2359 13.8318 22.0355 13.9144 21.8877 14.0613C21.74 14.2083 21.6569 14.4076 21.6569 14.6154C21.6567 16.1326 21.204 17.6157 20.3561 18.8772C19.5083 20.1386 18.3033 21.1216 16.8936 21.702C15.484 22.2824 13.9329 22.434 12.4365 22.1378C10.9402 21.8415 9.56576 21.1107 8.4871 20.0376C7.40843 18.9646 6.67396 17.5976 6.37656 16.1094C6.07916 14.6213 6.23219 13.0789 6.81629 11.6772C7.4004 10.2755 8.38935 9.07761 9.65808 8.23489C10.9268 7.39216 12.4183 6.94249 13.9441 6.94275C14.1527 6.94275 14.3528 6.86033 14.5003 6.71362C14.6478 6.56692 14.7307 6.36794 14.7307 6.16046C14.7307 5.95299 14.6478 5.75401 14.5003 5.6073C14.3528 5.46059 14.1527 5.37817 13.9441 5.37817Z" fill="#664A87"/>
<path d="M13.9452 7.97217C12.1735 7.97217 10.4744 8.67205 9.22168 9.91785C7.96893 11.1637 7.26514 12.8533 7.26514 14.6151C7.26514 16.377 7.96893 18.0666 9.22168 19.3124C10.4744 20.5582 12.1735 21.2581 13.9452 21.2581C14.0512 21.2581 14.1562 21.2374 14.2542 21.197C14.3522 21.1566 14.4412 21.0975 14.5162 21.0229C14.5912 20.9484 14.6506 20.8598 14.6912 20.7624C14.7318 20.665 14.7527 20.5606 14.7527 20.4551C14.7527 20.3497 14.7318 20.2452 14.6912 20.1478C14.6506 20.0504 14.5912 19.9619 14.5162 19.8873C14.4412 19.8127 14.3522 19.7536 14.2542 19.7132C14.1562 19.6729 14.0512 19.6521 13.9452 19.6521C12.9434 19.6524 11.964 19.3572 11.1308 18.8039C10.2977 18.2505 9.64832 17.464 9.26475 16.5436C8.88119 15.6232 8.7807 14.6104 8.97599 13.6333C9.17128 12.6561 9.65358 11.7585 10.3619 11.0539C11.0702 10.3494 11.9727 9.86953 12.9553 9.67507C13.9378 9.48061 14.9563 9.58029 15.8819 9.96148C16.8075 10.3427 17.5986 10.9883 18.1553 11.8166C18.7119 12.645 19.009 13.6189 19.009 14.6151C19.0174 14.8227 19.1062 15.019 19.2568 15.1629C19.4074 15.3068 19.6082 15.3872 19.8171 15.3872C20.026 15.3872 20.2268 15.3068 20.3774 15.1629C20.5281 15.019 20.6169 14.8227 20.6253 14.6151C20.6253 12.8533 19.9215 11.1637 18.6687 9.91785C17.416 8.67205 15.7169 7.97217 13.9452 7.97217Z" fill="#BAC621"/>
</g>
<defs>
<clipPath id="clip0_1_13555">
<rect width="95.4513" height="18.4744" fill="white" transform="translate(4.98389 5.37817)"/>
</clipPath>
</defs>
</svg>
