<svg width="18" height="18" viewBox="0 0 18 18" fill="none" xmlns="http://www.w3.org/2000/svg">
<path d="M8.87905 7.67165C10.3906 7.67165 11.616 6.44627 11.616 4.93469C11.616 3.42311 10.3906 2.19773 8.87905 2.19773C7.36747 2.19773 6.14209 3.42311 6.14209 4.93469C6.14209 6.44627 7.36747 7.67165 8.87905 7.67165Z" stroke="black" stroke-width="1.02636" stroke-linecap="round" stroke-linejoin="round"/>
<path d="M12.7586 15.8825C12.9711 15.8825 13.1806 15.8331 13.3706 15.738C13.5606 15.643 13.7259 15.5051 13.8534 15.3351C13.9809 15.1652 14.067 14.9679 14.105 14.7588C14.143 14.5498 14.1318 14.3348 14.0723 14.1309C13.7241 13.0332 13.0302 12.0776 12.0942 11.4067C11.1582 10.7358 10.0303 10.3857 8.87898 10.4086C7.72761 10.3857 6.59972 10.7358 5.66372 11.4067C4.72771 12.0776 4.03381 13.0332 3.6856 14.1309C3.62595 14.3354 3.61487 14.551 3.65324 14.7605C3.69161 14.9701 3.77836 15.1678 3.90661 15.3379C4.03485 15.508 4.20103 15.6458 4.39193 15.7403C4.58282 15.8349 4.79316 15.8836 5.00618 15.8825H12.7586Z" stroke="black" stroke-width="1.02636" stroke-linecap="round" stroke-linejoin="round"/>
</svg>
