<svg width="42" height="30" viewBox="0 0 42 30" fill="none" xmlns="http://www.w3.org/2000/svg">
<rect x="0.878418" y="0.275818" width="41.0543" height="28.738" rx="4.10543" fill="white"/>
<g clip-path="url(#clip0_1_13561)">
<path d="M16.5542 19.4378L18.2188 9.68243H20.8779L19.2133 19.4378H16.5542Z" fill="#00528D"/>
<path d="M28.8572 9.92311C28.0933 9.64654 27.2863 9.50776 26.4738 9.51322C23.8469 9.51322 21.9951 10.8365 21.9795 12.7383C21.9649 14.1396 23.3007 14.923 24.3099 15.3881C25.3502 15.8666 25.6925 16.1714 25.6883 16.599C25.681 17.2524 24.856 17.5509 24.0966 17.5509C23.232 17.5755 22.3736 17.3985 21.5894 17.0339L21.246 16.8789L20.8726 19.0636C21.821 19.4133 22.8246 19.5895 23.8355 19.5838C26.6298 19.5838 28.4452 18.275 28.465 16.2547C28.4754 15.1446 27.7669 14.2999 26.2335 13.6039C25.3034 13.1524 24.7343 12.8517 24.7406 12.395C24.7406 11.9892 25.2222 11.5554 26.2626 11.5554C26.9464 11.539 27.6261 11.6659 28.258 11.9279L28.4973 12.0402L28.8572 9.92311Z" fill="#00528D"/>
<path d="M35.6745 9.69226H33.6198C33.331 9.65515 33.0381 9.71423 32.7863 9.86035C32.5345 10.0065 32.3378 10.2315 32.2268 10.5006L28.2734 19.4414H31.0657C31.0657 19.4414 31.5224 18.2398 31.6254 17.9755H35.0315C35.1106 18.3167 35.3551 19.4372 35.3551 19.4372H37.8269L35.6745 9.69226ZM32.3953 15.9801C32.6148 15.4183 33.4544 13.2534 33.4544 13.2534C33.4388 13.2794 33.6728 12.6885 33.807 12.3171L33.987 13.1577C33.987 13.1577 34.4958 15.487 34.6029 15.9749L32.3953 15.9801Z" fill="#00528D"/>
<path d="M14.3218 9.68945L11.721 16.3425L11.4432 14.99C10.7685 13.2139 9.45416 11.7541 7.7583 10.8973L10.1428 19.4292H12.9517L17.1381 9.69257L14.3218 9.68945Z" fill="#00528D"/>
<path d="M9.30549 9.68402H5.01718L4.98389 9.88689C6.39507 10.1466 7.72134 10.7475 8.84719 11.637C9.97304 12.5266 10.8643 13.678 11.4434 14.9908L10.5071 10.508C10.439 10.2485 10.2795 10.0223 10.058 9.87091C9.83651 9.71955 9.56783 9.65319 9.30133 9.68402" fill="#E79D00"/>
</g>
<defs>
<clipPath id="clip0_1_13561">
<rect width="32.8435" height="18.4744" fill="white" transform="translate(4.98389 5.40759)"/>
</clipPath>
</defs>
</svg>
